<svg width="14" height="16" viewBox="0 0 14 16" fill="none" xmlns="http://www.w3.org/2000/svg">
<path d="M13.4961 3.57629L13.1428 2.51733C13.0083 2.11401 12.6322 1.84302 12.2071 1.84302H9.23802V0.876343C9.23802 0.393188 8.8452 0 8.36217 0H5.64318C5.16026 0 4.76732 0.393188 4.76732 0.876343V1.84302H1.79833C1.37316 1.84302 0.997057 2.11401 0.862535 2.51733L0.509264 3.57629C0.42882 3.81738 0.469591 4.08435 0.618151 4.29053C0.76671 4.4967 1.00707 4.61987 1.26122 4.61987H1.63048L2.44322 14.67C2.50365 15.4158 3.13646 16 3.88414 16H10.2861C11.0337 16 11.6666 15.4158 11.7269 14.6699L12.5397 4.61987H12.7441C12.9983 4.61987 13.2386 4.4967 13.3872 4.29065C13.5358 4.08447 13.5765 3.81738 13.4961 3.57629ZM5.70482 0.9375H8.30052V1.84302H5.70482V0.9375ZM10.7925 14.5944C10.7712 14.8569 10.5488 15.0625 10.2861 15.0625H3.88414C3.62145 15.0625 3.39903 14.8569 3.37779 14.5944L2.57103 4.61987H11.5991L10.7925 14.5944ZM1.46227 3.68237L1.75194 2.81396C1.75853 2.79395 1.77721 2.78052 1.79833 2.78052H12.2071C12.2283 2.78052 12.2468 2.79395 12.2535 2.81396L12.5432 3.68237H1.46227Z" fill="#EB5757"/>
<path d="M9.29737 14.5611C9.30567 14.5616 9.31385 14.5617 9.32215 14.5617C9.56983 14.5617 9.77686 14.3676 9.7898 14.1174L10.23 5.66742C10.2434 5.40888 10.0447 5.1883 9.78626 5.17487C9.52711 5.16108 9.30726 5.36005 9.29371 5.6186L8.85364 14.0685C8.84021 14.3271 9.03882 14.5477 9.29737 14.5611Z" fill="#EB5757"/>
<path d="M4.23645 14.1185C4.25012 14.3684 4.45691 14.5617 4.7041 14.5617C4.71264 14.5617 4.72143 14.5615 4.7301 14.561C4.98852 14.547 5.18664 14.326 5.1726 14.0675L4.71154 5.61754C4.69751 5.35899 4.47656 5.16087 4.21802 5.17503C3.95959 5.18907 3.76148 5.41002 3.77551 5.66856L4.23645 14.1185Z" fill="#EB5757"/>
<path d="M7.00793 14.5618C7.26685 14.5618 7.47668 14.3519 7.47668 14.093V5.64307C7.47668 5.38416 7.26685 5.17432 7.00793 5.17432C6.74902 5.17432 6.53918 5.38416 6.53918 5.64307V14.093C6.53918 14.3519 6.74902 14.5618 7.00793 14.5618Z" fill="#EB5757"/>
</svg>
