<svg width="16" height="16" viewBox="0 0 16 16" fill="none" xmlns="http://www.w3.org/2000/svg">
<path d="M11.0143 6.875C11.0143 6.52981 10.7345 6.25 10.3893 6.25H3.95181C3.60662 6.25 3.32681 6.52981 3.32681 6.875C3.32681 7.22019 3.60662 7.5 3.95181 7.5H10.3893C10.7345 7.5 11.0143 7.22019 11.0143 6.875Z" fill="#333333"/>
<path d="M3.95181 8.75C3.60663 8.75 3.32681 9.02981 3.32681 9.375C3.32681 9.72019 3.60663 10 3.95181 10H7.86154C8.20673 10 8.48655 9.72019 8.48655 9.375C8.48655 9.02981 8.20673 8.75 7.86154 8.75H3.95181Z" fill="#333333"/>
<path d="M5.42057 14.75H3.33029C2.64104 14.75 2.08029 14.1892 2.08029 13.5V2.5C2.08029 1.81075 2.64104 1.25 3.33029 1.25H11.0143C11.7036 1.25 12.2643 1.81075 12.2643 2.5V6.34375C12.2643 6.68894 12.5441 6.96875 12.8893 6.96875C13.2345 6.96875 13.5143 6.68894 13.5143 6.34375V2.5C13.5143 1.1215 12.3928 0 11.0143 0H3.33029C1.95179 0 0.830292 1.1215 0.830292 2.5V13.5C0.830292 14.8785 1.95179 16 3.33029 16H5.42057C5.76576 16 6.04557 15.7202 6.04557 15.375C6.04557 15.0298 5.76576 14.75 5.42057 14.75Z" fill="#333333"/>
<path d="M14.6213 9.0491C13.8903 8.31804 12.7008 8.31801 11.9702 9.0486L8.53884 12.4723C8.46597 12.5451 8.41222 12.6346 8.38228 12.7331L7.635 15.1933C7.56875 15.4114 7.62647 15.6482 7.78566 15.8114C7.90491 15.9336 8.06691 16 8.23306 16C8.28866 16 8.34478 15.9925 8.39988 15.9772L10.9225 15.2785C11.0263 15.2497 11.121 15.1946 11.1972 15.1185L14.6214 11.7008C15.3524 10.9697 15.3524 9.78023 14.6213 9.0491ZM10.4305 14.1177L9.16134 14.4693L9.53275 13.2465L11.848 10.9363L12.7321 11.8204L10.4305 14.1177ZM13.7379 10.8165L13.6168 10.9374L12.7329 10.0535L12.8536 9.93304C13.0973 9.68935 13.4938 9.68935 13.7375 9.93304C13.9812 10.1767 13.9812 10.5732 13.7379 10.8165Z" fill="#333333"/>
<path d="M10.3893 3.75H3.95181C3.60662 3.75 3.32681 4.02981 3.32681 4.375C3.32681 4.72019 3.60662 5 3.95181 5H10.3893C10.7345 5 11.0143 4.72019 11.0143 4.375C11.0143 4.02981 10.7345 3.75 10.3893 3.75Z" fill="#333333"/>
</svg>
