<svg xmlns="http://www.w3.org/2000/svg" viewBox="0 0 1366 768"><defs><style>.cls-1{fill:#c5ffdc;}.cls-2{fill:#8beab1;}.cls-3,.cls-6{fill:none;}.cls-3{stroke:#83dda7;stroke-linecap:round;stroke-linejoin:round;stroke-width:0.75px;}.cls-4{fill:#b0f7ce;}.cls-5{fill:#9df4c0;}.cls-6{stroke:#8beab1;stroke-miterlimit:10;stroke-width:2px;}.cls-7{fill:#85e0aa;}.cls-8{fill:#d9a56b;}.cls-9{fill:#fff;}.cls-10{fill:#f1f2f2;}.cls-11{fill:#d1d3d4;}.cls-12{fill:#e6e7e8;}.cls-13{fill:#ff6563;}.cls-14{fill:#dbdbdb;}.cls-15{fill:#d3d3d3;}.cls-16{fill:#6e6e6e;}.cls-17{fill:#9a9a9a;}.cls-18{fill:#b9b9b9;}.cls-19{fill:#ffda77;}.cls-20{fill:#ffc477;fill-rule:evenodd;}.cls-21{fill:#0091d3;}.cls-22{fill:#304372;}.cls-23{fill:#fb6eb0;}.cls-24{fill:#ff4560;}.cls-25{fill:#ffd500;}.cls-26{opacity:0.15;}.cls-27{fill:#58cdff;}.cls-28{fill:#1982ff;}.cls-29{fill:#365fb2;}.cls-30{fill:#39f;}.cls-31{fill:#dbb100;}</style></defs><title>apd</title><g id="Layer_2" data-name="Layer 2"><path class="cls-1" d="M1042.8,604.807c-79.582,65.375-535.076,182.085-696.143-54.837-31.329-46.083-35.862-101.821-10.368-150.344,20.941-39.859,64.551-80.439,153.422-98.76a121.555,121.555,0,0,0,24.263-7.683c17.273-7.572,44.74-24,66.627-43,36.882-32.023,86.079-41.057,100.5-41.657,50.707-2.111,56.021-7.01,144.759,13.886,69.229,16.3,124.51,40.2,158.861,91.413,8.533,12.724,14.385,29.635,37.271,48.123C1077.217,406.557,1162.251,506.68,1042.8,604.807Z"/><path class="cls-2" d="M451.54,630.148c-7.791-8.309-49.075-18.448-51.164-33.667-2.13-15.517,19.227-3.207,15.869-13.575s-40.123-22.581-39.662-36.058,24.128.009,22.557-13.78-29.516-33.657-32.512-49.74c-6.173-33.133,25.821-28.914,34.559-15.019s5.015,46.908,14.044,57.545,15.47-15.573,25.672-6.6-6.211,43.656-.924,53.209,11-14.2,20.907-1.966c9.582,11.824-9.213,46.67-9,58.453.6,1.775.672,2.417.1,1.686-.03-.038-.074-.077-.106-.116A1.216,1.216,0,0,1,451.54,630.148Z"/><path class="cls-3" d="M381.444,475.629s30.422,58.272,38.534,76.736c6.353,14.462,24.419,62.886,24.419,62.886"/><rect class="cls-4" x="432.984" y="449.085" width="140.072" height="173.117" transform="translate(1006.039 1071.288) rotate(180)"/><rect class="cls-5" x="571.696" y="449.085" width="66.636" height="173.117" transform="translate(1210.028 1071.288) rotate(180)"/><line class="cls-6" x1="571.696" y1="505.449" x2="432.984" y2="505.449"/><line class="cls-6" x1="571.696" y1="567.181" x2="432.984" y2="567.181"/><path class="cls-2" d="M473.781,498.739H530.9a0,0,0,0,1,0,0v3.646a3.064,3.064,0,0,1-3.064,3.064H476.846a3.064,3.064,0,0,1-3.064-3.064v-3.646a0,0,0,0,1,0,0Z" transform="translate(1004.68 1004.188) rotate(180)"/><path class="cls-2" d="M473.781,560.471H530.9a0,0,0,0,1,0,0v3.646a3.064,3.064,0,0,1-3.064,3.064H476.846a3.064,3.064,0,0,1-3.064-3.064v-3.646a0,0,0,0,1,0,0Z" transform="translate(1004.68 1127.651) rotate(180)"/><path class="cls-5" d="M993.831,632.815s-322.55,136.495-571.1-6.868C397.256,611.256,993.831,632.815,993.831,632.815Z"/><path class="cls-2" d="M515.569,397.948l-.511-82.145S489.524,373.758,515.569,397.948Z"/><path class="cls-7" d="M515.528,398.086l-.33-81.868S541.573,373.9,515.528,398.086Z"/><path class="cls-2" d="M510.966,398.331l-37.013-73.579S476.8,387.885,510.966,398.331Z"/><path class="cls-7" d="M510.99,398.473l-36.727-73.409S523.625,365.454,510.99,398.473Z"/><path class="cls-2" d="M521.105,399.34l28.7-68.408S508.047,370.256,521.105,399.34Z"/><path class="cls-7" d="M521.021,399.441l28.751-68.116S551.231,388.339,521.021,399.441Z"/><polygon class="cls-4" points="547.878 452.432 485.375 452.432 473.599 392.541 557.842 392.541 547.878 452.432"/><polygon class="cls-2" points="552.946 422.04 479.447 422.04 476.978 409.525 554.951 409.525 552.946 422.04"/><path class="cls-2" d="M1011.094,517.254l18.671-77.841S992.09,488.451,1011.094,517.254Z"/><path class="cls-7" d="M1011.022,517.375l18.779-77.538S1041.307,500.4,1011.022,517.375Z"/><path class="cls-2" d="M1011.526,518.366l54.041-48.519S1012.249,487.4,1011.526,518.366Z"/><path class="cls-7" d="M1011.41,518.421l53.965-48.24S1042.692,521.008,1011.41,518.421Z"/><path class="cls-2" d="M996.118,516.207c.74-7.067,17.6-27.487,12.84-35.909-4.852-8.587-10.877,5.526-13.148-.929s11.527-26.241,6.153-32.841-12.111,8.962-16.585,1.451,1.975-27.868-2.659-37.06c-9.546-18.939-24-4.941-23.084,5.284s15.384,25.429,14.91,34.125-13.71-2.081-15.409,6.214,19.78,19.628,20.771,26.39-10.939-3.049-11.248,6.774c-.3,9.5,22.437,20.028,26.829,26.025.375,1.116.585,1.464.594.884,0-.03.007-.066.008-.1A.741.741,0,0,0,996.118,516.207Z"/><path class="cls-3" d="M972.342,412.551s6.964,40.571,9.938,52.859c2.329,9.625,11.739,40.661,11.739,40.661"/><polygon class="cls-4" points="964.053 578.267 1035.739 578.267 1049.245 509.576 952.625 509.576 964.053 578.267"/><polygon class="cls-2" points="958.24 543.409 1042.539 543.409 1045.371 529.056 955.941 529.056 958.24 543.409"/><polygon class="cls-2" points="1053.325 596.043 894.936 596.362 894.936 576.447 1071.508 576.447 1053.325 596.043"/><rect class="cls-2" x="911.447" y="596.041" width="26.043" height="35.293"/><rect class="cls-8" x="686.596" y="260.505" width="288" height="407.317" rx="18"/><rect class="cls-9" x="704.596" y="278.505" width="252" height="371.317"/><polygon class="cls-9" points="956.596 278.505 704.596 278.505 704.596 607.764 746.654 649.822 956.596 649.822 956.596 278.505"/><path class="cls-10" d="M907.186,298.48V258.008a14.585,14.585,0,0,0-14.542-14.543H865.256a8.751,8.751,0,0,1-8.726-8.725v-.291a25.962,25.962,0,0,0-25.886-25.886h-.1a25.962,25.962,0,0,0-25.885,25.886v.291a8.752,8.752,0,0,1-8.726,8.725H768.548a14.586,14.586,0,0,0-14.543,14.543V298.48ZM830.6,224.317a10.18,10.18,0,1,1-10.18,10.18A10.179,10.179,0,0,1,830.6,224.317Z"/><path class="cls-11" d="M830.6,218.5a16,16,0,1,0,16,16A16,16,0,0,0,830.6,218.5Zm0,26.177a10.18,10.18,0,1,1,10.179-10.18A10.18,10.18,0,0,1,830.6,244.677Z"/><rect class="cls-12" x="754.005" y="258.008" width="153.18" height="40.472"/><rect class="cls-11" x="754.005" y="287.214" width="153.18" height="11.266"/><path class="cls-13" d="M830.6,321.621a45.6,45.6,0,1,0,45.6,45.6A45.65,45.65,0,0,0,830.6,321.621Z"/><polygon class="cls-9" points="837.603 337.8 823.592 337.8 823.592 360.217 801.174 360.217 801.174 374.225 823.592 374.225 823.592 396.643 837.603 396.643 837.603 374.225 860.013 374.225 860.013 360.217 837.603 360.217 837.603 337.8"/><rect class="cls-12" x="740.596" y="435.963" width="180" height="14.381"/><rect class="cls-12" x="740.596" y="461.407" width="180" height="14.381"/><rect class="cls-12" x="740.596" y="486.851" width="180" height="14.381"/><rect class="cls-12" x="740.596" y="512.295" width="180" height="14.381"/><rect class="cls-12" x="740.596" y="537.738" width="180" height="14.381"/><rect class="cls-12" x="740.596" y="563.182" width="117" height="14.381"/><path class="cls-9" d="M551.476,672.336c-60.195,0-88.8-52.873-88.8-90.152s62.943-84.716,88.8-84.716,88.8,47.439,88.8,84.716S611.673,672.336,551.476,672.336Z"/><path class="cls-14" d="M551.476,672.336c60.2,0,88.8-52.873,88.8-90.152,0,0-28.6-9.86-88.8-9.86s-88.8,9.86-88.8,9.86C462.678,619.463,491.281,672.336,551.476,672.336Z"/><path class="cls-15" d="M551.476,672.336c60.2,0,88.8-52.873,88.8-90.152,0,0-28.6,34.633-88.8,34.633s-88.8-34.633-88.8-34.633C462.678,619.463,491.281,672.336,551.476,672.336Z"/><path class="cls-16" d="M511.609,539.232a2.4,2.4,0,0,1-1.483-4.294c19.8-15.585,32.524-22.532,41.252-22.532,9.508,0,22.988,8.732,40.3,21.842a2.4,2.4,0,0,1-2.9,3.833c-14.314-10.837-28.743-20.865-37.4-20.865-10.955,0-31.52,16.182-38.284,21.5A2.379,2.379,0,0,1,511.609,539.232Z"/><path class="cls-17" d="M551.378,517.216c-10.955,0-31.52,16.182-38.284,21.5a2.4,2.4,0,1,1-2.968-3.777c19.8-15.585,32.524-22.532,41.252-22.532"/><path class="cls-18" d="M551.608,664.455h-.132a86.928,86.928,0,0,1-14.654-1.221l.573-3.316a83.887,83.887,0,0,0,14.081,1.169Zm9.793-.55-.376-3.345a76.665,76.665,0,0,0,13.816-2.845l.986,3.216A79.645,79.645,0,0,1,561.4,663.905Zm-34.143-2.934a74.6,74.6,0,0,1-13.619-5.664l1.6-2.965a71.318,71.318,0,0,0,13,5.407Zm57.768-3.534-1.4-3.062a71.111,71.111,0,0,0,12.167-7.1L597.763,650A74.35,74.35,0,0,1,585.026,657.437Zm-79.733-7.353a78.086,78.086,0,0,1-11.066-9.736l2.45-2.31a74.632,74.632,0,0,0,10.589,9.317Zm100.053-6.356-2.312-2.451A78.676,78.676,0,0,0,612.4,630.7l2.7,2A81.629,81.629,0,0,1,605.346,643.728ZM487.925,632.8a88.667,88.667,0,0,1-7.721-12.529l3-1.522a85.733,85.733,0,0,0,7.427,12.05Zm132.554-8.33-2.921-1.682a86.958,86.958,0,0,0,6.044-12.809l3.153,1.183A91.165,91.165,0,0,1,620.479,624.472ZM476.244,611.293a88.767,88.767,0,0,1-4.049-14.155l3.3-.648a85.459,85.459,0,0,0,3.9,13.616ZM629.706,601.8l-3.265-.832a78.266,78.266,0,0,0,2.278-13.948l3.359.23A81.627,81.627,0,0,1,629.706,601.8Zm-158.82-14.417q-.177-2.49-.176-4.9a36.82,36.82,0,0,1,1.462-9.977l3.241.915a33.444,33.444,0,0,0-1.34,9.06c0,1.524.058,3.084.169,4.664Zm157.618-9.6a45.57,45.57,0,0,0-4.422-13.147l3.011-1.505a48.91,48.91,0,0,1,4.736,14.138Zm-149.7-13.026-3.015-1.5a82,82,0,0,1,7.815-12.506l2.7,2.019A78.142,78.142,0,0,0,478.808,564.763Zm140.506-8.238a103.8,103.8,0,0,0-8.782-11.187l2.508-2.245a106.511,106.511,0,0,1,9.066,11.553ZM492.332,545.439l-2.509-2.246a139.827,139.827,0,0,1,10.34-10.356l2.264,2.5A135.269,135.269,0,0,0,492.332,545.439ZM603.914,538.5c-3.371-3.251-7-6.417-10.771-9.407l2.088-2.64c3.863,3.058,7.568,6.3,11.02,9.622Zm-94.216-9.32-2.085-2.64c3.861-3.067,7.862-5.935,11.884-8.526l1.822,2.833C517.393,523.372,513.485,526.174,509.7,529.175Zm75.788-5.764a127.249,127.249,0,0,0-12.161-7.473l1.585-2.97A131.035,131.035,0,0,1,587.4,520.64ZM529.512,516l-1.6-2.965a80.205,80.205,0,0,1,13.538-5.89l1.015,3.214A76.527,76.527,0,0,0,529.512,516Zm35.253-4.1c-5.181-2.088-9.775-3.19-13.289-3.19l-.071-3.367h.071c3.993,0,8.888,1.156,14.549,3.433Z"/><path class="cls-19" d="M625.206,655.385a66.325,66.325,0,0,1-20.33-3.268l2.207-6.866c17.878,5.749,35.953,2.906,50.9-7.992,14.891-10.854,24.511-28.6,24.511-45.214,0-15.357-7.229-30.148-19.838-40.582-14.2-11.757-32.834-16.182-52.45-12.445l-1.343-7.089c21.768-4.13,42.51.828,58.4,13.976,14.263,11.809,22.448,28.627,22.448,46.14,0,19.128-10.527,38.688-27.475,51.044A62.323,62.323,0,0,1,625.206,655.385Z"/><polygon class="cls-20" points="616.238 539.316 610.019 543.953 602.813 534.342 609.037 529.711 616.238 539.316"/><polygon class="cls-20" points="614.988 645.523 609.488 640.055 600.995 648.542 606.5 654.013 614.988 645.523"/><path class="cls-19" d="M476.882,655.385a62.307,62.307,0,0,1-37.024-12.3c-16.947-12.356-27.475-31.916-27.475-51.044,0-17.513,8.184-34.331,22.45-46.14,15.89-13.151,36.639-18.116,58.4-13.976l-1.345,7.089c-19.62-3.739-38.249.686-52.451,12.445C426.828,561.9,419.6,576.688,419.6,592.045c0,16.611,9.622,34.36,24.51,45.214,14.948,10.9,33.023,13.741,50.9,7.992l2.208,6.866A66.351,66.351,0,0,1,476.882,655.385Z"/><polygon class="cls-20" points="487.86 539.316 494.08 543.953 501.286 534.342 495.061 529.711 487.86 539.316"/><polygon class="cls-20" points="491.126 645.523 496.631 640.055 505.123 648.542 499.617 654.013 491.126 645.523"/><rect class="cls-21" x="671.436" y="481.864" width="102.494" height="11.843"/><rect class="cls-22" x="661.49" y="492.813" width="122.385" height="178.144" rx="9.394"/><path class="cls-22" d="M677.038,460.2h91.289a9.066,9.066,0,0,1,9.066,9.066v15.218a0,0,0,0,1,0,0H667.972a0,0,0,0,1,0,0V469.264A9.066,9.066,0,0,1,677.038,460.2Z"/><rect class="cls-21" x="660.716" y="524.075" width="123.062" height="103.9"/><circle class="cls-9" cx="722.247" cy="576.763" r="28.287"/><path class="cls-23" d="M735.931,572.388h-9.308V563.08a1.8,1.8,0,0,0-1.8-1.8h-5.145a1.8,1.8,0,0,0-1.8,1.8v9.308h-9.308a1.8,1.8,0,0,0-1.8,1.8v5.145a1.8,1.8,0,0,0,1.8,1.8h9.308v9.308a1.8,1.8,0,0,0,1.8,1.8h5.145a1.8,1.8,0,0,0,1.8-1.8v-9.308h9.308a1.8,1.8,0,0,0,1.8-1.8v-5.145A1.8,1.8,0,0,0,735.931,572.388Z"/><path class="cls-24" d="M918.153,671.049H874.96a15.154,15.154,0,0,1-15.11-15.11h0a15.155,15.155,0,0,1,15.11-15.111h43.193a15.155,15.155,0,0,1,15.111,15.111h0A15.155,15.155,0,0,1,918.153,671.049Z"/><path class="cls-25" d="M918.153,640.828h-21.6v30.221h21.6a15.111,15.111,0,1,0,0-30.221Z"/><g class="cls-26"><path d="M918.153,665.177H874.96A15.16,15.16,0,0,1,860.148,653a14.972,14.972,0,0,0-.3,2.937,15.154,15.154,0,0,0,15.11,15.11h43.193a15.155,15.155,0,0,0,15.111-15.11,14.978,14.978,0,0,0-.306-2.859A15.168,15.168,0,0,1,918.153,665.177Z"/></g><path class="cls-27" d="M873.348,636.142l-30.542,30.543a15.155,15.155,0,0,1-21.369,0h0a15.155,15.155,0,0,1,0-21.37l30.542-30.542a15.155,15.155,0,0,1,21.369,0h0A15.154,15.154,0,0,1,873.348,636.142Z"/><path class="cls-28" d="M851.979,614.773l-15.271,15.271,21.369,21.37,15.271-15.272a15.11,15.11,0,1,0-21.369-21.369Z"/><g class="cls-26"><path d="M869.2,631.991l-30.542,30.542a15.161,15.161,0,0,1-19.083,1.864,15.063,15.063,0,0,0,23.235,2.287l15.271-15.271,15.271-15.271a15.154,15.154,0,0,0,0-21.369,14.908,14.908,0,0,0-2.238-1.805A15.168,15.168,0,0,1,869.2,631.991Z"/></g><rect class="cls-29" x="601.012" y="581.288" width="71.309" height="89.67" rx="1.579"/><rect class="cls-9" x="611.021" y="609.563" width="51.291" height="33.118"/><rect class="cls-30" x="611.76" y="573.397" width="49.811" height="7.891"/><path class="cls-25" d="M668.375,546.868H604.957a3.956,3.956,0,0,0-3.945,3.945v21.65H672.32v-21.65A3.956,3.956,0,0,0,668.375,546.868Z"/><rect class="cls-29" x="601.012" y="564.622" width="71.309" height="8.774"/><path class="cls-31" d="M659.471,553.682a3.812,3.812,0,0,1-3.8-3.8v-3.013h7.6v3.013A3.811,3.811,0,0,1,659.471,553.682Z"/><path class="cls-31" d="M644.268,553.682a3.812,3.812,0,0,1-3.8-3.8v-3.013h7.6v3.013A3.811,3.811,0,0,1,644.268,553.682Z"/><path class="cls-31" d="M629.064,553.682a3.811,3.811,0,0,1-3.8-3.8v-3.013h7.6v3.013A3.812,3.812,0,0,1,629.064,553.682Z"/><path class="cls-31" d="M613.862,553.682a3.812,3.812,0,0,1-3.8-3.8v-3.013h7.6v3.013A3.811,3.811,0,0,1,613.862,553.682Z"/></g></svg>