<svg width="350" height="217" viewBox="0 0 350 217" fill="none" xmlns="http://www.w3.org/2000/svg">
<g clip-path="url(#clip0)">
<path d="M322.982 177.943C287.431 207.147 83.9503 259.285 11.9974 153.445C-1.99803 132.859 -4.02125 107.96 7.36579 86.2833C16.7207 68.4772 36.2024 50.3487 75.9029 42.1646C79.6262 41.4024 83.2592 40.2516 86.7423 38.7311C94.4586 35.3485 106.729 28.0097 116.506 19.5219C132.982 5.21817 154.96 1.18245 161.401 0.914413C184.054 -0.0286255 186.427 -2.21714 226.069 7.1172C256.995 14.3988 281.691 25.0756 297.036 47.9542C300.848 53.6379 303.462 61.1929 313.686 69.452C338.358 89.3796 376.345 134.107 322.982 177.943Z" fill="#C5FFDC"/>
<path d="M58.8494 189.264C55.369 185.552 36.9264 181.022 35.9932 174.223C35.0416 167.291 44.5824 172.791 43.0823 168.159C41.5822 163.528 25.1583 158.072 25.3642 152.051C25.5702 146.03 36.1428 152.055 35.441 145.896C34.7392 139.736 22.2555 130.86 20.9171 123.675C18.1594 108.874 32.452 110.759 36.3555 116.966C40.259 123.173 38.5958 137.921 42.6293 142.672C46.6628 147.424 49.5401 135.716 54.0976 139.724C58.6551 143.732 51.323 159.227 53.6848 163.494C56.0467 167.762 58.5988 157.153 63.0245 162.616C67.3051 167.898 58.9089 183.465 59.004 188.728C59.2721 189.521 59.3042 189.808 59.0487 189.482C59.0353 189.464 59.0156 189.447 59.0013 189.43C58.9398 189.386 58.8881 189.329 58.8494 189.264Z" fill="#8BEAB1"/>
<path d="M27.5391 120.234C27.5391 120.234 41.1298 146.266 44.7537 154.514C47.5917 160.974 55.6618 182.607 55.6618 182.607" stroke="#83DDA7" stroke-width="0.75" stroke-linecap="round" stroke-linejoin="round"/>
<path d="M50.5629 185.715H113.137L113.137 108.379L50.5629 108.379L50.5629 185.715Z" fill="#B0F7CE"/>
<path d="M112.529 185.715H142.297V108.379H112.529L112.529 185.715Z" fill="#9DF4C0"/>
<path d="M112.529 133.559H50.5625" stroke="#8BEAB1" stroke-width="2" stroke-miterlimit="10"/>
<path d="M112.529 161.133H50.5625" stroke="#8BEAB1" stroke-width="2" stroke-miterlimit="10"/>
<path d="M94.3008 133.556H68.7847V131.93C68.7847 131.567 68.9289 131.219 69.1856 130.962C69.4423 130.705 69.7904 130.561 70.1535 130.561H92.9316C93.2946 130.561 93.6427 130.705 93.8994 130.962C94.1561 131.219 94.3003 131.567 94.3003 131.93V133.559L94.3008 133.556Z" fill="#8BEAB1"/>
<path d="M94.3008 161.137H68.7847V159.508C68.7847 159.145 68.9289 158.797 69.1856 158.54C69.4423 158.283 69.7904 158.139 70.1535 158.139H92.9316C93.2946 158.139 93.6427 158.283 93.8994 158.54C94.1561 158.797 94.3003 159.145 94.3003 159.508V161.137H94.3008Z" fill="#8BEAB1"/>
<path d="M301.109 190.456C301.109 190.456 157.017 251.434 45.9833 187.388C34.6029 180.824 301.109 190.456 301.109 190.456Z" fill="#9DF4C0"/>
<path d="M87.4536 85.5318L87.2253 48.8359C87.2253 48.8359 75.8186 74.7259 87.4536 85.5318Z" fill="#8BEAB1"/>
<path d="M87.4365 85.596L87.2891 49.0234C87.2891 49.0234 99.0714 74.7897 87.4365 85.596Z" fill="#85E0AA"/>
<path d="M85.3979 85.706L68.8633 52.8359C68.8633 52.8359 70.1347 81.0373 85.3979 85.706Z" fill="#8BEAB1"/>
<path d="M85.4108 85.7668L69.0039 52.9727C69.0039 52.9727 91.0552 71.0164 85.4108 85.7668Z" fill="#85E0AA"/>
<path d="M89.9269 86.1534L102.745 55.5938C102.745 55.5938 84.0931 73.1604 89.9269 86.1534Z" fill="#8BEAB1"/>
<path d="M89.8906 86.1987L102.734 55.7695C102.734 55.7695 103.386 81.2396 89.8906 86.1987Z" fill="#85E0AA"/>
<path d="M101.889 109.872H73.9677L68.707 83.1172H106.341L101.889 109.872Z" fill="#B0F7CE"/>
<path d="M104.152 96.2935H71.3183L70.2148 90.7031H105.048L104.152 96.2935Z" fill="#8BEAB1"/>
<path d="M308.819 138.828L317.16 104.055C317.16 104.055 300.327 125.962 308.819 138.828Z" fill="#8BEAB1"/>
<path d="M308.785 138.887L317.173 104.246C317.173 104.246 322.314 131.302 308.785 138.887Z" fill="#85E0AA"/>
<path d="M309.012 139.327L333.153 117.652C333.153 117.652 309.335 125.492 309.012 139.327Z" fill="#8BEAB1"/>
<path d="M308.961 139.351L333.069 117.801C333.069 117.801 322.935 140.507 308.961 139.351Z" fill="#85E0AA"/>
<path d="M302.13 138.361C302.46 135.204 309.992 126.082 307.866 122.319C305.698 118.483 303.007 124.788 301.992 121.904C300.978 119.02 307.142 110.182 304.741 107.234C302.34 104.286 299.331 111.237 297.332 107.882C295.333 104.527 298.214 95.4327 296.144 91.326C291.88 82.8659 285.423 89.1192 285.832 93.6869C286.241 98.2547 292.704 105.047 292.493 108.931C292.281 112.816 286.368 108.002 285.609 111.707C284.851 115.413 294.445 120.476 294.888 123.497C295.331 126.517 290.001 122.134 289.863 126.523C289.729 130.767 299.886 135.47 301.849 138.149C302.016 138.647 302.11 138.803 302.114 138.544C302.114 138.53 302.117 138.514 302.117 138.499C302.131 138.454 302.135 138.408 302.13 138.361Z" fill="#8BEAB1"/>
<path d="M291.508 92.0586C291.508 92.0586 294.619 110.182 295.947 115.672C296.988 119.971 301.191 133.836 301.191 133.836" stroke="#83DDA7" stroke-width="0.75" stroke-linecap="round" stroke-linejoin="round"/>
<path d="M287.804 166.084H319.828L325.862 135.398H282.699L287.804 166.084Z" fill="#B0F7CE"/>
<path d="M285.207 150.517H322.865L324.13 144.105H284.18L285.207 150.517Z" fill="#8BEAB1"/>
<path d="M327.682 174.027L256.926 174.17V165.273H335.805L327.682 174.027Z" fill="#8BEAB1"/>
<path d="M275.939 174.027H264.305V189.794H275.939V174.027Z" fill="#8BEAB1"/>
<path fill-rule="evenodd" clip-rule="evenodd" d="M260.679 175.25H109.294C106.289 175.25 102.019 175.409 100.006 177.23L70.6401 200.225C70.6213 204.627 70.1643 209.405 77.6733 209.432H292.3C299.794 209.432 299.352 204.608 299.333 200.225L269.967 177.23C267.944 175.4 263.634 175.25 260.679 175.25Z" fill="#CACACA"/>
<path fill-rule="evenodd" clip-rule="evenodd" d="M265.483 170.879H104.354C100.205 170.879 95.3363 172.005 93.8978 173.621C85.264 183.323 79.4994 189.798 70.8838 199.478C69.3011 201.256 72.358 202.337 78.1208 202.337H291.716C297.478 202.337 300.536 201.255 298.953 199.478L275.941 173.621C274.478 171.978 269.633 170.879 265.483 170.879Z" fill="white"/>
<path d="M104.352 51.3164H265.263C267.339 51.3164 269.33 52.1412 270.799 53.6093C272.267 55.0774 273.091 57.0686 273.091 59.1448V163.053C273.091 165.13 272.267 167.121 270.799 168.589C269.33 170.057 267.339 170.882 265.263 170.882H104.352C102.276 170.882 100.285 170.057 98.8165 168.589C97.3483 167.121 96.5234 165.13 96.5234 163.053V59.1475C96.5231 58.1192 96.7254 57.1009 97.1187 56.1508C97.512 55.2007 98.0887 54.3374 98.8157 53.6102C99.5427 52.883 100.406 52.3061 101.356 51.9126C102.306 51.519 103.324 51.3164 104.352 51.3164Z" fill="#1A1A1A"/>
<path d="M264.94 60.1406H104.676V162.054H264.94V60.1406Z" fill="#01BEF2"/>
<path fill-rule="evenodd" clip-rule="evenodd" d="M124.344 180.172C125.2 180.172 125.493 180.886 125.042 181.78C124.567 182.688 123.488 183.436 122.608 183.436H98.4105C97.5474 183.436 97.4455 182.688 98.1353 181.778C98.8125 180.885 100.006 180.17 100.845 180.17L124.344 180.172ZM197.875 178.44C197.463 178.427 197.069 178.267 196.765 177.988C196.46 177.71 196.267 177.331 196.219 176.921C196.193 176.735 196.208 176.546 196.262 176.367C196.316 176.188 196.408 176.022 196.532 175.882C196.657 175.741 196.809 175.63 196.981 175.554C197.152 175.478 197.338 175.44 197.525 175.443H209.529C209.947 175.465 210.347 175.621 210.671 175.887C210.995 176.152 211.226 176.515 211.329 176.921C211.39 177.096 211.407 177.284 211.379 177.467C211.352 177.65 211.28 177.824 211.17 177.974C211.06 178.123 210.915 178.244 210.749 178.325C210.582 178.406 210.398 178.446 210.212 178.44H197.875ZM178.747 178.44C178.553 178.441 178.361 178.401 178.183 178.323C178.005 178.245 177.846 178.131 177.714 177.988C177.583 177.846 177.483 177.677 177.421 177.493C177.358 177.309 177.335 177.114 177.352 176.921C177.382 176.524 177.558 176.153 177.847 175.88C178.135 175.607 178.515 175.451 178.913 175.443H190.9C191.298 175.451 191.679 175.606 191.968 175.879C192.257 176.153 192.434 176.524 192.464 176.921C192.481 177.114 192.458 177.309 192.395 177.493C192.333 177.677 192.233 177.846 192.101 177.989C191.97 178.131 191.81 178.245 191.632 178.323C191.454 178.401 191.262 178.441 191.068 178.44H178.747ZM159.569 178.44C159.384 178.446 159.199 178.407 159.032 178.325C158.865 178.244 158.721 178.124 158.611 177.974C158.501 177.825 158.429 177.651 158.401 177.467C158.374 177.284 158.391 177.096 158.452 176.921C158.556 176.516 158.787 176.154 159.11 175.889C159.434 175.624 159.833 175.469 160.251 175.447H172.258C172.445 175.444 172.631 175.482 172.802 175.557C172.974 175.633 173.127 175.745 173.251 175.885C173.375 176.026 173.468 176.191 173.522 176.37C173.576 176.55 173.591 176.739 173.565 176.924C173.517 177.334 173.323 177.712 173.019 177.991C172.714 178.269 172.32 178.429 171.908 178.441L159.569 178.44ZM140.442 178.44C139.616 178.44 139.225 177.754 139.57 176.921C139.749 176.511 140.036 176.157 140.401 175.898C140.765 175.638 141.193 175.482 141.639 175.447H153.629C153.808 175.441 153.985 175.479 154.145 175.559C154.305 175.639 154.443 175.757 154.546 175.904C154.649 176.05 154.714 176.22 154.735 176.397C154.755 176.575 154.732 176.755 154.666 176.921C154.541 177.337 154.292 177.706 153.952 177.977C153.612 178.249 153.197 178.41 152.764 178.44H140.442ZM121.28 178.44C120.454 178.44 120.182 177.754 120.67 176.921C120.916 176.512 121.254 176.166 121.658 175.91C122.061 175.654 122.518 175.495 122.993 175.447H135.001C135.805 175.447 136.167 176.103 135.8 176.921C135.6 177.342 135.294 177.704 134.912 177.97C134.529 178.237 134.084 178.399 133.619 178.44H121.28ZM102.135 178.44C101.31 178.44 101.189 177.754 101.82 176.921C102.442 176.101 103.562 175.447 104.366 175.447H116.355C117.159 175.447 117.391 176.103 116.882 176.921C116.618 177.34 116.263 177.694 115.843 177.957C115.423 178.22 114.949 178.385 114.456 178.44H102.135ZM255.326 178.44C254.834 178.386 254.36 178.221 253.941 177.959C253.521 177.696 253.166 177.342 252.902 176.924C252.392 176.102 252.624 175.444 253.428 175.444H265.447C266.251 175.444 267.389 176.104 268.011 176.924C268.643 177.756 268.505 178.442 267.679 178.442C263.567 178.442 259.449 178.442 255.326 178.442V178.44ZM236.198 178.44C235.734 178.399 235.289 178.238 234.907 177.972C234.524 177.706 234.218 177.344 234.019 176.924C233.651 176.102 234.011 175.444 234.815 175.444H246.787C247.263 175.494 247.721 175.653 248.125 175.91C248.528 176.166 248.867 176.513 249.113 176.924C249.601 177.756 249.328 178.44 248.502 178.44H236.198ZM217.054 178.44C216.614 178.416 216.193 178.257 215.847 177.985C215.5 177.714 215.246 177.342 215.119 176.921C215.052 176.752 215.029 176.569 215.052 176.389C215.075 176.209 215.143 176.037 215.249 175.89C215.355 175.743 215.497 175.625 215.661 175.547C215.825 175.469 216.005 175.433 216.187 175.443H228.174C228.62 175.479 229.049 175.636 229.414 175.896C229.779 176.157 230.066 176.511 230.245 176.922C230.59 177.755 230.2 178.438 229.373 178.438L217.054 178.44ZM130.638 183.436C129.776 183.436 129.432 182.688 129.868 181.78C130.08 181.336 130.402 180.955 130.805 180.673C131.208 180.391 131.677 180.218 132.166 180.172H144.406C145.245 180.172 145.682 180.886 145.373 181.78C145.211 182.231 144.924 182.627 144.545 182.92C144.165 183.214 143.71 183.392 143.232 183.435C139.023 183.435 134.826 183.435 130.64 183.435L130.638 183.436ZM150.045 183.436C149.183 183.436 148.713 182.689 148.999 181.781C149.14 181.343 149.408 180.956 149.769 180.669C150.13 180.383 150.568 180.21 151.028 180.173H163.248C163.444 180.174 163.636 180.22 163.812 180.307C163.987 180.394 164.14 180.519 164.259 180.675C164.379 180.83 164.461 181.01 164.5 181.202C164.538 181.394 164.533 181.592 164.483 181.781C164.406 182.224 164.182 182.628 163.847 182.928C163.512 183.228 163.086 183.407 162.637 183.436H150.045ZM169.433 183.436C169.231 183.434 169.032 183.387 168.85 183.298C168.668 183.209 168.509 183.08 168.384 182.922C168.258 182.763 168.17 182.578 168.126 182.381C168.081 182.183 168.082 181.978 168.127 181.781C168.179 181.353 168.381 180.957 168.696 180.662C169.012 180.368 169.422 180.195 169.853 180.173H182.108C182.313 180.178 182.514 180.224 182.701 180.308C182.888 180.392 183.057 180.512 183.197 180.662C183.337 180.812 183.446 180.988 183.517 181.18C183.588 181.372 183.62 181.576 183.612 181.781C183.615 182.21 183.452 182.622 183.155 182.932C182.859 183.241 182.453 183.422 182.025 183.436H169.433ZM188.84 183.436C188.411 183.421 188.005 183.241 187.706 182.932C187.408 182.623 187.241 182.211 187.24 181.781C187.229 181.577 187.26 181.373 187.329 181.18C187.399 180.988 187.507 180.812 187.646 180.662C187.785 180.512 187.952 180.391 188.139 180.307C188.325 180.223 188.527 180.178 188.731 180.173H200.952C201.388 180.199 201.803 180.372 202.128 180.664C202.453 180.956 202.67 181.35 202.742 181.781C202.787 181.979 202.788 182.184 202.743 182.382C202.699 182.579 202.61 182.764 202.485 182.923C202.359 183.082 202.199 183.211 202.017 183.3C201.835 183.389 201.635 183.435 201.432 183.436H188.84ZM208.247 183.436C207.796 183.407 207.366 183.229 207.027 182.929C206.687 182.63 206.457 182.226 206.371 181.781C206.314 181.594 206.303 181.396 206.337 181.203C206.371 181.01 206.45 180.828 206.567 180.672C206.684 180.515 206.837 180.388 207.013 180.302C207.188 180.215 207.382 180.171 207.577 180.173H219.834C220.295 180.211 220.734 180.384 221.097 180.67C221.46 180.956 221.731 181.342 221.876 181.781C222.169 182.689 221.706 183.436 220.843 183.436H208.247ZM227.655 183.436C227.176 183.393 226.719 183.214 226.337 182.921C225.956 182.628 225.666 182.233 225.5 181.781C225.184 180.888 225.616 180.173 226.454 180.173H238.658C239.149 180.226 239.619 180.402 240.025 180.682C240.432 180.963 240.762 181.341 240.985 181.781C241.432 182.689 241.092 183.436 240.229 183.436H227.655ZM247.185 183.436C246.322 183.436 245.244 182.689 244.77 181.781C244.286 180.888 244.58 180.173 245.418 180.173H268.97C269.808 180.173 271.018 180.888 271.695 181.781C272.383 182.689 272.263 183.436 271.4 183.436H247.185ZM94.3354 188.901C93.4317 188.901 93.3526 188.085 94.1049 187.092C94.8474 186.113 96.121 185.331 96.9979 185.331C102.188 185.331 107.385 185.331 112.589 185.331C113.466 185.331 113.694 186.113 113.107 187.092C112.51 188.087 111.302 188.902 110.398 188.902L94.3354 188.901ZM117.441 188.901C116.538 188.901 116.264 188.085 116.83 187.091C117.386 186.111 118.548 185.33 119.424 185.33H134.029C134.906 185.33 135.295 186.111 134.886 187.091C134.471 188.085 133.392 188.901 132.489 188.901H117.441ZM272.812 185.327C273.69 185.327 275.016 186.109 275.761 187.087C276.516 188.083 276.381 188.899 275.477 188.899H259.414C258.511 188.899 257.301 188.083 256.704 187.087C256.117 186.109 256.346 185.327 257.223 185.327H272.812ZM250.387 185.327C251.264 185.327 252.424 186.109 252.978 187.087C253.544 188.083 253.272 188.899 252.368 188.899H237.322C236.418 188.899 235.338 188.083 234.922 187.087C234.514 186.109 234.903 185.327 235.78 185.327H250.387ZM227.656 185.327C228.533 185.327 229.542 186.109 229.91 187.087C230.284 188.083 229.855 188.899 228.951 188.899H140.953C140.049 188.899 139.617 188.084 139.99 187.09C140.358 186.11 141.368 185.328 142.245 185.328H184.931C199.161 185.329 213.402 185.329 227.655 185.328L227.656 185.327Z" fill="#A4A4A4"/>
<path fill-rule="evenodd" clip-rule="evenodd" d="M160.508 198.474C160.116 198.499 159.727 198.402 159.393 198.196C159.059 197.99 158.798 197.685 158.645 197.324C158.504 196.911 158.448 196.473 158.482 196.038C158.517 195.603 158.639 195.179 158.843 194.793C159.254 193.916 159.883 193.158 160.671 192.594C161.337 192.084 162.144 191.791 162.982 191.754H206.942C207.775 191.791 208.575 192.084 209.234 192.594C210.011 193.159 210.627 193.917 211.021 194.793C211.217 195.182 211.331 195.608 211.356 196.043C211.382 196.479 211.317 196.915 211.167 197.324C211.007 197.685 210.741 197.988 210.404 198.194C210.067 198.399 209.676 198.497 209.282 198.474H160.508Z" fill="#CACACA"/>
<path fill-rule="evenodd" clip-rule="evenodd" d="M223.139 72.3711H146.581C145.802 72.3711 145.031 72.5244 144.312 72.8224C143.593 73.1203 142.939 73.557 142.389 74.1075C141.838 74.658 141.402 75.3116 141.104 76.0309C140.806 76.7501 140.652 77.5211 140.652 78.2996V147.916L156.667 133.687H223.139C223.918 133.687 224.689 133.534 225.408 133.236C226.127 132.938 226.781 132.502 227.331 131.951C227.882 131.401 228.319 130.747 228.617 130.028C228.915 129.309 229.068 128.538 229.068 127.759V78.2996C229.068 76.7273 228.443 75.2193 227.331 74.1075C226.22 72.9957 224.712 72.3711 223.139 72.3711Z" fill="white"/>
<path d="M185.425 124.818C197.059 124.818 206.49 115.387 206.49 103.753C206.49 92.1188 197.059 82.6875 185.425 82.6875C173.791 82.6875 164.359 92.1188 164.359 103.753C164.359 115.387 173.791 124.818 185.425 124.818Z" fill="#76B74C"/>
<path fill-rule="evenodd" clip-rule="evenodd" d="M198.09 96.7072L194.969 93.5859C194.888 93.5054 194.793 93.4416 194.687 93.398C194.582 93.3545 194.47 93.332 194.356 93.332C194.242 93.332 194.129 93.3545 194.024 93.398C193.919 93.4416 193.824 93.5054 193.743 93.5859L181.49 105.839L177.108 101.457C176.946 101.294 176.725 101.203 176.496 101.203C176.266 101.203 176.046 101.294 175.883 101.457L172.762 104.578C172.681 104.659 172.617 104.754 172.574 104.859C172.53 104.964 172.508 105.077 172.508 105.191C172.508 105.305 172.53 105.418 172.574 105.523C172.617 105.628 172.681 105.723 172.762 105.804L177.756 110.798L180.877 113.919C180.957 113.999 181.053 114.063 181.158 114.107C181.263 114.15 181.376 114.173 181.49 114.173C181.603 114.173 181.716 114.15 181.821 114.107C181.926 114.063 182.022 113.999 182.102 113.919L185.224 110.798L198.089 97.9321C198.252 97.7697 198.343 97.5494 198.343 97.3197C198.343 97.0901 198.252 96.8697 198.09 96.7072Z" fill="white"/>
</g>
<defs>
<clipPath id="clip0">
<rect width="350" height="216.844" fill="white"/>
</clipPath>
</defs>
</svg>
