<svg width="64" height="64" viewBox="0 0 64 64" fill="none" xmlns="http://www.w3.org/2000/svg">
<path d="M40.2712 19.1992L31.9992 27.4713L23.7273 19.1992L19.1992 23.7273L27.4713 31.9992L19.1992 40.2712L23.7273 44.7992L31.9992 36.5272L40.2712 44.7992L44.7992 40.2712L36.5272 31.9992L44.7992 23.7273L40.2712 19.1992Z" fill="#EB5757"/>
<path d="M31.9999 0C14.32 0 0 14.32 0 31.9999C0 49.6798 14.32 63.9999 31.9999 63.9999C49.6798 63.9999 64 49.68 64 31.9999C64 14.3199 49.68 0 31.9999 0ZM31.9999 57.6C17.8879 57.6 6.3999 46.1119 6.3999 31.9999C6.3999 17.8879 17.8879 6.40004 31.9999 6.40004C46.1119 6.40004 57.6 17.8879 57.6 31.9999C57.6 46.1119 46.1119 57.6 31.9999 57.6Z" fill="#EB5757"/>
</svg>
