<svg width="16" height="16" viewBox="0 0 16 16" fill="none" xmlns="http://www.w3.org/2000/svg">
<path d="M5.40625 15.375C5.40625 15.7202 5.12646 16 4.78125 16H3.34375C1.96521 16 0.84375 14.8785 0.84375 13.5V2.5C0.84375 1.12146 1.96521 0 3.34375 0H11.0278C12.4062 0 13.5278 1.12146 13.5278 2.5V6.21875C13.5278 6.56396 13.2479 6.84375 12.9028 6.84375C12.5576 6.84375 12.2778 6.56396 12.2778 6.21875V2.5C12.2778 1.81079 11.717 1.25 11.0278 1.25H3.34375C2.65454 1.25 2.09375 1.81079 2.09375 2.5V13.5C2.09375 14.1892 2.65454 14.75 3.34375 14.75H4.78125C5.12646 14.75 5.40625 15.0298 5.40625 15.375ZM11.0277 4.375C11.0277 4.02979 10.7479 3.75 10.4027 3.75H3.96521C3.62012 3.75 3.34021 4.02979 3.34021 4.375C3.34021 4.72021 3.62012 5 3.96521 5H10.4027C10.7479 5 11.0277 4.72021 11.0277 4.375ZM8.53125 6.875C8.53125 6.52979 8.25146 6.25 7.90625 6.25H3.96521C3.62012 6.25 3.34021 6.52979 3.34021 6.875C3.34021 7.22021 3.62012 7.5 3.96521 7.5H7.90625C8.25146 7.5 8.53125 7.22021 8.53125 6.875ZM3.96521 8.75C3.62012 8.75 3.34021 9.02979 3.34021 9.375C3.34021 9.72021 3.62012 10 3.96521 10H6.5625C6.90771 10 7.1875 9.72021 7.1875 9.375C7.1875 9.02979 6.90771 8.75 6.5625 8.75H3.96521ZM14.869 15.535C14.6285 15.8306 14.2737 16 13.8954 16H7.79211C7.41174 16 7.05579 15.8307 6.81555 15.5355C6.57385 15.2385 6.47998 14.8527 6.55798 14.4769C6.75989 13.5043 7.29468 12.6193 8.06372 11.9849C8.35498 11.7446 8.67505 11.5447 9.0144 11.3884C8.63623 10.9589 8.40625 10.396 8.40625 9.78015C8.40625 8.43604 9.49963 7.34265 10.8438 7.34265C12.1879 7.34265 13.2812 8.43604 13.2812 9.78015C13.2812 10.396 13.0513 10.9589 12.6731 11.3884C13.0125 11.5447 13.3325 11.7445 13.6238 11.9849C14.3774 12.6066 14.906 13.469 15.1169 14.4186C15.1218 14.4351 15.126 14.4517 15.1295 14.4686C15.2079 14.8466 15.1129 15.2352 14.869 15.535ZM9.65625 9.78015C9.65625 10.4349 10.189 10.9677 10.8438 10.9677C11.4985 10.9677 12.0312 10.4349 12.0312 9.78015C12.0312 9.12537 11.4985 8.59265 10.8438 8.59265C10.189 8.59265 9.65625 9.12537 9.65625 9.78015ZM13.9059 14.7323C13.9058 14.7319 13.9056 14.7314 13.9056 14.7311C13.6055 13.2856 12.3177 12.2365 10.8438 12.2365C9.36975 12.2365 8.08191 13.2856 7.78186 14.7311C7.77905 14.7451 7.7887 14.7496 7.7887 14.7498C7.78894 14.7498 7.79004 14.75 7.79211 14.75H13.8954C13.8958 14.7496 13.9042 14.7433 13.9059 14.7323Z" fill="#333333"/>
</svg>
