<svg width="48" height="48" viewBox="0 0 48 48" fill="none" xmlns="http://www.w3.org/2000/svg">
<circle cx="24" cy="24" r="24" fill="#D3EAF8"/>
<g clip-path="url(#clip0)">
<path d="M17.7222 15.2904C16.5817 15.2876 15.4457 15.4326 14.3426 15.7217L14.3425 15.7216L14.34 15.7224C14.0912 15.7947 13.9236 16.0269 13.933 16.2855V16.7186H12.4652C12.1531 16.7186 11.9 16.9717 11.9 17.2838V32.1425C11.9 32.4546 12.1531 32.7077 12.4652 32.7077H12.4655C12.5622 32.7074 12.6573 32.6823 12.7416 32.6347C12.742 32.6345 12.7425 32.6343 12.743 32.634C12.9212 32.5395 17.5024 30.1103 23.8616 31.7138L23.8736 31.7168H23.886H23.9558H23.992C24.035 31.7215 24.0783 31.7213 24.1213 31.7161L24.1214 31.7169L24.1339 31.7138C27.3726 30.8925 30.1478 31.1136 32.1162 31.5447C33.1005 31.7603 33.8828 32.0283 34.42 32.2447C34.6887 32.3529 34.8958 32.4481 35.0362 32.5172C35.1064 32.5518 35.1596 32.5797 35.1952 32.5993C35.2103 32.6076 35.2218 32.6142 35.2299 32.6191L35.2319 32.6222L35.2522 32.6338C35.4271 32.7348 35.6425 32.7348 35.8174 32.6338C35.9912 32.5335 36.0988 32.3485 36.1 32.1478V32.1472V17.2885C36.1 16.9763 35.847 16.7233 35.5348 16.7233H35.5348H35.5348H35.5347H35.5347H35.5347H35.5347H35.5347H35.5346H35.5346H35.5346H35.5346H35.5346H35.5346H35.5345H35.5345H35.5345H35.5345H35.5345H35.5344H35.5344H35.5344H35.5344H35.5344H35.5344H35.5343H35.5343H35.5343H35.5343H35.5343H35.5342H35.5342H35.5342H35.5342H35.5342H35.5342H35.5341H35.5341H35.5341H35.5341H35.5341H35.534H35.534H35.534H35.534H35.534H35.5339H35.5339H35.5339H35.5339H35.5339H35.5339H35.5338H35.5338H35.5338H35.5338H35.5338H35.5337H35.5337H35.5337H35.5337H35.5337H35.5337H35.5336H35.5336H35.5336H35.5336H35.5336H35.5335H35.5335H35.5335H35.5335H35.5335H35.5335H35.5334H35.5334H35.5334H35.5334H35.5334H35.5333H35.5333H35.5333H35.5333H35.5333H35.5333H35.5332H35.5332H35.5332H35.5332H35.5332H35.5331H35.5331H35.5331H35.5331H35.5331H35.533H35.533H35.533H35.533H35.533H35.533H35.5329H35.5329H35.5329H35.5329H35.5329H35.5328H35.5328H35.5328H35.5328H35.5328H35.5328H35.5327H35.5327H35.5327H35.5327H35.5327H35.5326H35.5326H35.5326H35.5326H35.5326H35.5326H35.5325H35.5325H35.5325H35.5325H35.5325H35.5324H35.5324H35.5324H35.5324H35.5324H35.5324H35.5323H35.5323H35.5323H35.5323H35.5323H35.5322H35.5322H35.5322H35.5322H35.5322H35.5322H35.5321H35.5321H35.5321H35.5321H35.5321H35.532H35.532H35.532H35.532H35.532H35.532H35.5319H35.5319H35.5319H35.5319H35.5319H35.5318H35.5318H35.5318H35.5318H35.5318H35.5318H35.5317H35.5317H35.5317H35.5317H35.5317H35.5316H35.5316H35.5316H35.5316H35.5316H35.5316H35.5315H35.5315H35.5315H35.5315H35.5315H35.5314H35.5314H35.5314H35.5314H35.5314H35.5314H35.5313H35.5313H35.5313H35.5313H35.5313H35.5312H35.5312H35.5312H35.5312H35.5312H35.5312H35.5311H35.5311H35.5311H35.5311H35.5311H35.5311H35.531H35.531H35.531H35.531H35.531H35.5309H35.5309H35.5309H35.5309H35.5309H35.5309H35.5308H35.5308H35.5308H35.5308H35.5308H35.5307H35.5307H35.5307H35.5307H35.5307H35.5307H35.5306H35.5306H35.5306H35.5306H35.5306H35.5306H35.5305H35.5305H35.5305H35.5305H35.5305H35.5304H35.5304H35.5304H35.5304H35.5304H35.5304H35.5303H35.5303H35.5303H35.5303H35.5303H35.5303H35.5302H35.5302H35.5302H35.5302H35.5302H35.5301H34.0531V16.2855C34.0624 16.0268 33.8948 15.7947 33.6461 15.7224L33.6461 15.7224L33.6435 15.7217C32.5403 15.4326 31.4043 15.2876 30.2639 15.2904M17.7222 15.2904C19.5656 15.2904 22.1116 15.6822 23.9936 17.5742C25.8881 15.7008 28.415 15.2904 30.2639 15.2904M17.7222 15.2904C17.7222 15.2904 17.7222 15.2904 17.7223 15.2904L17.722 15.3904V15.2904C17.7221 15.2904 17.7221 15.2904 17.7222 15.2904ZM30.2639 15.2904C30.2639 15.2904 30.264 15.2904 30.264 15.2904V15.3904L30.2638 15.2904C30.2638 15.2904 30.2638 15.2904 30.2639 15.2904ZM14.5923 29.9851L14.5923 29.9851L14.5923 29.9851ZM14.5923 29.9851C15.55 29.8389 16.5169 29.7615 17.4856 29.7537L17.4865 29.7536M14.5923 29.9851L17.4865 29.7536M17.4865 29.7536C18.4623 29.7367 19.4351 29.8392 20.3834 30.058M17.4865 29.7536L20.3834 30.058M34.9651 31.2546L34.9834 17.8537H34.0717V29.4159V29.4164H33.9717L34.9651 31.2546ZM34.9651 31.2546C32.6237 30.3199 30.1091 29.9126 27.5997 30.0567C28.5521 29.8377 29.529 29.7356 30.5087 29.7536L30.51 29.7537C31.4848 29.7591 32.4579 29.8349 33.4217 29.9805C33.7303 30.0273 34.0185 29.8151 34.0653 29.5065L34.9651 31.2546ZM20.3834 30.058C17.8783 29.9151 15.3681 30.322 13.0304 31.2546V17.8537H13.9423V29.4205V29.4211H14.0423M20.3834 30.058L14.5022 29.8915M14.0423 29.4211C14.0393 29.678 14.2453 29.8886 14.5022 29.8915M14.0423 29.4211V17.8537V29.4211ZM14.5022 29.8915L14.501 29.9915C14.501 29.9915 14.501 29.9915 14.501 29.9915L14.5022 29.8915ZM17.4848 28.6279L17.4846 28.6279C16.6721 28.6297 15.8605 28.6797 15.0541 28.7775V16.7316C15.9277 16.5427 16.8189 16.4463 17.7128 16.4441C19.4328 16.4441 21.7823 16.8382 23.4186 18.6618L23.4322 30.03C22.4085 29.4009 20.5342 28.6279 17.4848 28.6279ZM32.9273 16.7316V28.7773C32.1256 28.6786 31.3188 28.6271 30.511 28.6232H30.5106C27.4759 28.6232 25.598 29.3977 24.5629 30.0267V18.662C26.1995 16.8563 28.5494 16.4441 30.2685 16.4441C31.1625 16.4467 32.0536 16.5431 32.9273 16.7316ZM13.0304 17.7537H13.9423H13.0304ZM12.9304 31.2948V17.8537V31.2948Z" fill="#2D9CDB" stroke="#2D9CDB" stroke-width="0.2"/>
</g>
<defs>
<clipPath id="clip0">
<rect x="12" y="12" width="24" height="24" fill="white"/>
</clipPath>
</defs>
</svg>
