<svg width="100" height="100" viewBox="0 0 100 100" fill="none" xmlns="http://www.w3.org/2000/svg">
<path d="M99.9994 50.2007C99.9805 56.6307 98.7184 62.9965 96.2826 68.9474C96.1427 69.289 95.9043 69.5812 95.5978 69.787C95.2913 69.9928 94.9305 70.1028 94.5614 70.103H87.254C86.6902 70.1001 86.1479 70.3194 85.7444 70.7133C85.341 71.1072 85.1088 71.644 85.0982 72.2078C85.1032 72.7197 85.2966 73.2118 85.6414 73.5902C85.9862 73.9686 86.4583 74.2068 86.9675 74.2592H87.1375C87.4113 74.2589 87.6825 74.3126 87.9355 74.4173C88.1885 74.522 88.4184 74.6757 88.6119 74.8694C88.8054 75.0632 88.9588 75.2932 89.0632 75.5463C89.1677 75.7995 89.2211 76.0708 89.2204 76.3446C89.221 76.6183 89.1676 76.8894 89.0631 77.1424C88.9587 77.3954 88.8053 77.6253 88.6117 77.8188C88.4182 78.0124 88.1883 78.1658 87.9353 78.2702C87.6823 78.3747 87.4112 78.4282 87.1375 78.4276H83.7071C83.2102 78.4192 82.7278 78.5952 82.3531 78.9216C81.9783 79.248 81.7376 79.7016 81.6776 80.1949C81.6727 80.258 81.6703 80.3212 81.6703 80.3867C81.67 80.6606 81.7237 80.9318 81.8284 81.1848C81.9331 81.4378 82.0868 81.6677 82.2805 81.8612C82.4743 82.0547 82.7043 82.2081 82.9574 82.3125C83.2106 82.4169 83.4818 82.4703 83.7557 82.4697C84.001 82.4695 84.2439 82.5178 84.4704 82.6119C84.6969 82.7061 84.9026 82.8441 85.0754 83.0181C85.2483 83.1922 85.385 83.3987 85.4777 83.6258C85.5704 83.8529 85.6171 84.0962 85.6153 84.3414C85.6152 84.5854 85.566 84.8267 85.4705 85.0512C85.3749 85.2756 85.2351 85.4784 85.0594 85.6476C75.7174 94.8588 63.1203 100.015 50.0009 99.9977C30.419 99.9977 13.4227 88.6749 5.22433 72.2345C5.05227 71.8837 4.97246 71.4948 4.99245 71.1045C5.01244 70.7143 5.13157 70.3356 5.33858 70.0042C5.54559 69.6728 5.83365 69.3996 6.17557 69.2104C6.51749 69.0213 6.90198 68.9224 7.29273 68.9231H14.9497C15.2237 68.9236 15.4952 68.8701 15.7484 68.7655C16.0017 68.6609 16.2319 68.5074 16.4258 68.3138C16.5307 68.2064 16.6243 68.0884 16.7049 67.9617C16.8972 67.6627 17.0096 67.3193 17.0312 66.9644C17.0529 66.6095 16.9833 66.255 16.8288 65.9347C16.6744 65.6145 16.4405 65.3392 16.1493 65.1351C15.8581 64.9311 15.5195 64.8051 15.1658 64.7693C15.1415 64.7645 15.1172 64.762 15.0929 64.7596H8.11815C8.0696 64.7596 8.02347 64.7572 7.97735 64.7547C7.57766 64.7277 7.19423 64.586 6.8729 64.3468C6.55157 64.1076 6.30593 63.7809 6.16535 63.4058C6.02477 63.0306 5.99521 62.6229 6.08018 62.2315C6.16516 61.84 6.36109 61.4812 6.64454 61.1982C6.97225 60.8688 7.40178 60.66 7.86325 60.6058C7.9477 60.594 8.03289 60.5883 8.11815 60.5888H12.1579C12.6203 60.5331 13.0509 60.3246 13.3814 59.9964C13.4172 59.9616 13.4504 59.9243 13.481 59.8848C13.7421 59.5826 13.911 59.2117 13.9674 58.8162C14.0238 58.4208 13.9654 58.0175 13.7991 57.6543C13.6329 57.2911 13.3658 56.9833 13.0296 56.7676C12.6934 56.5519 12.3024 56.4373 11.9029 56.4374H2.48103C1.90324 56.437 1.34664 56.2198 0.921349 55.8287C0.496063 55.4376 0.233075 54.9011 0.184419 54.3253C0.0630339 52.8954 0.00153246 51.4493 -8.60049e-05 49.987C-0.0091489 42.4554 1.68997 35.0198 4.96942 28.2397C5.08608 28.0041 5.26644 27.806 5.49001 27.6679C5.71359 27.5297 5.97143 27.457 6.23426 27.4579H17.7052C18.2419 27.4573 18.7576 27.2495 19.1449 26.878C19.5322 26.5064 19.7611 25.9997 19.784 25.4634C19.8068 24.9272 19.6218 24.4028 19.2676 23.9997C18.9133 23.5965 18.4171 23.3456 17.8824 23.2993H16.2704C16.2097 23.2993 16.1514 23.2969 16.0932 23.292C15.5667 23.2473 15.0769 23.0042 14.7228 22.6121C14.3687 22.22 14.1766 21.7081 14.1856 21.1798C14.1945 20.6515 14.4038 20.1463 14.771 19.7664C15.1381 19.3865 15.6359 19.1603 16.1636 19.1334C16.2 19.1309 16.234 19.1309 16.2704 19.1309H26.6682C27.1984 19.1049 27.6985 18.8772 28.0664 18.4945C28.4342 18.1118 28.6418 17.603 28.6468 17.0722C28.6352 16.5084 28.4024 15.9717 27.9987 15.5779C27.5949 15.1841 27.0526 14.9649 26.4886 14.9674H17.7586C17.4806 14.9672 17.2092 14.8825 16.9805 14.7246C16.7517 14.5667 16.5763 14.3429 16.4776 14.0831C16.3789 13.8232 16.3614 13.5395 16.4276 13.2695C16.4938 12.9995 16.6405 12.756 16.8482 12.5713C23.4739 6.69878 31.541 2.69238 40.2239 0.962208C48.9068 -0.767968 57.8935 -0.159784 66.2641 2.72451C66.4127 2.77715 66.538 2.88065 66.6177 3.01671C66.6974 3.15277 66.7265 3.31263 66.6998 3.46805C66.6731 3.62346 66.5923 3.76443 66.4717 3.86604C66.3511 3.96765 66.1984 4.02336 66.0407 4.02333H65.0065C64.4359 4.02127 63.8874 4.24406 63.4798 4.64346C63.0722 5.04285 62.8384 5.58671 62.8289 6.15728C62.8361 6.71081 63.061 7.23923 63.4549 7.62817C63.8489 8.0171 64.3801 8.23525 64.9337 8.23539H74.7877C76.5564 8.2274 78.2808 8.78829 79.7063 9.83525C84.9434 13.7241 89.3786 18.5897 92.7673 24.1635C92.8722 24.3359 92.9293 24.5331 92.933 24.7348C92.9366 24.9365 92.8866 25.1356 92.7881 25.3117C92.6896 25.4878 92.546 25.6345 92.3722 25.7369C92.1983 25.8393 92.0004 25.8937 91.7987 25.8945H86.851C86.286 25.8927 85.7431 26.1136 85.34 26.5095C84.9369 26.9053 84.7061 27.4441 84.6976 28.009C84.7049 28.5386 84.9135 29.0456 85.281 29.427C85.6484 29.8085 86.1473 30.0358 86.6762 30.0629H92.022C92.056 30.0629 92.0924 30.0629 92.1264 30.0653C92.66 30.0923 93.1627 30.3233 93.5308 30.7106C93.8989 31.0978 94.1042 31.6116 94.1042 32.1458C94.1042 32.6801 93.8989 33.1939 93.5308 33.5811C93.1627 33.9683 92.66 34.1993 92.1264 34.2264C92.0918 34.2304 92.0569 34.232 92.022 34.2312H91.1165C90.5826 34.2576 90.0794 34.4884 89.711 34.8757C89.3426 35.263 89.1374 35.7773 89.1379 36.3118V36.3142C89.1378 36.5878 89.1917 36.8587 89.2963 37.1114C89.401 37.3641 89.5544 37.5938 89.7478 37.7872C89.9413 37.9807 90.1709 38.1341 90.4237 38.2387C90.6764 38.3434 90.9473 38.3972 91.2209 38.3972H97.7247C97.985 38.3976 98.2373 38.4868 98.4399 38.6502C98.6426 38.8135 98.7834 39.0412 98.839 39.2954C99.6254 42.8768 100.015 46.534 99.9994 50.2007Z" fill="#6FCF97"/>
<path d="M84.6111 91.7323L85.0129 92.4671C85.0547 92.5434 85.1174 92.6062 85.1937 92.648L85.9286 93.0498C86.0002 93.089 86.06 93.1467 86.1016 93.2169C86.1432 93.2871 86.1652 93.3673 86.1652 93.4489C86.1652 93.5305 86.1432 93.6107 86.1016 93.6809C86.06 93.7511 86.0002 93.8088 85.9286 93.848L85.1937 94.2493C85.1174 94.2911 85.0546 94.3538 85.0129 94.4302L84.6111 95.1651C84.5719 95.2367 84.5142 95.2964 84.444 95.338C84.3737 95.3797 84.2936 95.4016 84.212 95.4016C84.1304 95.4016 84.0502 95.3797 83.98 95.338C83.9098 95.2964 83.8521 95.2367 83.8129 95.1651L83.4108 94.4302C83.3692 94.3538 83.3064 94.291 83.23 94.2493L82.4951 93.8473C82.4235 93.8081 82.3638 93.7504 82.3221 93.6802C82.2805 93.6099 82.2585 93.5298 82.2585 93.4482C82.2585 93.3665 82.2805 93.2864 82.3221 93.2162C82.3638 93.146 82.4235 93.0882 82.4951 93.0491L83.2997 92.6092C83.3304 92.5923 83.3556 92.567 83.3725 92.5363L83.8126 91.7318C83.8518 91.6601 83.9096 91.6004 83.9799 91.5587C84.0502 91.5171 84.1303 91.4952 84.212 91.4952C84.2937 91.4953 84.3738 91.5173 84.4441 91.559C84.5143 91.6007 84.572 91.6606 84.6111 91.7323Z" fill="#F2C94C"/>
<path d="M8.37551 84.8989L8.77754 85.634C8.8192 85.7102 8.8819 85.7729 8.95816 85.8146L9.69302 86.2166C9.76463 86.2558 9.82439 86.3135 9.86601 86.3838C9.90763 86.454 9.9296 86.5341 9.9296 86.6158C9.9296 86.6974 9.90763 86.7775 9.86601 86.8477C9.82439 86.918 9.76463 86.9757 9.69302 87.0149L8.95816 87.4167C8.88188 87.4584 8.81919 87.5212 8.77754 87.5975L8.37551 88.3326C8.33632 88.4042 8.2786 88.464 8.20838 88.5056C8.13815 88.5472 8.05803 88.5692 7.97639 88.5692C7.89476 88.5692 7.81464 88.5472 7.74441 88.5056C7.67419 88.464 7.61646 88.4042 7.57728 88.3326L7.17525 87.5975C7.1335 87.5212 7.07073 87.4584 6.99439 87.4167L6.25952 87.0149C6.18791 86.9757 6.12816 86.918 6.08654 86.8477C6.04491 86.7775 6.02295 86.6974 6.02295 86.6158C6.02295 86.5341 6.04491 86.454 6.08654 86.3838C6.12816 86.3135 6.18791 86.2558 6.25952 86.2166L7.06406 85.7767C7.09468 85.7598 7.11992 85.7345 7.13689 85.7039L7.5768 84.8994C7.6159 84.8276 7.6736 84.7677 7.74385 84.726C7.8141 84.6842 7.89429 84.6622 7.97601 84.6621C8.05772 84.6621 8.13795 84.684 8.20824 84.7257C8.27854 84.7673 8.33632 84.8272 8.37551 84.8989Z" fill="#F2C94C"/>
<path d="M2.35342 63.4584L2.7552 64.1932C2.79702 64.2695 2.85977 64.3323 2.93606 64.3741L3.67093 64.7759C3.74254 64.8151 3.80229 64.8728 3.84392 64.943C3.88554 65.0132 3.9075 65.0934 3.9075 65.175C3.9075 65.2566 3.88554 65.3367 3.84392 65.407C3.80229 65.4772 3.74254 65.5349 3.67093 65.5741L2.93606 65.9761C2.85972 66.0179 2.79695 66.0807 2.7552 66.157L2.35342 66.8919C2.31423 66.9635 2.2565 67.0232 2.18628 67.0649C2.11606 67.1065 2.03593 67.1284 1.9543 67.1284C1.87267 67.1284 1.79254 67.1065 1.72232 67.0649C1.6521 67.0232 1.59437 66.9635 1.55519 66.8919L1.15316 66.157C1.11147 66.0806 1.04869 66.0178 0.972295 65.9761L0.237429 65.5741C0.165817 65.5349 0.106066 65.4772 0.064442 65.407C0.0228182 65.3367 0.000854492 65.2566 0.000854492 65.175C0.000854492 65.0934 0.0228182 65.0132 0.064442 64.943C0.106066 64.8728 0.165817 64.8151 0.237429 64.7759L1.04197 64.336C1.07268 64.3191 1.09795 64.2939 1.1148 64.2631L1.55494 63.4586C1.59409 63.3869 1.6518 63.3271 1.72204 63.2854C1.79227 63.2437 1.87243 63.2217 1.95411 63.2217C2.03578 63.2217 2.11596 63.2436 2.18622 63.2853C2.25648 63.3269 2.31423 63.3867 2.35342 63.4584Z" fill="#F2C94C"/>
<path d="M72.7097 3.58221L72.992 4.09859C73.0213 4.15225 73.0654 4.1964 73.119 4.2258L73.6354 4.50814C73.6857 4.53564 73.7277 4.57618 73.757 4.62552C73.7863 4.67486 73.8017 4.73117 73.8017 4.78854C73.8017 4.84591 73.7863 4.90222 73.757 4.95156C73.7277 5.0009 73.6857 5.04144 73.6354 5.06894L73.119 5.35128C73.0654 5.38068 73.0213 5.42483 72.992 5.47849L72.7097 5.99487C72.6821 6.04521 72.6416 6.08722 72.5922 6.11648C72.5429 6.14574 72.4865 6.16119 72.4291 6.16119C72.3718 6.16119 72.3154 6.14574 72.2661 6.11648C72.2167 6.08722 72.1762 6.04521 72.1486 5.99487L71.8663 5.47849C71.837 5.42483 71.7929 5.38068 71.7393 5.35128L71.2229 5.06894C71.1726 5.04144 71.1306 5.0009 71.1013 4.95156C71.072 4.90222 71.0566 4.84591 71.0566 4.78854C71.0566 4.73117 71.072 4.67486 71.1013 4.62552C71.1306 4.57618 71.1726 4.53564 71.2229 4.50814L71.7881 4.19909C71.8098 4.1872 71.8277 4.16934 71.8396 4.14763L72.1486 3.58221C72.1762 3.53187 72.2167 3.48986 72.2661 3.4606C72.3154 3.43134 72.3718 3.41589 72.4291 3.41589C72.4865 3.41589 72.5429 3.43134 72.5922 3.4606C72.6416 3.48986 72.6821 3.53187 72.7097 3.58221Z" fill="#F2C94C"/>
<path d="M8.2566 19.5315L8.53894 20.0478C8.56835 20.1015 8.61249 20.1455 8.66616 20.1748L9.18253 20.4572C9.23288 20.4847 9.2749 20.5252 9.30417 20.5745C9.33344 20.6239 9.34889 20.6802 9.34889 20.7376C9.34889 20.7949 9.33344 20.8512 9.30417 20.9006C9.2749 20.9499 9.23288 20.9905 9.18253 21.018L8.66616 21.3005C8.61249 21.3298 8.56835 21.3739 8.53894 21.4275L8.2566 21.9439C8.2291 21.9942 8.18856 22.0362 8.13922 22.0655C8.08988 22.0948 8.03357 22.1102 7.9762 22.1102C7.91883 22.1102 7.86252 22.0948 7.81318 22.0655C7.76384 22.0362 7.7233 21.9942 7.6958 21.9439L7.41346 21.4275C7.38406 21.3739 7.33991 21.3298 7.28625 21.3005L6.76988 21.018C6.71953 20.9905 6.67751 20.9499 6.64823 20.9006C6.61896 20.8512 6.60352 20.7949 6.60352 20.7376C6.60352 20.6802 6.61896 20.6239 6.64823 20.5745C6.67751 20.5252 6.71953 20.4847 6.76988 20.4572L7.33529 20.1481C7.35699 20.1363 7.37479 20.1184 7.38651 20.0966L7.6958 19.5315C7.7233 19.4811 7.76384 19.4391 7.81318 19.4098C7.86252 19.3806 7.91883 19.3651 7.9762 19.3651C8.03357 19.3651 8.08988 19.3806 8.13922 19.4098C8.18856 19.4391 8.2291 19.4811 8.2566 19.5315Z" fill="#F2C94C"/>
<path d="M93.4047 35.8193L93.6231 36.2184C93.6458 36.2592 93.6794 36.2929 93.7203 36.3155L94.1194 36.534C94.1583 36.5553 94.1907 36.5866 94.2133 36.6248C94.2359 36.6629 94.2479 36.7064 94.2479 36.7508C94.2479 36.7951 94.2359 36.8386 94.2133 36.8768C94.1907 36.9149 94.1583 36.9463 94.1194 36.9676L93.7203 37.1861C93.6794 37.2086 93.6457 37.2423 93.6231 37.2832L93.4047 37.6823C93.3834 37.7212 93.3521 37.7537 93.314 37.7763C93.2758 37.7989 93.2323 37.8108 93.188 37.8108C93.1437 37.8108 93.1001 37.7989 93.062 37.7763C93.0239 37.7537 92.9926 37.7212 92.9713 37.6823L92.7528 37.2832C92.7303 37.2423 92.6966 37.2086 92.6557 37.1861L92.2566 36.9676C92.2177 36.9463 92.1853 36.9149 92.1626 36.8768C92.14 36.8386 92.1281 36.7951 92.1281 36.7508C92.1281 36.7064 92.14 36.6629 92.1626 36.6248C92.1853 36.5866 92.2177 36.5553 92.2566 36.534L92.6936 36.2951C92.7103 36.2859 92.7241 36.2721 92.7332 36.2553L92.9723 35.8183C92.9938 35.7798 93.0252 35.7477 93.0632 35.7253C93.1013 35.703 93.1446 35.6913 93.1888 35.6914C93.2329 35.6915 93.2762 35.7034 93.3141 35.7259C93.3521 35.7484 93.3834 35.7806 93.4047 35.8193Z" fill="#F2C94C"/>
<path d="M87.8247 49.9999C87.8233 58.4198 85.013 66.5987 79.8388 73.2411C74.6646 79.8836 67.4222 84.61 59.2587 86.6719C51.0951 88.7337 42.477 88.0131 34.7692 84.6243C27.0614 81.2354 20.7044 75.372 16.7051 67.9625C16.8974 67.6634 17.0097 67.32 17.0314 66.9652C17.0531 66.6103 16.9834 66.2558 16.829 65.9355C16.6746 65.6152 16.4406 65.3399 16.1495 65.1359C15.8583 64.9319 15.5197 64.8059 15.1659 64.7701C14.4927 63.1825 13.9298 61.5505 13.4811 59.8855C13.6947 59.6396 13.8476 59.3469 13.9274 59.0311C14.0072 58.7153 14.0118 58.3851 13.9407 58.0672C13.8696 57.7493 13.7249 57.4525 13.5181 57.2008C13.3114 56.949 13.0484 56.7494 12.7504 56.6178C11.8325 51.4511 11.9997 46.1499 13.2413 41.0513C14.4828 35.9526 16.7716 31.1681 19.9621 27.0017C23.1527 22.8354 27.1751 19.3785 31.7738 16.8507C36.3725 14.3229 41.4468 12.7795 46.6742 12.3187C51.9015 11.8579 57.1676 12.4898 62.1376 14.1741C67.1076 15.8584 71.6728 18.5583 75.543 22.1022C79.4132 25.6461 82.5037 29.9565 84.6181 34.7593C86.7325 39.5621 87.8245 44.7523 87.8247 49.9999Z" fill="#27AE60"/>
<path d="M49.9997 75.1089C63.8677 75.1089 75.11 63.8666 75.11 49.9986C75.11 36.1307 63.8677 24.8884 49.9997 24.8884C36.1318 24.8884 24.8895 36.1307 24.8895 49.9986C24.8895 63.8666 36.1318 75.1089 49.9997 75.1089Z" fill="#219653"/>
<path d="M84.6564 63.704L84.3821 64.2053C84.3537 64.2574 84.3109 64.3002 84.2588 64.3286L83.7572 64.6029C83.7083 64.6297 83.6676 64.6691 83.6392 64.717C83.6108 64.7649 83.5958 64.8196 83.5958 64.8753C83.5958 64.931 83.6108 64.9857 83.6392 65.0336C83.6676 65.0816 83.7083 65.121 83.7572 65.1477L84.2588 65.4218C84.3108 65.4503 84.3536 65.4931 84.3821 65.5451L84.6564 66.0467C84.6831 66.0956 84.7225 66.1364 84.7704 66.1648C84.8183 66.1932 84.873 66.2082 84.9287 66.2082C84.9844 66.2082 85.0391 66.1932 85.087 66.1648C85.1349 66.1364 85.1743 66.0956 85.201 66.0467L85.4753 65.5451C85.5038 65.4931 85.5466 65.4503 85.5986 65.4218L86.1002 65.1477C86.1491 65.121 86.1898 65.0816 86.2182 65.0336C86.2466 64.9857 86.2616 64.931 86.2616 64.8753C86.2616 64.8196 86.2466 64.7649 86.2182 64.717C86.1898 64.6691 86.1491 64.6297 86.1002 64.6029L85.5513 64.3026C85.5303 64.2916 85.5129 64.2747 85.5013 64.2541L85.201 63.7052C85.1744 63.6562 85.1351 63.6154 85.0872 63.5869C85.0394 63.5583 84.9848 63.5432 84.9291 63.5431C84.8734 63.543 84.8187 63.5578 84.7707 63.5861C84.7227 63.6145 84.6832 63.6552 84.6564 63.704Z" fill="white"/>
<path d="M44.8089 7.57702L44.4396 8.25241C44.4012 8.32253 44.3435 8.38016 44.2733 8.41846L43.598 8.78796C43.5322 8.82401 43.4773 8.87708 43.4391 8.94161C43.4008 9.00615 43.3807 9.07978 43.3807 9.15479C43.3807 9.22979 43.4008 9.30342 43.4391 9.36796C43.4773 9.4325 43.5322 9.48557 43.598 9.52161L44.2733 9.89087C44.3435 9.92925 44.4012 9.98697 44.4396 10.0572L44.8089 10.7326C44.8449 10.7983 44.898 10.8532 44.9625 10.8914C45.0271 10.9297 45.1007 10.9498 45.1757 10.9498C45.2507 10.9498 45.3244 10.9297 45.3889 10.8914C45.4534 10.8532 45.5065 10.7983 45.5425 10.7326L45.912 10.0572C45.9503 9.98699 46.008 9.92927 46.0781 9.89087L46.7535 9.52258C46.8193 9.48659 46.8743 9.43354 46.9125 9.369C46.9508 9.30445 46.971 9.2308 46.971 9.15576C46.971 9.08072 46.9508 9.00706 46.9125 8.94252C46.8743 8.87797 46.8193 8.82492 46.7535 8.78893L46.0142 8.38447C45.9859 8.36892 45.9626 8.34559 45.947 8.31723L45.5425 7.57799C45.5066 7.51217 45.4536 7.45722 45.3891 7.41891C45.3246 7.3806 45.251 7.36033 45.176 7.36023C45.101 7.36013 45.0273 7.3802 44.9628 7.41834C44.8982 7.45648 44.845 7.51129 44.8089 7.57702Z" fill="white"/>
<path d="M60.695 13.8609L60.4355 14.3353C60.4085 14.3846 60.368 14.4251 60.3187 14.452L59.8441 14.7116C59.7979 14.7369 59.7593 14.7742 59.7324 14.8196C59.7056 14.8649 59.6914 14.9167 59.6914 14.9694C59.6914 15.0221 59.7056 15.0739 59.7324 15.1192C59.7593 15.1646 59.7979 15.2019 59.8441 15.2272L60.3187 15.4867C60.368 15.5137 60.4085 15.5542 60.4355 15.6035L60.695 16.0776C60.7203 16.1239 60.7575 16.1626 60.8029 16.1895C60.8482 16.2164 60.9 16.2306 60.9527 16.2306C61.0055 16.2306 61.0572 16.2164 61.1026 16.1895C61.1479 16.1626 61.1852 16.1239 61.2104 16.0776L61.4699 15.6033C61.4969 15.554 61.5374 15.5134 61.5867 15.4865L62.0613 15.227C62.1076 15.2016 62.1461 15.1643 62.173 15.119C62.1999 15.0736 62.214 15.0219 62.214 14.9691C62.214 14.9164 62.1999 14.8647 62.173 14.8193C62.1461 14.774 62.1076 14.7367 62.0613 14.7113L61.5418 14.4273C61.5214 14.4166 61.5045 14.4001 61.4933 14.3799L61.2092 13.8606C61.1838 13.8147 61.1466 13.7763 61.1014 13.7496C61.0561 13.7229 61.0046 13.7088 60.952 13.7089C60.8995 13.7089 60.848 13.723 60.8028 13.7497C60.7575 13.7765 60.7203 13.8149 60.695 13.8609Z" fill="white"/>
<path d="M22.6221 21.8856L22.4366 22.2255C22.4172 22.2607 22.3883 22.2896 22.3531 22.309L22.0132 22.4945C21.9801 22.5126 21.9525 22.5392 21.9333 22.5717C21.9141 22.6041 21.9039 22.6411 21.9039 22.6788C21.9039 22.7165 21.9141 22.7535 21.9333 22.7859C21.9525 22.8183 21.9801 22.845 22.0132 22.863L22.3531 23.0485C22.3883 23.0677 22.4173 23.0966 22.4366 23.1318L22.6221 23.4717C22.6401 23.5047 22.6667 23.5324 22.6991 23.5516C22.7315 23.5708 22.7685 23.581 22.8062 23.581C22.8439 23.581 22.8809 23.5708 22.9133 23.5516C22.9457 23.5324 22.9723 23.5047 22.9904 23.4717L23.1761 23.1318C23.1952 23.0966 23.2242 23.0677 23.2593 23.0485L23.5992 22.863C23.6322 22.8449 23.6598 22.8182 23.6789 22.7858C23.6981 22.7534 23.7082 22.7164 23.7082 22.6788C23.7082 22.6411 23.6981 22.6041 23.6789 22.5717C23.6598 22.5393 23.6322 22.5126 23.5992 22.4945L23.2278 22.2913C23.2135 22.2836 23.2018 22.2718 23.194 22.2576L22.9908 21.8864C22.9729 21.8531 22.9463 21.8254 22.9139 21.806C22.8815 21.7866 22.8444 21.7763 22.8067 21.7762C22.7689 21.7762 22.7318 21.7863 22.6993 21.8056C22.6668 21.8248 22.6401 21.8525 22.6221 21.8856Z" fill="white"/>
<path d="M31.4536 44.3652L31.2681 44.7051C31.2489 44.7403 31.2199 44.7693 31.1846 44.7886L30.8447 44.9741C30.8117 44.9921 30.7841 45.0188 30.7648 45.0512C30.7456 45.0836 30.7355 45.1206 30.7355 45.1583C30.7355 45.196 30.7456 45.233 30.7648 45.2654C30.7841 45.2979 30.8117 45.3245 30.8447 45.3426L31.1846 45.5281C31.2199 45.5471 31.2489 45.5761 31.2681 45.6113L31.4536 45.9512C31.4717 45.9843 31.4983 46.0119 31.5308 46.0311C31.5632 46.0503 31.6002 46.0605 31.6379 46.0605C31.6756 46.0605 31.7126 46.0503 31.745 46.0311C31.7774 46.0119 31.8041 45.9843 31.8221 45.9512L32.0076 45.6113C32.0269 45.5762 32.0559 45.5473 32.0911 45.5281L32.431 45.3426C32.4641 45.3245 32.4917 45.2979 32.5109 45.2654C32.5301 45.233 32.5403 45.196 32.5403 45.1583C32.5403 45.1206 32.5301 45.0836 32.5109 45.0512C32.4917 45.0188 32.4641 44.9921 32.431 44.9741L32.0598 44.7711C32.0456 44.7632 32.0339 44.7514 32.0261 44.7371L31.8229 44.3659C31.8049 44.3326 31.7783 44.3048 31.7458 44.2854C31.7134 44.266 31.6763 44.2557 31.6385 44.2556C31.6006 44.2555 31.5635 44.2657 31.531 44.285C31.4984 44.3043 31.4717 44.332 31.4536 44.3652Z" fill="white"/>
<path d="M65.1795 25.9336L64.994 26.2735C64.9748 26.3087 64.9458 26.3376 64.9105 26.3568L64.5706 26.5423C64.5376 26.5604 64.51 26.587 64.4907 26.6194C64.4715 26.6518 64.4614 26.6888 64.4614 26.7265C64.4614 26.7642 64.4715 26.8012 64.4907 26.8336C64.51 26.8661 64.5376 26.8927 64.5706 26.9108L64.9105 27.0963C64.9457 27.1156 64.9747 27.1446 64.994 27.1798L65.1795 27.5197C65.1976 27.5527 65.2242 27.5803 65.2567 27.5996C65.2891 27.6188 65.3261 27.6289 65.3638 27.6289C65.4015 27.6289 65.4385 27.6188 65.4709 27.5996C65.5033 27.5803 65.53 27.5527 65.548 27.5197L65.7335 27.1798C65.7528 27.1446 65.7818 27.1156 65.817 27.0963L66.1569 26.9108C66.19 26.8927 66.2176 26.8661 66.2368 26.8336C66.256 26.8012 66.2662 26.7642 66.2662 26.7265C66.2662 26.6888 66.256 26.6518 66.2368 26.6194C66.2176 26.587 66.19 26.5604 66.1569 26.5423L65.7855 26.3393C65.7712 26.3315 65.7595 26.3198 65.7517 26.3056L65.5488 25.9341C65.5307 25.9009 65.5041 25.8732 65.4716 25.8538C65.4392 25.8345 65.4021 25.8243 65.3643 25.8242C65.3265 25.8242 65.2894 25.8343 65.2569 25.8536C65.2244 25.8728 65.1976 25.9005 65.1795 25.9336Z" fill="white"/>
<path d="M79.9239 41.5612L79.6644 42.0356C79.6374 42.0849 79.5969 42.1254 79.5476 42.1524L79.0732 42.4119C79.0269 42.4372 78.9883 42.4745 78.9614 42.5198C78.9344 42.5652 78.9202 42.617 78.9202 42.6697C78.9202 42.7225 78.9344 42.7742 78.9614 42.8196C78.9883 42.865 79.0269 42.9023 79.0732 42.9275L79.5476 43.1868C79.5969 43.2139 79.6374 43.2545 79.6644 43.3038L79.9239 43.7782C79.9492 43.8244 79.9864 43.863 80.0318 43.8899C80.0771 43.9168 80.1289 43.931 80.1816 43.931C80.2343 43.931 80.286 43.9168 80.3314 43.8899C80.3767 43.863 80.414 43.8244 80.4393 43.7782L80.699 43.3038C80.726 43.2545 80.7665 43.2139 80.8158 43.1868L81.2902 42.9275C81.3364 42.9022 81.375 42.8649 81.4019 42.8195C81.4287 42.7742 81.4429 42.7224 81.4429 42.6697C81.4429 42.617 81.4287 42.5652 81.4019 42.5199C81.375 42.4745 81.3364 42.4372 81.2902 42.4119L80.7707 42.1278C80.7507 42.1169 80.7344 42.1005 80.7236 42.0805L80.4393 41.5612C80.414 41.5149 80.3768 41.4763 80.3314 41.4493C80.2861 41.4224 80.2343 41.4082 80.1816 41.4082C80.1288 41.4082 80.0771 41.4224 80.0317 41.4493C79.9864 41.4763 79.9491 41.5149 79.9239 41.5612Z" fill="white"/>
<path d="M80.9777 20.7464L80.718 21.221C80.6911 21.2704 80.6506 21.3109 80.6012 21.3378L80.1268 21.5973C80.0806 21.6226 80.042 21.6599 80.0151 21.7052C79.9882 21.7505 79.9741 21.8023 79.9741 21.855C79.9741 21.9077 79.9882 21.9594 80.0151 22.0048C80.042 22.0501 80.0806 22.0874 80.1268 22.1127L80.6012 22.3722C80.6506 22.3991 80.6911 22.4396 80.718 22.489L80.9777 22.9636C81.003 23.0098 81.0403 23.0484 81.0856 23.0753C81.131 23.1022 81.1827 23.1164 81.2354 23.1164C81.2881 23.1164 81.3399 23.1022 81.3852 23.0753C81.4306 23.0484 81.4678 23.0098 81.4931 22.9636L81.7526 22.489C81.7796 22.4397 81.8201 22.3992 81.8694 22.3722L82.3438 22.1127C82.3901 22.0874 82.4287 22.0502 82.4557 22.0048C82.4826 21.9595 82.4968 21.9077 82.4968 21.855C82.4968 21.8022 82.4826 21.7505 82.4557 21.7051C82.4287 21.6598 82.3901 21.6225 82.3438 21.5973L81.8245 21.313C81.8041 21.3024 81.7872 21.286 81.776 21.2659L81.4919 20.7464C81.4665 20.7004 81.4293 20.6621 81.3841 20.6355C81.3388 20.6088 81.2873 20.5947 81.2348 20.5947C81.1823 20.5947 81.1308 20.6088 81.0856 20.6355C81.0404 20.6621 81.0031 20.7004 80.9777 20.7464Z" fill="white"/>
<path d="M92.5069 49.4098L92.2821 49.8225C92.2586 49.8651 92.2235 49.9002 92.1808 49.9235L91.7698 50.1483C91.7297 50.1702 91.6963 50.2025 91.673 50.2418C91.6497 50.2811 91.6375 50.3259 91.6375 50.3716C91.6375 50.4172 91.6497 50.462 91.673 50.5013C91.6963 50.5406 91.7297 50.5729 91.7698 50.5948L92.1808 50.8196C92.2235 50.843 92.2586 50.8781 92.2821 50.9208L92.5069 51.3318C92.5288 51.3719 92.561 51.4053 92.6003 51.4286C92.6396 51.4519 92.6844 51.4642 92.7301 51.4642C92.7757 51.4642 92.8206 51.4519 92.8598 51.4286C92.8991 51.4053 92.9314 51.3719 92.9533 51.3318L93.1781 50.9208C93.2014 50.8781 93.2364 50.8429 93.2791 50.8196L93.6901 50.5948C93.7302 50.5729 93.7636 50.5406 93.7869 50.5013C93.8102 50.462 93.8225 50.4172 93.8225 50.3716C93.8225 50.3259 93.8102 50.2811 93.7869 50.2418C93.7636 50.2025 93.7302 50.1702 93.6901 50.1483L93.2403 49.9024C93.223 49.8929 93.2088 49.8787 93.1992 49.8614L92.9533 49.4115C92.9316 49.3714 92.8994 49.3378 92.8602 49.3144C92.821 49.291 92.7762 49.2785 92.7306 49.2783C92.6849 49.2781 92.6401 49.2903 92.6007 49.3134C92.5613 49.3365 92.5289 49.3699 92.5069 49.4098Z" fill="white"/>
<path d="M35.394 19.4068L35.1345 19.8814C35.1075 19.9306 35.067 19.9711 35.0178 19.9982L34.5431 20.2577C34.4969 20.283 34.4583 20.3203 34.4314 20.3656C34.4046 20.4109 34.3904 20.4627 34.3904 20.5154C34.3904 20.5681 34.4046 20.6198 34.4314 20.6652C34.4583 20.7105 34.4969 20.7478 34.5431 20.7731L35.0178 21.0326C35.067 21.0596 35.1076 21.1001 35.1345 21.1494L35.394 21.6238C35.4193 21.6701 35.4565 21.7087 35.5019 21.7356C35.5472 21.7626 35.599 21.7768 35.6517 21.7768C35.7045 21.7768 35.7563 21.7626 35.8016 21.7356C35.8469 21.7087 35.8842 21.6701 35.9094 21.6238L36.169 21.1494C36.1959 21.1001 36.2364 21.0596 36.2857 21.0326L36.7604 20.7731C36.8066 20.7478 36.8452 20.7105 36.8721 20.6652C36.8989 20.6198 36.9131 20.5681 36.9131 20.5154C36.9131 20.4627 36.8989 20.4109 36.8721 20.3656C36.8452 20.3203 36.8066 20.283 36.7604 20.2577L36.2408 19.9734C36.2209 19.9625 36.2045 19.9462 36.1935 19.9263L35.9094 19.4068C35.8841 19.3605 35.8469 19.322 35.8015 19.2951C35.7562 19.2682 35.7045 19.254 35.6517 19.254C35.599 19.254 35.5473 19.2682 35.502 19.2951C35.4566 19.322 35.4193 19.3605 35.394 19.4068Z" fill="white"/>
<path d="M10.2328 36.1415L9.97327 36.6159C9.94631 36.6652 9.90579 36.7057 9.8565 36.7327L9.38188 36.9922C9.33564 37.0175 9.29706 37.0548 9.27018 37.1001C9.24331 37.1454 9.22913 37.1972 9.22913 37.2499C9.22913 37.3026 9.24331 37.3543 9.27018 37.3997C9.29706 37.445 9.33564 37.4823 9.38188 37.5076L9.8565 37.7671C9.90579 37.7941 9.94631 37.8346 9.97327 37.8839L10.2328 38.3585C10.2581 38.4047 10.2954 38.4433 10.3407 38.4702C10.386 38.4971 10.4378 38.5113 10.4905 38.5113C10.5432 38.5113 10.5949 38.4971 10.6403 38.4702C10.6856 38.4433 10.7229 38.4047 10.7482 38.3585L11.0077 37.8839C11.0347 37.8346 11.0752 37.7941 11.1245 37.7671L11.5991 37.5076C11.6453 37.4823 11.6839 37.445 11.7108 37.3997C11.7377 37.3543 11.7519 37.3026 11.7519 37.2499C11.7519 37.1972 11.7377 37.1454 11.7108 37.1001C11.6839 37.0548 11.6453 37.0175 11.5991 36.9922L11.0796 36.7081C11.0595 36.6969 11.043 36.68 11.0322 36.6596L10.7482 36.1401C10.7228 36.0939 10.6854 36.0554 10.64 36.0287C10.5945 36.0019 10.5428 35.9879 10.4901 35.988C10.4374 35.9882 10.3857 36.0025 10.3404 36.0295C10.2951 36.0565 10.258 36.0952 10.2328 36.1415Z" fill="white"/>
<path d="M32.9318 62.8638L33.2141 63.3801C33.2435 63.4337 33.2875 63.4779 33.3411 63.5073L33.8575 63.7897C33.9078 63.8172 33.9498 63.8577 33.9791 63.9071C34.0084 63.9564 34.0238 64.0127 34.0238 64.0701C34.0238 64.1275 34.0084 64.1838 33.9791 64.2331C33.9498 64.2824 33.9078 64.323 33.8575 64.3505L33.3411 64.6328C33.2875 64.6623 33.2435 64.7064 33.2141 64.76L32.9318 65.2762C32.9043 65.3265 32.8637 65.3685 32.8144 65.3978C32.765 65.4271 32.7087 65.4425 32.6514 65.4425C32.594 65.4425 32.5377 65.4271 32.4884 65.3978C32.439 65.3685 32.3985 65.3265 32.371 65.2762L32.0884 64.76C32.0592 64.7063 32.0151 64.6622 31.9614 64.6328L31.445 64.3505C31.3947 64.323 31.3527 64.2824 31.3234 64.2331C31.2941 64.1838 31.2787 64.1275 31.2787 64.0701C31.2787 64.0127 31.2941 63.9564 31.3234 63.9071C31.3527 63.8577 31.3947 63.8172 31.445 63.7897L32.0105 63.4804C32.032 63.4685 32.0498 63.4507 32.0617 63.4292L32.371 62.8638C32.3985 62.8134 32.439 62.7714 32.4884 62.7421C32.5377 62.7128 32.594 62.6974 32.6514 62.6974C32.7087 62.6974 32.765 62.7128 32.8144 62.7421C32.8637 62.7714 32.9043 62.8134 32.9318 62.8638Z" fill="white"/>
<path d="M72.826 83.8418L73.1086 84.3581C73.1378 84.4119 73.1819 84.456 73.2356 84.4854L73.7519 84.7677C73.8023 84.7952 73.8443 84.8357 73.8736 84.8851C73.9028 84.9344 73.9183 84.9907 73.9183 85.0481C73.9183 85.1055 73.9028 85.1618 73.8736 85.2111C73.8443 85.2605 73.8023 85.301 73.7519 85.3285L73.2356 85.6108C73.1819 85.6402 73.1378 85.6843 73.1086 85.7381L72.826 86.2542C72.7985 86.3045 72.758 86.3466 72.7086 86.3758C72.6593 86.4051 72.603 86.4205 72.5456 86.4205C72.4882 86.4205 72.4319 86.4051 72.3826 86.3758C72.3332 86.3466 72.2927 86.3045 72.2652 86.2542L71.9829 85.7381C71.9536 85.6844 71.9095 85.6402 71.8559 85.6108L71.3395 85.3285C71.2892 85.301 71.2471 85.2605 71.2179 85.2111C71.1886 85.1618 71.1732 85.1055 71.1732 85.0481C71.1732 84.9907 71.1886 84.9344 71.2179 84.8851C71.2471 84.8357 71.2892 84.7952 71.3395 84.7677L71.9047 84.4587C71.9264 84.4467 71.9442 84.4289 71.9561 84.4072L72.2652 83.8418C72.2927 83.7914 72.3332 83.7494 72.3826 83.7201C72.4319 83.6909 72.4882 83.6754 72.5456 83.6754C72.603 83.6754 72.6593 83.6909 72.7086 83.7201C72.758 83.7494 72.7985 83.7914 72.826 83.8418Z" fill="white"/>
<path d="M75.9707 69.0839C75.3201 68.8414 74.6122 68.7976 73.9367 68.958C73.2611 69.1185 72.6485 69.476 72.1765 69.9851C71.7045 70.4943 71.3943 71.1323 71.2855 71.818C71.1766 72.5037 71.2738 73.2063 71.5649 73.8367C71.7152 74.1584 71.7776 74.5143 71.7458 74.868L71.6436 75.3715C71.5909 75.3914 71.5431 75.4223 71.5032 75.4621C71.4634 75.5019 71.4324 75.5497 71.4125 75.6023L71.3896 75.6635C71.3688 75.7217 71.3618 75.7839 71.3694 75.8453C71.3769 75.9066 71.3987 75.9654 71.4331 76.0167L71.0126 77.1449C70.9283 77.3718 70.9374 77.6228 71.038 77.843C71.1385 78.0632 71.3222 78.2345 71.5489 78.3194L71.6793 78.368C71.6944 78.4662 71.7313 78.5597 71.7873 78.6418C71.9061 78.8118 72.0751 78.9403 72.2706 79.0094C72.3902 79.0545 72.5169 79.0781 72.6448 79.0788C72.7232 79.0791 72.8014 79.0688 72.8771 79.0482C72.9731 79.0227 73.0622 78.9761 73.1378 78.9118L73.2679 78.9603C73.4949 79.0447 73.746 79.0355 73.9662 78.9349C74.1864 78.8342 74.3577 78.6504 74.4425 78.4236L74.8612 77.3012C74.8802 77.2963 74.8988 77.2901 74.9168 77.2825C74.9651 77.2607 75.0085 77.2294 75.0446 77.1906C75.0807 77.1518 75.1087 77.1062 75.1271 77.0565L75.1499 76.9956C75.1686 76.946 75.1772 76.8932 75.1753 76.8402C75.1734 76.7872 75.1609 76.7352 75.1387 76.687C75.1358 76.6805 75.13 76.6764 75.1266 76.6703L75.3796 76.2221C75.5871 75.9339 75.8673 75.7057 76.1916 75.5608C76.8238 75.2743 77.3567 74.8065 77.7228 74.2168C78.0889 73.6271 78.2717 72.942 78.2481 72.2484C78.2244 71.5547 77.9953 70.8836 77.5899 70.3202C77.1845 69.7568 76.621 69.3265 75.9707 69.0837V69.0839ZM73.4524 78.4656L71.7334 77.8247C71.6378 77.7888 71.5604 77.7166 71.518 77.6237C71.4757 77.5309 71.4718 77.4251 71.5074 77.3294L71.8975 76.2831L74.3381 77.193L73.9477 78.2393C73.9119 78.3349 73.8397 78.4124 73.7468 78.4548C73.654 78.4972 73.5481 78.5011 73.4524 78.4656ZM73.6056 71.8355C73.7076 71.8163 73.8059 71.7813 73.897 71.7316C74.0184 71.6716 74.0713 71.6483 74.1621 71.6831C74.2529 71.7178 74.2779 71.769 74.3305 71.8943C74.3605 71.9984 74.4145 72.094 74.4882 72.1734C74.5618 72.2528 74.653 72.3139 74.7546 72.3517C74.8561 72.3895 74.9651 72.4029 75.0727 72.3909C75.1804 72.3789 75.2837 72.3419 75.3745 72.2827C75.4959 72.2227 75.5493 72.1997 75.6398 72.2341C75.7304 72.2686 75.7549 72.3198 75.8078 72.4458C75.8447 72.5423 75.8964 72.6323 75.961 72.7129C75.0449 73.6969 74.2843 74.8149 73.7054 76.0284L73.14 75.8174C73.4959 74.5214 73.6529 73.1787 73.6056 71.8355ZM74.6789 76.3896L74.2468 76.2284C74.8784 74.9414 75.712 73.7638 76.716 72.7403C76.7684 72.6848 76.7966 72.6108 76.7944 72.5345C76.7922 72.4582 76.7597 72.3859 76.7042 72.3335C76.6487 72.2812 76.5747 72.253 76.4984 72.2552C76.4221 72.2574 76.3499 72.2898 76.2975 72.3453C76.287 72.3563 76.2781 72.3667 76.2679 72.3776C76.2497 72.3437 76.2335 72.3087 76.2193 72.273C76.1893 72.1691 76.1354 72.0736 76.0619 71.9943C75.9884 71.9149 75.8973 71.8539 75.7959 71.8162C75.6946 71.7784 75.5858 71.7649 75.4783 71.7768C75.3708 71.7887 75.2675 71.8256 75.1769 71.8845C75.0555 71.9448 75.003 71.9681 74.9115 71.9346C74.82 71.9011 74.7959 71.8481 74.7416 71.7217C74.7114 71.6177 74.6573 71.5222 74.5837 71.4429C74.51 71.3636 74.4188 71.3026 74.3173 71.2648C74.2159 71.2271 74.107 71.2136 73.9994 71.2255C73.8918 71.2374 73.7884 71.2743 73.6976 71.3332C73.6631 71.3507 73.6277 71.3664 73.5916 71.3801C73.5916 71.365 73.5916 71.3512 73.5901 71.3361C73.5869 71.2598 73.5535 71.1879 73.4973 71.1363C73.441 71.0846 73.3666 71.0574 73.2903 71.0606C73.214 71.0638 73.1421 71.0972 73.0904 71.1534C73.0387 71.2097 73.0115 71.2841 73.0147 71.3604C73.1019 72.7915 72.9608 74.2274 72.5967 75.6142L72.1648 75.4533L72.2619 74.9731C72.3195 74.5091 72.2438 74.0384 72.0434 73.616C71.7962 73.0805 71.7137 72.4837 71.8062 71.9012C71.8987 71.3187 72.1621 70.7769 72.5631 70.3443C72.964 69.9118 73.4844 69.6081 74.0582 69.4718C74.632 69.3354 75.2334 69.3726 75.786 69.5786C76.3387 69.7845 76.8177 70.15 77.1623 70.6286C77.507 71.1072 77.7017 71.6773 77.7218 72.2668C77.7419 72.8562 77.5864 73.4383 77.2752 73.9393C76.964 74.4403 76.511 74.8375 75.9736 75.0806C75.545 75.268 75.1791 75.5743 74.919 75.9631L74.6789 76.3896Z" fill="white"/>
<path d="M76.1522 68.6003C76.1926 68.6154 76.2356 68.6224 76.2787 68.6209C76.3218 68.6194 76.3642 68.6094 76.4034 68.5915C76.4427 68.5736 76.478 68.5481 76.5074 68.5166C76.5368 68.485 76.5596 68.4479 76.5747 68.4075L77.0689 67.0815C77.0845 67.041 77.0919 66.9979 77.0906 66.9545C77.0894 66.9112 77.0796 66.8685 77.0618 66.829C77.044 66.7895 77.0185 66.7539 76.9868 66.7242C76.9552 66.6946 76.918 66.6715 76.8774 66.6564C76.8367 66.6412 76.7935 66.6342 76.7502 66.6359C76.7069 66.6375 76.6643 66.6477 76.6249 66.6658C76.5856 66.684 76.5502 66.7098 76.5209 66.7417C76.4915 66.7737 76.4688 66.8111 76.454 66.8518L75.9597 68.1778C75.9445 68.2182 75.9375 68.2612 75.9389 68.3043C75.9404 68.3474 75.9503 68.3898 75.9682 68.4291C75.9861 68.4683 76.0116 68.5036 76.0431 68.533C76.0747 68.5624 76.1118 68.5853 76.1522 68.6003Z" fill="white"/>
<path d="M72.4052 68.3921C72.4227 68.4327 72.4482 68.4694 72.4803 68.4999C72.5124 68.5304 72.5504 68.554 72.5919 68.5693C72.6286 68.5828 72.6674 68.5898 72.7065 68.5899C72.761 68.5898 72.8146 68.5762 72.8624 68.5502C72.9103 68.5243 72.951 68.4868 72.9808 68.4412C73.0106 68.3957 73.0286 68.3434 73.0332 68.2891C73.0378 68.2349 73.0288 68.1803 73.0071 68.1304L72.4579 66.868C72.4221 66.7898 72.357 66.7288 72.2767 66.6981C72.1964 66.6673 72.1072 66.6693 72.0283 66.7036C71.9495 66.7379 71.8872 66.8018 71.8549 66.8815C71.8226 66.9612 71.8229 67.0504 71.8556 67.1299L72.4052 68.3921Z" fill="white"/>
<path d="M70.4865 71.1572C70.5335 71.157 70.58 71.1468 70.6227 71.1271C70.682 71.1002 70.732 71.0564 70.7663 71.001C70.8006 70.9457 70.8177 70.8814 70.8154 70.8164C70.813 70.7513 70.7914 70.6884 70.7533 70.6357C70.7151 70.5829 70.6621 70.5427 70.6011 70.5202L69.1651 69.9846C69.1247 69.9695 69.0817 69.9625 69.0386 69.9641C68.9955 69.9656 68.9532 69.9756 68.9139 69.9935C68.8747 70.0114 68.8394 70.0368 68.81 70.0684C68.7806 70.0999 68.7577 70.137 68.7427 70.1774C68.7276 70.2178 68.7206 70.2607 68.7221 70.3038C68.7237 70.3469 68.7337 70.3893 68.7516 70.4285C68.7695 70.4677 68.7949 70.503 68.8265 70.5324C68.858 70.5618 68.895 70.5847 68.9354 70.5998L70.3716 71.1353C70.4083 71.1495 70.4472 71.1569 70.4865 71.1572Z" fill="white"/>
<path d="M70.4138 73.8876L69.1485 74.4773C69.0899 74.5047 69.0408 74.5488 69.0072 74.6041C68.9737 74.6593 68.9571 74.7232 68.9597 74.7878C68.9623 74.8524 68.9839 74.9148 69.0218 74.9672C69.0597 75.0196 69.1122 75.0596 69.1727 75.0823H69.1742C69.2108 75.0957 69.2495 75.1026 69.2885 75.1026C69.3364 75.1027 69.3837 75.0921 69.4269 75.0716L70.692 74.4821C70.769 74.4441 70.828 74.3775 70.8565 74.2965C70.8849 74.2155 70.8806 74.1266 70.8443 74.0488C70.808 73.971 70.7427 73.9105 70.6624 73.8802C70.5821 73.85 70.4931 73.8523 70.4145 73.8869L70.4138 73.8876Z" fill="white"/>
<path d="M78.8631 70.9077C78.8998 70.9214 78.9387 70.9283 78.9779 70.9283C79.0269 70.9282 79.0754 70.9173 79.1197 70.8962L80.3619 70.3015C80.4389 70.2629 80.4977 70.1956 80.5256 70.1142C80.5535 70.0327 80.5483 69.9435 80.5111 69.8659C80.4738 69.7882 80.4076 69.7283 80.3267 69.6989C80.2457 69.6696 80.1565 69.6733 80.0781 69.7091L78.8361 70.3039C78.7779 70.3316 78.7291 70.3759 78.6959 70.4311C78.6626 70.4864 78.6464 70.5503 78.6493 70.6147C78.6522 70.6792 78.674 70.7413 78.712 70.7934C78.75 70.8455 78.8026 70.8853 78.8631 70.9077Z" fill="white"/>
<path d="M80.7097 74.3925C80.6917 74.3534 80.6662 74.3183 80.6346 74.2892C80.6031 74.26 80.566 74.2374 80.5257 74.2225L79.0895 73.687C79.0491 73.6716 79.0061 73.6645 78.963 73.6661C78.9199 73.6677 78.8775 73.6779 78.8384 73.6962C78.7791 73.7231 78.7292 73.767 78.6949 73.8224C78.6606 73.8777 78.6436 73.942 78.646 74.0071C78.6483 74.0721 78.67 74.135 78.7082 74.1878C78.7464 74.2405 78.7994 74.2806 78.8605 74.3031L80.2963 74.8385C80.3331 74.8524 80.3722 74.8596 80.4116 74.8596C80.4585 74.8594 80.5049 74.8492 80.5475 74.8297C80.6268 74.7935 80.6884 74.7273 80.7188 74.6457C80.7492 74.564 80.7459 74.4736 80.7097 74.3944V74.3925Z" fill="white"/>
<path d="M77.0278 76.3539C76.9902 76.2778 76.9246 76.2193 76.8448 76.1904C76.765 76.1616 76.6771 76.1648 76.5996 76.1993C76.5221 76.2338 76.461 76.297 76.429 76.3756C76.397 76.4542 76.3967 76.5422 76.4281 76.621L76.9979 77.8948C77.0156 77.9346 77.0411 77.9705 77.0729 78.0004C77.1046 78.0302 77.142 78.0534 77.1829 78.0686C77.2196 78.0818 77.2583 78.0887 77.2972 78.0888C77.3518 78.0886 77.4056 78.0749 77.4535 78.0488C77.5015 78.0227 77.5421 77.985 77.5719 77.9392C77.6016 77.8934 77.6194 77.8409 77.6237 77.7865C77.628 77.7321 77.6187 77.6774 77.5966 77.6275L77.0278 76.3539Z" fill="white"/>
<path d="M82.7723 55.3277C82.2662 55.3276 81.7672 55.209 81.3151 54.9814C80.8631 54.7538 80.4706 54.4236 80.1691 54.0171C79.8676 53.6106 79.6655 53.1392 79.5788 52.6406C79.4922 52.142 79.5235 51.63 79.6703 51.1457C79.817 50.6613 80.0751 50.2181 80.4239 49.8514C80.7727 49.4847 81.2025 49.2047 81.6789 49.0339C82.1553 48.8631 82.6651 48.8063 83.1674 48.8678C83.6697 48.9294 84.1507 49.1077 84.5717 49.3885C84.6091 49.4191 84.6337 49.4625 84.6408 49.5102C84.6479 49.558 84.637 49.6066 84.6102 49.6468C84.5833 49.6869 84.5425 49.7156 84.4957 49.7273C84.4489 49.739 84.3994 49.7328 84.3569 49.71C83.7665 49.3162 83.0508 49.1564 82.3491 49.2617C81.6474 49.3669 81.01 49.7296 80.5611 50.2792C80.1123 50.8288 79.8842 51.5258 79.9212 52.2344C79.9583 52.943 80.2578 53.6124 80.7615 54.1121C81.2652 54.6119 81.9369 54.9062 82.6458 54.9377C83.3547 54.9692 84.0499 54.7356 84.5959 54.2825C85.1419 53.8294 85.4997 53.1892 85.5994 52.4867C85.6992 51.7841 85.5337 51.0697 85.1354 50.4824C85.1186 50.4616 85.1063 50.4375 85.0993 50.4116C85.0923 50.3858 85.0907 50.3588 85.0946 50.3323C85.0985 50.3058 85.1079 50.2804 85.1221 50.2577C85.1363 50.235 85.1551 50.2155 85.1772 50.2004C85.1993 50.1853 85.2243 50.1749 85.2506 50.1699C85.2769 50.1649 85.304 50.1654 85.3301 50.1714C85.3562 50.1774 85.3807 50.1887 85.4023 50.2046C85.4238 50.2205 85.4418 50.2407 85.4551 50.264C85.7859 50.7514 85.9776 51.3198 86.0097 51.908C86.0418 52.4962 85.913 53.0821 85.6371 53.6026C85.3613 54.1232 84.9488 54.5587 84.4441 54.8624C83.9394 55.1662 83.3614 55.3267 82.7723 55.3267V55.3277Z" fill="white"/>
<path d="M82.7723 53.2866C82.5981 53.2865 82.4261 53.2485 82.2681 53.1752C82.1101 53.102 81.9699 52.9953 81.8572 52.8625C81.7446 52.7297 81.6621 52.574 81.6156 52.4061C81.5691 52.2383 81.5597 52.0624 81.5879 51.8906C81.6162 51.7187 81.6814 51.5551 81.7792 51.411C81.877 51.2669 82.0049 51.1457 82.1542 51.056C82.3034 50.9662 82.4704 50.91 82.6435 50.8912C82.8166 50.8724 82.9918 50.8914 83.1568 50.947C83.1787 50.957 83.1961 50.9747 83.2057 50.9968C83.2153 51.0189 83.2163 51.0437 83.2086 51.0665C83.2009 51.0893 83.185 51.1085 83.164 51.1202C83.143 51.1319 83.1184 51.1355 83.0949 51.1301C82.8927 51.0618 82.6741 51.0594 82.4704 51.1233C82.2668 51.1872 82.0887 51.314 81.9618 51.4856C81.8348 51.6571 81.7656 51.8645 81.764 52.078C81.7625 52.2914 81.8287 52.4998 81.9531 52.6731C82.0776 52.8465 82.2538 52.9759 82.4565 53.0428C82.6591 53.1096 82.8778 53.1104 83.081 53.0451C83.2841 52.9797 83.4613 52.8516 83.587 52.6792C83.7127 52.5067 83.7805 52.2988 83.7805 52.0854C83.7805 51.991 83.7673 51.8972 83.7414 51.8064C83.7371 51.7827 83.7417 51.7583 83.7544 51.7378C83.7671 51.7174 83.787 51.7024 83.8101 51.6957C83.8332 51.6891 83.858 51.6912 83.8796 51.7018C83.9013 51.7124 83.9182 51.7307 83.9271 51.753C83.9785 51.9319 83.9876 52.1203 83.9537 52.3033C83.9198 52.4864 83.8439 52.659 83.732 52.8077C83.62 52.9564 83.475 53.077 83.3085 53.1601C83.1419 53.2432 82.9584 53.2865 82.7723 53.2866Z" fill="white"/>
<path d="M90.2445 46.0053C90.226 45.9616 90.1951 45.9242 90.1556 45.8979C90.116 45.8716 90.0697 45.8574 90.0222 45.8572L89.0331 45.8555V44.7004C89.0325 44.6529 89.0179 44.6066 88.9911 44.5673C88.9644 44.528 88.9268 44.4974 88.8828 44.4793C88.8389 44.4613 88.7906 44.4565 88.7439 44.4655C88.6973 44.4746 88.6543 44.4972 88.6204 44.5305L86.016 47.1767C85.9712 47.2219 85.9463 47.283 85.9465 47.3466L85.9448 48.5879L82.6007 51.9151C82.5629 51.9615 82.5437 52.0203 82.5467 52.0801C82.5497 52.1399 82.5746 52.1965 82.6168 52.239C82.6589 52.2815 82.7153 52.307 82.7751 52.3104C82.8348 52.3139 82.8938 52.2952 82.9406 52.2579L86.285 48.93H87.4826C87.5147 48.9299 87.5465 48.9234 87.5762 48.9109C87.6058 48.8984 87.6327 48.8801 87.6552 48.8571L90.1919 46.2682C90.2257 46.2345 90.2487 46.1916 90.2581 46.1448C90.2675 46.098 90.2628 46.0494 90.2445 46.0053ZM86.4306 47.4454L88.55 45.2916V45.9956L86.4299 48.1048L86.4306 47.4454ZM87.3835 48.4461H86.7732L88.8911 46.3386H89.4478L87.3835 48.4461Z" fill="white"/>
<path d="M86.5137 55.7301C87.2977 54.9272 87.8021 53.8931 87.9521 52.781C88.1021 51.6689 87.8897 50.538 87.3464 49.5562C87.3285 49.5218 87.304 49.4914 87.2741 49.4666C87.2443 49.4419 87.2099 49.4234 87.1728 49.4122C87.1357 49.4011 87.0968 49.3974 87.0583 49.4015C87.0198 49.4057 86.9825 49.4174 86.9486 49.4362C86.9148 49.455 86.885 49.4804 86.8611 49.5108C86.8372 49.5413 86.8196 49.5762 86.8094 49.6136C86.7993 49.651 86.7967 49.69 86.8018 49.7284C86.807 49.7667 86.8198 49.8037 86.8395 49.837C87.38 50.8147 87.55 51.9544 87.3185 53.0472C87.0869 54.14 86.4692 55.1128 85.5787 55.7872C84.6881 56.4616 83.5843 56.7924 82.4697 56.7191C81.355 56.6457 80.3041 56.1731 79.5096 55.3878C78.7151 54.6025 78.2302 53.5571 78.1439 52.4434C78.0575 51.3296 78.3755 50.2221 79.0395 49.3237C79.7034 48.4254 80.6689 47.7964 81.759 47.5521C82.8491 47.3078 83.9906 47.4646 84.9745 47.9937C85.0081 48.0133 85.0453 48.026 85.0838 48.031C85.1224 48.0359 85.1616 48.0331 85.199 48.0226C85.2365 48.0121 85.2715 47.9941 85.3018 47.9699C85.3322 47.9456 85.3574 47.9154 85.3759 47.8812C85.3944 47.847 85.4058 47.8094 85.4094 47.7706C85.4131 47.7319 85.4089 47.6929 85.3971 47.6558C85.3853 47.6187 85.3662 47.5844 85.3409 47.5549C85.3156 47.5253 85.2846 47.5012 85.2498 47.4839C84.1414 46.8865 82.8545 46.7095 81.626 46.9854C80.3974 47.2614 79.3099 47.9718 78.5635 48.9859C77.8171 50 77.462 51.2495 77.5637 52.5046C77.6653 53.7596 78.2168 54.9357 79.1167 55.8165L78.0065 57.1728C77.959 57.2325 77.9369 57.3084 77.945 57.3843C77.9531 57.4601 77.9907 57.5297 78.0497 57.578C78.1087 57.6263 78.1843 57.6494 78.2603 57.6424C78.3362 57.6353 78.4063 57.5987 78.4554 57.5404L79.5532 56.1988C80.4875 56.933 81.6447 57.3259 82.8329 57.3124C84.0211 57.2988 85.169 56.8796 86.0864 56.1243L87.2451 57.5404C87.296 57.5924 87.3646 57.6235 87.4373 57.6275C87.5099 57.6315 87.5815 57.6082 87.6378 57.5621C87.6942 57.516 87.7312 57.4505 87.7416 57.3784C87.7521 57.3064 87.7352 57.233 87.6942 57.1728L86.5137 55.7301Z" fill="white"/>
<path d="M52.4077 14.5067C52.224 14.5581 52.0616 14.667 51.9442 14.8174C51.8269 14.9679 51.7608 15.1519 51.7556 15.3426C51.7505 15.5334 51.8065 15.7207 51.9156 15.8773C52.0246 16.0338 52.1809 16.1514 52.3616 16.2126L52.046 18.2339C52.0028 18.2383 51.96 18.2458 51.9178 18.2563C51.7631 18.3002 51.6231 18.3852 51.5127 18.5023C51.4023 18.6194 51.3257 18.7641 51.291 18.9212L49.5586 18.8154C49.5144 18.6874 49.4416 18.5712 49.3458 18.4756C49.25 18.38 49.1336 18.3075 49.0056 18.2635C48.8776 18.2196 48.7412 18.2054 48.6069 18.222C48.4725 18.2386 48.3437 18.2856 48.2303 18.3594C48.1168 18.4332 48.0216 18.5319 47.952 18.648C47.8824 18.7641 47.8401 18.8945 47.8284 19.0293C47.8167 19.1642 47.8358 19.3 47.8844 19.4263C47.933 19.5526 48.0097 19.6663 48.1088 19.7585L47.6511 20.6825C47.5153 20.6545 47.3747 20.6589 47.2409 20.6954C47.0483 20.7485 46.879 20.8644 46.7597 21.0247C46.6405 21.185 46.5782 21.3805 46.5827 21.5802C46.5873 21.7799 46.6584 21.9724 46.7847 22.1271C46.9111 22.2819 47.0855 22.39 47.2803 22.4343C47.4751 22.4787 47.6791 22.4567 47.8599 22.3719C48.0408 22.2871 48.1882 22.1444 48.2787 21.9663C48.3693 21.7882 48.3977 21.585 48.3597 21.3889C48.3216 21.1928 48.2191 21.015 48.0685 20.8838L48.5171 19.9773C48.663 20.0135 48.8157 20.0116 48.9606 19.9719C49.1198 19.9268 49.2632 19.8384 49.3749 19.7164C49.4866 19.5945 49.5622 19.4439 49.5933 19.2815L51.3094 19.3866C51.3541 19.5299 51.4341 19.6595 51.5422 19.7636C51.6502 19.8677 51.7828 19.9429 51.9276 19.9822C52.0724 20.0215 52.2248 20.0236 52.3706 19.9884C52.5165 19.9532 52.6511 19.8818 52.762 19.7807C52.8729 19.6797 52.9566 19.5523 53.0052 19.4104C53.0539 19.2684 53.0659 19.1165 53.0403 18.9687C53.0146 18.8209 52.9521 18.6819 52.8586 18.5646C52.765 18.4473 52.6433 18.3556 52.5049 18.2978L52.8251 16.2386C52.8462 16.2345 52.8673 16.2335 52.8884 16.2277C53.1146 16.162 53.3058 16.0097 53.4202 15.8039C53.5347 15.598 53.5633 15.3553 53.4998 15.1285C53.4363 14.9017 53.2858 14.7091 53.0811 14.5927C52.8764 14.4762 52.6339 14.4453 52.4065 14.5067H52.4077ZM47.5989 21.9704C47.517 21.9934 47.43 21.9915 47.3491 21.9651C47.2682 21.9386 47.1969 21.8888 47.1443 21.8218C47.0917 21.7549 47.0602 21.6738 47.0536 21.5889C47.0471 21.5041 47.0659 21.4191 47.1076 21.3449C47.1494 21.2707 47.2122 21.2106 47.2881 21.1721C47.3641 21.1336 47.4497 21.1184 47.5342 21.1286C47.6188 21.1388 47.6984 21.1738 47.763 21.2292C47.8276 21.2846 47.8744 21.358 47.8973 21.44C47.9279 21.5499 47.9137 21.6674 47.8578 21.7669C47.8019 21.8663 47.7088 21.9395 47.5989 21.9704ZM48.8371 19.526C48.7551 19.5489 48.6681 19.5471 48.5872 19.5206C48.5063 19.4942 48.435 19.4443 48.3824 19.3774C48.3298 19.3104 48.2983 19.2294 48.2918 19.1445C48.2852 19.0596 48.304 18.9747 48.3458 18.9005C48.3875 18.8263 48.4503 18.7661 48.5263 18.7276C48.6022 18.6891 48.6878 18.674 48.7724 18.6841C48.8569 18.6943 48.9365 18.7293 49.0011 18.7848C49.0658 18.8402 49.1125 18.9135 49.1354 18.9955C49.1658 19.1053 49.1514 19.2226 49.0955 19.3218C49.0396 19.421 48.9467 19.4941 48.8371 19.525V19.526ZM52.2759 19.5313C52.1939 19.5543 52.107 19.5525 52.026 19.5261C51.9451 19.4997 51.8738 19.4499 51.8212 19.3829C51.7685 19.316 51.737 19.235 51.7304 19.1501C51.7238 19.0652 51.7426 18.9802 51.7843 18.906C51.826 18.8318 51.8888 18.7716 51.9648 18.7331C52.0407 18.6945 52.1263 18.6794 52.2109 18.6895C52.2954 18.6997 52.375 18.7347 52.4397 18.7901C52.5043 18.8455 52.5511 18.9189 52.574 19.0008C52.6047 19.1107 52.5905 19.2283 52.5346 19.3277C52.4787 19.4271 52.3857 19.5003 52.2759 19.5313ZM52.7646 15.7817C52.6826 15.8047 52.5957 15.8028 52.5148 15.7764C52.4338 15.7499 52.3626 15.7001 52.31 15.6331C52.2574 15.5662 52.2258 15.4851 52.2193 15.4002C52.2128 15.3154 52.2316 15.2304 52.2733 15.1562C52.3151 15.082 52.3779 15.0219 52.4538 14.9834C52.5297 14.9448 52.6154 14.9297 52.6999 14.9399C52.7844 14.9501 52.864 14.9851 52.9287 15.0405C52.9933 15.0959 53.04 15.1693 53.063 15.2513C53.0936 15.3612 53.0794 15.4787 53.0235 15.5782C52.9675 15.6776 52.8744 15.7508 52.7646 15.7817Z" fill="white"/>
<path d="M54.1313 12.4976L49.1174 13.9013L48.8884 13.0834C48.8618 12.9968 48.8023 12.924 48.7227 12.8806C48.6431 12.8372 48.5498 12.8266 48.4625 12.851C48.3752 12.8754 48.3009 12.933 48.2554 13.0114C48.21 13.0899 48.1969 13.1829 48.2191 13.2708L48.4481 14.0885L43.4341 15.4922C43.1377 15.5759 42.8865 15.7736 42.7355 16.042C42.5844 16.3104 42.5457 16.6277 42.6279 16.9245L44.436 23.3837C44.5198 23.6801 44.7174 23.9313 44.9859 24.0824C45.2543 24.2334 45.5715 24.2721 45.8684 24.1899L48.5945 23.4269L47.6341 26.7749C47.6202 26.8191 47.6154 26.8656 47.6198 26.9117C47.6242 26.9578 47.6378 27.0026 47.6598 27.0433C47.6817 27.0841 47.7116 27.1201 47.7477 27.1491C47.7837 27.1782 47.8252 27.1997 47.8697 27.2125C47.9142 27.2253 47.9608 27.2291 48.0068 27.2236C48.0528 27.2181 48.0972 27.2035 48.1374 27.1806C48.1777 27.1577 48.2129 27.1269 48.2411 27.0902C48.2693 27.0535 48.2899 27.0115 48.3017 26.9667L49.382 23.2077L50.8838 22.7874L51.6279 25.4455C51.6527 25.5343 51.7118 25.6095 51.7921 25.6546C51.8724 25.6998 51.9674 25.7112 52.0561 25.6864C52.1448 25.6615 52.2201 25.6024 52.2652 25.5221C52.3104 25.4418 52.3218 25.3468 52.2969 25.2581L51.5529 22.6L53.0692 22.1757L55.9441 24.8274C55.9877 24.8677 56.0408 24.896 56.0985 24.9099C56.1562 24.9237 56.2164 24.9226 56.2735 24.9066C56.3356 24.8894 56.3915 24.8551 56.435 24.8075C56.4974 24.7398 56.5305 24.6501 56.5268 24.558C56.5231 24.466 56.483 24.3791 56.4153 24.3166L53.8555 21.9555L56.5668 21.1966C56.8632 21.1129 57.1145 20.9152 57.2656 20.6468C57.4167 20.3784 57.4554 20.0611 57.3733 19.7642L55.5651 13.3051C55.4817 13.0081 55.2839 12.7564 55.0151 12.605C54.7463 12.4537 54.4285 12.415 54.1313 12.4976ZM56.7047 19.9507C56.738 20.0702 56.7226 20.198 56.6617 20.3061C56.6009 20.4143 56.4996 20.4938 56.3801 20.5272L45.6832 23.5218C45.5636 23.5552 45.4357 23.5397 45.3276 23.4789C45.2194 23.418 45.1398 23.3167 45.1063 23.1972L43.2982 16.7383C43.2649 16.6188 43.2803 16.4909 43.3412 16.3827C43.402 16.2745 43.5033 16.1949 43.6228 16.1613L54.3185 13.1669C54.438 13.1336 54.5659 13.149 54.6741 13.2099C54.7822 13.2707 54.8618 13.372 54.8953 13.4915L56.7047 19.9507Z" fill="white"/>
<path d="M28.5707 73.1942H24.2552C24.1833 73.1942 24.1143 73.1656 24.0635 73.1148C24.0127 73.0639 23.9841 72.995 23.984 72.9231V68.6074C23.984 68.5354 24.0126 68.4664 24.0634 68.4155C24.1143 68.3646 24.1832 68.336 24.2552 68.3359C25.4718 68.337 26.6382 68.8208 27.4984 69.681C28.3587 70.5413 28.8424 71.7077 28.8435 72.9243C28.8434 72.9599 28.8362 72.9952 28.8224 73.0281C28.8086 73.061 28.7884 73.0908 28.7631 73.1159C28.7377 73.1409 28.7077 73.1608 28.6747 73.1742C28.6417 73.1877 28.6063 73.1945 28.5707 73.1942ZM24.5261 72.6517H28.2903C28.2231 71.6756 27.8049 70.7569 27.113 70.0652C26.4211 69.3735 25.5022 68.9556 24.5261 68.8887V72.6517Z" fill="white"/>
<path d="M27.6385 76.9493C27.6023 76.9493 27.5664 76.9419 27.5331 76.9278C27.4997 76.9137 27.4695 76.893 27.4443 76.867L24.5505 73.8827C24.5134 73.8444 24.4884 73.7962 24.4785 73.7438C24.4687 73.6915 24.4745 73.6374 24.4952 73.5883C24.5159 73.5392 24.5506 73.4974 24.595 73.4679C24.6394 73.4384 24.6914 73.4227 24.7447 73.4226H29.0252C29.0968 73.4226 29.1655 73.4509 29.2163 73.5013C29.2671 73.5518 29.2959 73.6203 29.2964 73.6918C29.2964 73.7768 29.2964 75.7867 27.8 76.8964C27.7532 76.931 27.6966 76.9495 27.6385 76.9493ZM25.3856 73.9652L27.6601 76.3109C28.4855 75.5755 28.6878 74.4704 28.7375 73.9652H25.3856Z" fill="white"/>
<path d="M23.4563 78.2916C22.235 78.2916 21.0638 77.8065 20.2002 76.9429C19.3366 76.0793 18.8514 74.9081 18.8514 73.6868C18.8514 72.4655 19.3366 71.2942 20.2002 70.4306C21.0638 69.5671 22.235 69.0819 23.4563 69.0819H23.5088C23.5807 69.082 23.6497 69.1106 23.7006 69.1615C23.7515 69.2124 23.7801 69.2814 23.7802 69.3533V73.5729L26.9015 76.643C26.9519 76.6925 26.981 76.7597 26.9826 76.8304C26.9842 76.901 26.9581 76.9695 26.91 77.0212C26.8621 77.0729 25.7036 78.2916 23.4563 78.2916ZM23.2378 69.6303C22.1807 69.687 21.1875 70.1541 20.4696 70.9322C19.7518 71.7102 19.366 72.7378 19.3945 73.7961C19.423 74.8543 19.8634 75.8596 20.6221 76.598C21.3808 77.3363 22.3977 77.7493 23.4563 77.7491C24.4861 77.7734 25.4937 77.4482 26.3149 76.8265L23.3187 73.8812C23.2928 73.8559 23.2724 73.8257 23.2584 73.7923C23.2445 73.759 23.2374 73.7232 23.2376 73.687L23.2378 69.6303Z" fill="white"/>
<path d="M22.8162 69.673L19.4684 72.9178C19.5455 72.5142 19.6848 72.125 19.8811 71.7639L21.6499 70.0493C22.0174 69.8656 22.4106 69.7387 22.8162 69.673Z" fill="white"/>
<path d="M23.2376 69.9863V70.7426L19.4594 74.4014C19.4174 74.1728 19.3956 73.9409 19.3943 73.7085L23.2376 69.9863Z" fill="white"/>
<path d="M23.2376 71.46V72.216L19.832 75.515C19.7427 75.342 19.667 75.1624 19.6057 74.9777L23.2376 71.46Z" fill="white"/>
<path d="M23.2376 72.9346V73.6906L20.4396 76.4016C20.3173 76.2665 20.2043 76.1233 20.1014 75.9728L23.2376 72.9346Z" fill="white"/>
<path d="M23.9374 74.4881L21.2463 77.0925C21.0931 76.9932 20.9471 76.8832 20.8093 76.7633L23.5492 74.1064L23.9374 74.4881Z" fill="white"/>
<path d="M24.6922 75.2288L22.274 77.5728C22.0835 77.5151 21.8978 77.4425 21.7188 77.3557L24.3038 74.8489L24.6922 75.2288Z" fill="white"/>
<path d="M25.4477 75.972L23.6172 77.7442C23.5647 77.7478 23.5106 77.7478 23.4562 77.7478C23.2625 77.7478 23.0691 77.7339 22.8774 77.7063L25.0604 75.592L25.4477 75.972Z" fill="white"/>
<path d="M26.2018 76.7139L25.6556 77.2456H25.6539C25.2748 77.4377 24.8705 77.5753 24.4529 77.6544L25.8165 76.334L26.2018 76.7139Z" fill="white"/>
<path d="M30.8212 32.7222L31.0338 31.5343C33.0756 30.3682 34.6311 28.5081 35.4175 26.2922C35.4626 26.1647 35.4773 26.0285 35.4606 25.8944C35.4438 25.7603 35.396 25.6319 35.321 25.5194C35.246 25.4069 35.1458 25.3135 35.0284 25.2465C34.911 25.1795 34.7795 25.1408 34.6446 25.1335C32.2966 25.0077 29.9814 25.7288 28.1201 27.1657L26.942 26.9057C26.8488 26.8853 26.7525 26.8838 26.6588 26.9014C26.5651 26.919 26.4759 26.9552 26.3964 27.0079L23.8102 28.7316C23.679 28.8173 23.5804 28.9446 23.5302 29.093C23.48 29.2414 23.481 29.4024 23.5332 29.5502C23.5534 29.6095 23.5812 29.666 23.616 29.7182C23.6851 29.8219 23.7807 29.9052 23.8929 29.9595C24.0051 30.0138 24.1298 30.0371 24.254 30.027L25.7468 29.9189C25.6314 30.0093 25.5542 30.1399 25.5308 30.2846C25.5073 30.4293 25.5393 30.5775 25.6203 30.6997L25.6538 30.7499L23.4223 31.8072C23.3014 31.5773 23.128 31.3792 22.9162 31.2288C22.7044 31.0784 22.4601 30.98 22.2032 30.9417C21.9463 30.9033 21.684 30.926 21.4375 31.008C21.191 31.0899 20.9673 31.2288 20.7845 31.4133C20.6017 31.5979 20.4649 31.8229 20.3853 32.0701C20.3057 32.3174 20.2855 32.5799 20.3263 32.8365C20.3671 33.093 20.4678 33.3363 20.6201 33.5467C20.7725 33.757 20.9723 33.9285 21.2033 34.0473C21.2152 34.3123 21.3007 34.5689 21.4502 34.7881C21.5998 35.0073 21.8074 35.1805 22.0499 35.2883C22.0667 35.5788 22.1608 35.8596 22.3225 36.1016C22.5676 36.4637 22.946 36.7142 23.3751 36.7985C23.8042 36.8827 24.2492 36.7938 24.613 36.5512C24.9768 36.3086 25.2299 35.9319 25.3171 35.5034C25.4042 35.0749 25.3183 34.6293 25.0782 34.2638C25.0363 34.2021 24.9901 34.1434 24.9398 34.0883L26.7757 32.4323L26.8092 32.4826C26.8908 32.6043 27.0154 32.6908 27.158 32.7248C27.3006 32.7587 27.4507 32.7377 27.5785 32.6659L26.9053 34.0023C26.8482 34.1131 26.8218 34.2371 26.8288 34.3616C26.8357 34.486 26.8758 34.6063 26.9449 34.71C26.9797 34.7622 27.0213 34.8096 27.0684 34.8511C27.1848 34.956 27.3331 35.0189 27.4894 35.0296C27.6457 35.0403 27.8012 34.9982 27.9308 34.9101L30.5167 33.1864C30.596 33.1333 30.6637 33.0649 30.716 32.9852C30.7683 32.9054 30.8041 32.816 30.8212 32.7222ZM34.6152 25.6894C34.6629 25.6939 34.709 25.709 34.7501 25.7336C34.7913 25.7582 34.8264 25.7917 34.853 25.8316C34.8796 25.8714 34.8969 25.9167 34.9038 25.9642C34.9107 26.0116 34.9069 26.06 34.8927 26.1057C34.7686 26.4521 34.6242 26.7909 34.4603 27.1203L33.512 25.6989C33.8793 25.674 34.2476 25.6708 34.6152 25.6894ZM32.8847 25.7622L34.161 27.676C33.3246 29.1276 32.104 30.3205 30.6335 31.1233L30.6316 31.1245C30.4374 31.2315 30.2372 31.3319 30.0312 31.4258C29.964 31.4567 29.8933 31.4834 29.8251 31.5127C29.685 31.5732 29.5447 31.6341 29.4 31.6887C29.316 31.7205 29.2286 31.748 29.1429 31.7778C29.0101 31.824 28.8773 31.8706 28.7409 31.9121C28.6467 31.9407 28.5498 31.9653 28.4539 31.9915C28.3539 32.0189 28.2534 32.0456 28.1517 32.0704L26.5173 29.6199C26.5797 29.5351 26.6431 29.4523 26.7069 29.3703C26.7679 29.2921 26.8283 29.2125 26.8902 29.1365C26.9808 29.0268 27.0747 28.9221 27.1687 28.8173C27.2292 28.7495 27.2884 28.6794 27.3503 28.6136C27.4552 28.5021 27.5642 28.397 27.6729 28.2919C27.7278 28.239 27.7805 28.1826 27.8363 28.1314C27.9972 27.9827 28.1618 27.8408 28.3301 27.7058C28.3352 27.7015 28.3403 27.6966 28.3454 27.6925C29.6521 26.6436 31.2228 25.9755 32.8847 25.7617V25.7622ZM24.2139 29.4727C24.1807 29.475 24.1476 29.4663 24.1199 29.4479C24.0921 29.4295 24.0712 29.4024 24.0604 29.3708C24.0496 29.3393 24.0495 29.3051 24.0602 29.2735C24.0708 29.2419 24.0916 29.2148 24.1193 29.1962L26.7055 27.4725C26.7225 27.4613 26.7415 27.4536 26.7616 27.4499C26.7816 27.4461 26.8021 27.4464 26.822 27.4507L27.5746 27.6168C27.5482 27.641 27.5231 27.6653 27.4969 27.6896C27.4467 27.7355 27.3976 27.7835 27.3479 27.8306C27.2315 27.9413 27.1172 28.0553 27.0048 28.1725C26.9546 28.2249 26.9041 28.2771 26.8546 28.331C26.7269 28.4698 26.6021 28.613 26.4802 28.7604C26.4545 28.791 26.4278 28.8202 26.4025 28.8515C26.2736 29.0105 26.1474 29.1736 26.0253 29.3421L24.2139 29.4727ZM24.311 36.0982C24.1409 36.2124 23.9421 36.2767 23.7373 36.2836C23.5324 36.2906 23.3297 36.2399 23.1522 36.1374C22.9747 36.035 22.8295 35.8847 22.7331 35.7039C22.6367 35.523 22.5929 35.3187 22.6068 35.1142L22.6204 34.8957L22.4099 34.8316C22.2083 34.7762 22.0327 34.6513 21.9143 34.479C21.7958 34.3067 21.742 34.098 21.7624 33.8899L21.778 33.6809L21.5818 33.6081C21.4061 33.543 21.2499 33.4341 21.1282 33.2916C21.0064 33.1491 20.9232 32.9778 20.8864 32.7941C20.8496 32.6104 20.8604 32.4202 20.9178 32.2419C20.9752 32.0635 21.0773 31.9027 21.2144 31.775C21.3515 31.6472 21.5191 31.5567 21.7011 31.512C21.883 31.4673 22.0734 31.4699 22.2541 31.5196C22.4348 31.5693 22.5998 31.6644 22.7334 31.7958C22.8669 31.9273 22.9646 32.0908 23.0171 32.2707L23.0817 32.4906L23.3099 32.47C23.3269 32.4683 23.346 32.4671 23.3659 32.4666C23.4145 32.4651 23.4631 32.4661 23.5116 32.4697C23.6631 32.4742 23.8115 32.5136 23.9452 32.5849C24.0789 32.6562 24.1943 32.7574 24.2824 32.8807C24.3731 33.0311 24.4236 33.2023 24.4291 33.3778C24.4346 33.5534 24.3949 33.7274 24.3137 33.8831L24.1681 34.1633L24.3586 34.307C24.4998 34.4118 24.6137 34.5491 24.6906 34.7073C24.7675 34.8654 24.8051 35.0398 24.8004 35.2156C24.7956 35.3914 24.7486 35.5634 24.6632 35.7172C24.5779 35.871 24.4567 36.0019 24.3101 36.0989L24.311 36.0982ZM24.9864 33.2981C24.9864 33.2908 24.9843 33.284 24.984 33.2769C24.9816 33.2398 24.9762 33.2041 24.9711 33.167C24.9675 33.1412 24.9648 33.115 24.96 33.0895C24.9527 33.0519 24.942 33.0152 24.9318 32.9783C24.9253 32.9541 24.9204 32.9315 24.9126 32.9084C24.8993 32.8684 24.8823 32.8298 24.8641 32.7909C24.8561 32.7725 24.8498 32.7533 24.8398 32.7351C24.8123 32.6783 24.7809 32.6235 24.7459 32.571C24.7109 32.5188 24.6725 32.4689 24.631 32.4217C24.6174 32.4064 24.6021 32.393 24.5881 32.3784C24.5592 32.3481 24.53 32.3178 24.4985 32.2901C24.4803 32.2743 24.4604 32.2605 24.4414 32.2454C24.4116 32.2211 24.3817 32.1981 24.3499 32.1769C24.3288 32.1629 24.3062 32.1507 24.2843 32.1376C24.2521 32.1184 24.22 32.0995 24.186 32.0828C24.1792 32.0791 24.1732 32.0747 24.1661 32.0716L25.9646 31.2195L26.462 31.9653L24.9864 33.2981ZM27.3107 32.1813C27.3078 32.1833 27.3045 32.1847 27.301 32.1854C27.2975 32.1861 27.2939 32.1861 27.2904 32.1854C27.287 32.1847 27.2837 32.1833 27.2807 32.1813C27.2778 32.1793 27.2753 32.1768 27.2733 32.1738L27.1944 32.0558L26.1634 30.5094L26.0845 30.3911C26.0825 30.3882 26.0811 30.3849 26.0804 30.3814C26.0797 30.3779 26.0797 30.3743 26.0804 30.3709C26.0811 30.3674 26.0825 30.3641 26.0845 30.3611C26.0865 30.3582 26.089 30.3557 26.092 30.3537L26.262 30.2401L27.4807 32.0677L27.3107 32.1813ZM27.6222 34.4471C27.5944 34.4655 27.5613 34.4742 27.528 34.4718C27.4948 34.4694 27.4632 34.4561 27.4383 34.434C27.4134 34.4118 27.3965 34.3821 27.3902 34.3493C27.384 34.3166 27.3887 34.2827 27.4037 34.2529L28.2209 32.6309C28.4221 32.5824 28.62 32.5297 28.8154 32.4722C28.8513 32.4615 28.8861 32.4479 28.9217 32.4379C29.1056 32.3816 29.2868 32.321 29.4653 32.2561C29.5347 32.2318 29.6032 32.2039 29.6719 32.1774C29.8203 32.12 29.9669 32.0592 30.1118 31.9951C30.1783 31.966 30.2451 31.9371 30.3109 31.9065C30.3436 31.8912 30.3774 31.8779 30.4099 31.8623L30.2737 32.6227C30.2701 32.6428 30.2625 32.6619 30.2513 32.679C30.2402 32.696 30.2256 32.7107 30.2087 32.722L27.6222 34.4471Z" fill="white"/>
<path d="M30.9901 28.4077C31.1361 28.6267 31.3438 28.7975 31.5868 28.8984C31.8299 28.9994 32.0974 29.026 32.3556 28.9749C32.6138 28.9238 32.851 28.7973 33.0373 28.6114C33.2236 28.4255 33.3505 28.1885 33.4021 27.9304C33.4537 27.6723 33.4276 27.4047 33.3271 27.1615C33.2266 26.9183 33.0562 26.7103 32.8375 26.5639C32.6188 26.4175 32.3616 26.3392 32.0984 26.339C31.8352 26.3388 31.5778 26.4166 31.3589 26.5627C31.0657 26.7587 30.8622 27.0631 30.7931 27.4089C30.7239 27.7548 30.7948 28.114 30.9901 28.4077ZM32.7408 27.2402C32.8256 27.3675 32.8708 27.5171 32.8707 27.67C32.8705 27.823 32.825 27.9725 32.7399 28.0996C32.6548 28.2267 32.5339 28.3257 32.3925 28.3841C32.2512 28.4426 32.0956 28.4577 31.9456 28.4278C31.7956 28.3978 31.6579 28.324 31.5498 28.2158C31.4417 28.1075 31.3682 27.9696 31.3385 27.8196C31.3087 27.6695 31.3242 27.514 31.3828 27.3727C31.4415 27.2315 31.5407 27.1108 31.6679 27.0259C31.8387 26.9123 32.0476 26.871 32.2487 26.9112C32.4498 26.9514 32.6268 27.0697 32.7408 27.2402Z" fill="white"/>
<path d="M73.8121 33.8706L73.7097 33.8507L73.4861 33.8068L73.3836 33.7866C70.2147 33.1644 69.1427 32.9323 69.0453 30.8518C68.9426 28.6537 71.0775 26.9864 73.2392 26.3093L73.4077 26.2566L73.4992 26.4078C73.5129 26.4303 73.5311 26.4496 73.5527 26.4647C73.5744 26.4797 73.5989 26.49 73.6247 26.495L76.3459 27.0291C76.3715 27.0341 76.3979 27.0338 76.4233 27.028C76.4488 27.0223 76.4728 27.0113 76.4938 26.9958L76.6353 26.8902L76.7712 27.0029C78.5192 28.4459 79.8651 30.7962 78.9382 32.7939C78.0613 34.6832 76.9808 34.4928 73.8121 33.8706ZM73.6847 33.3875L73.7963 33.4093C77.1536 34.0619 77.8152 34.1457 78.5304 32.6048C79.3315 30.877 78.1079 28.7447 76.5979 27.4447C76.4895 27.4837 76.3725 27.4926 76.2595 27.4704L73.538 26.9363C73.4247 26.914 73.3194 26.8615 73.2333 26.7844C71.3441 27.4187 69.4056 28.9297 69.4947 30.8309C69.5738 32.524 70.207 32.7048 73.5504 33.3613L73.573 33.3659L73.6847 33.3875Z" fill="white"/>
<path d="M76.555 26.6815L73.5626 26.094L73.5216 25.9685C73.4102 25.6271 73.1771 24.7988 73.4226 24.4837C73.6811 24.1477 74.1098 24.3815 74.316 24.4939C74.349 24.5116 74.3902 24.5342 74.4189 24.548C74.4475 24.5344 74.4917 24.5101 74.5255 24.4907C74.6602 24.3922 74.8139 24.3227 74.9768 24.2865C75.1397 24.2503 75.3084 24.2482 75.4721 24.2804C75.6359 24.3126 75.7912 24.3783 75.9283 24.4734C76.0654 24.5686 76.1814 24.6911 76.2688 24.8333C76.2931 24.8641 76.3244 24.9034 76.346 24.9267C76.3761 24.9248 76.4247 24.9192 76.4628 24.9151C76.6958 24.8908 77.1814 24.8352 77.2935 25.245C77.3996 25.6283 76.8721 26.3069 76.6402 26.5802L76.555 26.6815ZM73.9103 25.7041L76.3802 26.1896C76.6521 25.848 76.8721 25.4717 76.8592 25.361C76.7443 25.3412 76.6268 25.3417 76.5121 25.3625C76.4209 25.3784 76.3279 25.3806 76.236 25.3691C76.1018 25.326 75.9881 25.2351 75.9165 25.1137C75.8624 25.0132 75.7867 24.9261 75.6948 24.8584C75.6029 24.7907 75.4972 24.7442 75.3853 24.7222C75.2733 24.7002 75.1579 24.7033 75.0472 24.7312C74.9366 24.7592 74.8335 24.8113 74.7454 24.8838C74.6331 24.969 74.4935 25.0102 74.3529 24.9996C74.2639 24.9753 74.179 24.9382 74.1009 24.8893C74.028 24.8498 73.8338 24.7437 73.7753 24.7599C73.7255 24.8544 73.7874 25.2853 73.9103 25.7041Z" fill="white"/>
<path d="M76.2595 27.4707L73.538 26.9366C73.3711 26.9051 73.2235 26.8086 73.1278 26.6683C73.032 26.5279 72.996 26.3553 73.0275 26.1884C73.059 26.0215 73.1555 25.8739 73.2959 25.7782C73.4362 25.6824 73.6088 25.6464 73.7757 25.6779L76.5122 26.2151C76.6772 26.2499 76.8219 26.348 76.9152 26.4884C77.0086 26.6288 77.0431 26.8002 77.0113 26.9658C76.9779 27.1322 76.88 27.2787 76.7391 27.3733C76.5981 27.468 76.4255 27.5031 76.2588 27.471L76.2595 27.4707ZM76.4224 26.6555L73.6922 26.1195C73.6675 26.115 73.6422 26.1155 73.6177 26.1209C73.5932 26.1262 73.57 26.1363 73.5494 26.1506C73.5079 26.1796 73.4795 26.2238 73.4705 26.2736C73.4616 26.3235 73.4728 26.3748 73.5017 26.4164C73.5306 26.4579 73.5749 26.4863 73.6247 26.4953L76.3459 27.0294C76.3715 27.0344 76.3979 27.0341 76.4233 27.0283C76.4488 27.0226 76.4728 27.0116 76.4938 26.9961C76.5336 26.9686 76.561 26.9265 76.57 26.8789C76.5795 26.8297 76.5694 26.7788 76.5418 26.7371C76.5142 26.6953 76.4713 26.666 76.4224 26.6555Z" fill="white"/>
<path d="M73.7044 32.8876L73.8125 32.3382C73.4812 32.269 73.1709 32.1225 72.9069 31.9107C72.8824 31.8881 72.8665 31.8577 72.8621 31.8246C72.8577 31.7916 72.8649 31.7581 72.8826 31.7298L72.9878 31.5538C72.9981 31.536 73.0122 31.5206 73.0291 31.5087C73.0459 31.4968 73.0651 31.4887 73.0854 31.4848C73.1056 31.481 73.1265 31.4816 73.1465 31.4865C73.1665 31.4915 73.1853 31.5007 73.2014 31.5135C73.4361 31.7025 73.7128 31.8322 74.0081 31.8918C74.4951 31.9874 74.8794 31.7704 74.9549 31.3798C75.0278 31.0025 74.8073 30.7167 74.34 30.4111C73.6945 29.9996 73.324 29.599 73.4417 29.003C73.5534 28.4337 74.0428 28.0805 74.6942 28.1019L74.802 27.5525C74.8056 27.5336 74.813 27.5156 74.8236 27.4996C74.8342 27.4836 74.8478 27.4698 74.8638 27.4591C74.8798 27.4484 74.8977 27.4409 74.9165 27.4371C74.9354 27.4334 74.9548 27.4334 74.9736 27.4372L75.1125 27.4646C75.1313 27.4682 75.1493 27.4756 75.1653 27.4861C75.1813 27.4967 75.1951 27.5104 75.2058 27.5263C75.2165 27.5422 75.224 27.5601 75.2277 27.579C75.2315 27.5978 75.2315 27.6172 75.2278 27.636L75.1254 28.1579C75.3923 28.2141 75.6442 28.3264 75.8644 28.4874C75.8942 28.5092 75.9146 28.5415 75.9215 28.5778C75.9284 28.6141 75.9212 28.6516 75.9015 28.6828L75.7966 28.8528C75.7862 28.8697 75.7724 28.8844 75.756 28.8958C75.7397 28.9072 75.7212 28.9152 75.7017 28.9191C75.6822 28.9231 75.662 28.9231 75.6425 28.9189C75.623 28.9148 75.6046 28.9068 75.5883 28.8952C75.3822 28.7417 75.1436 28.6373 74.8908 28.5903C74.3623 28.4867 74.1016 28.7632 74.0477 29.0375C73.9778 29.3941 74.1963 29.6223 74.7449 29.9865C75.3951 30.4135 75.6813 30.8403 75.5616 31.4509C75.4985 31.7436 75.3297 32.0027 75.0874 32.1786C74.8452 32.3546 74.5466 32.435 74.2487 32.4045L74.1368 32.9745C74.1331 32.9933 74.1258 33.0113 74.1152 33.0273C74.1046 33.0432 74.0909 33.057 74.075 33.0677C74.0591 33.0784 74.0412 33.0858 74.0224 33.0896C74.0036 33.0933 73.9842 33.0933 73.9654 33.0896L73.8197 33.0612C73.8007 33.0576 73.7825 33.0502 73.7663 33.0394C73.7501 33.0287 73.7363 33.0148 73.7255 32.9987C73.7148 32.9825 73.7074 32.9643 73.7038 32.9453C73.7001 32.9262 73.7004 32.9066 73.7044 32.8876Z" fill="white"/>
<path d="M17.2054 45.1204C16.9541 44.9127 16.637 44.8014 16.311 44.8063C16.1278 44.8007 15.9453 44.8314 15.774 44.8964C15.6027 44.9614 15.4458 45.0596 15.3125 45.1853C15.1184 45.3686 14.9869 45.6082 14.9364 45.8704C14.9291 45.905 14.9296 45.9409 14.9379 45.9754C14.9462 46.0098 14.962 46.042 14.9843 46.0696C15.0065 46.0972 15.0347 46.1194 15.0666 46.1348C15.0986 46.1501 15.1335 46.1582 15.169 46.1583H15.1908C15.244 46.1572 15.2952 46.1376 15.3354 46.1028C15.3756 46.068 15.4024 46.0202 15.411 45.9677C15.4411 45.7975 15.5265 45.6418 15.6538 45.5249C15.8356 45.3653 16.072 45.282 16.3137 45.2921C16.5 45.2891 16.6819 45.3489 16.83 45.462C16.9076 45.5153 16.971 45.5866 17.0148 45.6699C17.0585 45.7532 17.0813 45.846 17.0811 45.94C17.0896 46.142 17.0216 46.3397 16.8905 46.4936C16.7448 46.6264 16.5872 46.7453 16.4195 46.849C16.2491 46.9523 16.1016 47.0892 15.9859 47.2515C15.8448 47.4885 15.7764 47.7618 15.7893 48.0373V48.1956C15.7895 48.2583 15.8147 48.3183 15.8591 48.3625C15.9036 48.4066 15.9638 48.4313 16.0265 48.4311H16.0459C16.1086 48.4309 16.1686 48.4059 16.2128 48.3614C16.257 48.317 16.2817 48.2568 16.2816 48.1942V48.0359C16.276 47.8209 16.3484 47.6112 16.4853 47.4455C16.6294 47.2909 16.7907 47.1535 16.9662 47.0359C17.1369 46.92 17.2898 46.7799 17.4202 46.62C17.5559 46.4205 17.6248 46.183 17.6168 45.9417C17.617 45.7823 17.5798 45.625 17.5084 45.4824C17.4369 45.3398 17.3332 45.2158 17.2054 45.1204Z" fill="white"/>
<path d="M16.0521 48.9032H16.0167C15.9342 48.9035 15.8551 48.9366 15.797 48.9951C15.7388 49.0537 15.7062 49.1329 15.7064 49.2154C15.7065 49.2563 15.7147 49.2967 15.7305 49.3344C15.7462 49.3721 15.7693 49.4064 15.7983 49.4352C15.8273 49.464 15.8616 49.4868 15.8994 49.5023C15.9373 49.5179 15.9778 49.5258 16.0186 49.5257H16.0541C16.0949 49.5255 16.1354 49.5174 16.1731 49.5016C16.2108 49.4858 16.2451 49.4628 16.2739 49.4338C16.3027 49.4048 16.3255 49.3704 16.341 49.3326C16.3565 49.2948 16.3645 49.2543 16.3643 49.2135C16.3642 49.1726 16.356 49.1321 16.3403 49.0944C16.3245 49.0567 16.3015 49.0225 16.2725 48.9937C16.2435 48.9649 16.2091 48.942 16.1713 48.9265C16.1335 48.911 16.093 48.9031 16.0521 48.9032Z" fill="white"/>
<path d="M16.3652 51.4722C15.3413 51.4724 14.3465 51.1318 13.5375 50.5043C12.7285 49.8768 12.1513 48.998 11.8968 48.0063C11.6422 47.0146 11.7249 45.9664 12.1317 45.0268C12.5385 44.0873 13.2464 43.3098 14.1437 42.8168C15.0411 42.3238 16.077 42.1435 17.0881 42.3041C18.0993 42.4647 19.0283 42.9571 19.7288 43.7038C20.4292 44.4506 20.8614 45.4091 20.957 46.4285C21.0527 47.4479 20.8065 48.4701 20.2573 49.3341C20.6945 49.7737 21.1871 50.1545 21.7226 50.4669C21.7653 50.4912 21.7989 50.5288 21.8183 50.5739C21.8377 50.6191 21.8419 50.6693 21.8302 50.717C21.8185 50.7647 21.7916 50.8073 21.7535 50.8384C21.7154 50.8694 21.6683 50.8872 21.6192 50.8891C20.7996 50.9282 19.9813 50.789 19.2206 50.4812C18.407 51.1226 17.4012 51.4716 16.3652 51.4722ZM16.3652 42.6987C15.6962 42.6985 15.037 42.8596 14.4435 43.1683C13.85 43.477 13.3397 43.9243 12.9558 44.4722C12.572 45.0202 12.3259 45.6526 12.2385 46.3158C12.151 46.9791 12.2248 47.6537 12.4536 48.2823C12.6824 48.911 13.0593 49.4753 13.5526 49.9272C14.0458 50.3792 14.6407 50.7056 15.287 50.8787C15.9332 51.0518 16.6116 51.0666 17.2647 50.9217C17.9179 50.7768 18.5264 50.4766 19.0388 50.0464C19.0712 50.019 19.1108 50.0014 19.1529 49.9955C19.1949 49.9897 19.2378 49.9959 19.2765 50.0134C19.7652 50.2282 20.2852 50.3633 20.8166 50.4137C20.4421 50.1502 20.1007 49.8425 19.7997 49.4973C19.7681 49.4594 19.7498 49.4121 19.7477 49.3629C19.7455 49.3136 19.7596 49.2649 19.7878 49.2244C20.2193 48.6001 20.4719 47.8695 20.5181 47.1119C20.5642 46.3543 20.4023 45.5985 20.0497 44.9264C19.6971 44.2542 19.1674 43.6914 18.5178 43.2987C17.8683 42.906 17.1237 42.6986 16.3647 42.6987H16.3652Z" fill="white"/>
<path d="M55.354 59.9816C55.354 59.9816 62.4429 78.9621 64.7063 97.9576C64.7063 97.9576 50.8548 102.617 34.4229 97.7702C34.4229 97.7702 36.6537 77.9274 42.2643 59.9816H55.354Z" fill="#2F80ED"/>
<path d="M39.6179 87.2048C39.6179 87.2048 35.9161 85.9944 33.9478 86.5112C31.9794 87.0281 29.248 93.5239 29.3956 94.1881C29.5432 94.8523 31.8653 96.6643 33.2343 96.0089C34.6032 95.3534 35.9409 92.4904 35.9409 92.4904C35.9409 92.4904 36.9605 93.3039 39.4281 92.8356C41.8956 92.3673 39.6179 87.2048 39.6179 87.2048Z" fill="#FFBE92"/>
<path d="M55.8203 92.0717C51.9884 93.4312 45.7643 93.6982 41.7032 93.7111C39.3396 93.7191 37.7087 93.6383 37.7087 93.6383C37.2031 92.472 36.995 91.1984 37.1029 89.9318C37.2109 88.6653 37.6316 87.4453 38.3273 86.3814C39.7336 86.5921 41.0495 86.7538 42.2779 86.8742C56.7273 88.2915 58.9414 83.7862 59.2961 81.3876C59.6845 78.7873 56.6033 69.7538 55.6511 67.2033C54.699 64.6527 55.1559 64.2056 55.9063 64.2121C57.8467 64.2293 61.9668 75.011 63.5006 80.7722C65.0344 86.5334 61.8811 89.9212 55.8203 92.0717Z" fill="#1059BC"/>
<path d="M41.7032 93.7115C39.3396 93.7196 37.7087 93.6387 37.7087 93.6387C37.2031 92.4724 36.995 91.1988 37.1029 89.9323C37.2109 88.6657 37.6316 87.4457 38.3273 86.3818C39.7336 86.5926 41.0495 86.7542 42.2779 86.8747L42.2856 86.8773C42.2856 86.8773 40.5559 89.7891 41.7032 93.7115Z" fill="#438CEF"/>
<path d="M36.9462 45.3615C36.9462 45.3615 35.1575 45.6263 34.2842 48.1048C33.411 50.5832 34.7127 52.193 34.7127 52.193C34.7127 52.193 34.5627 49.9442 35.1279 48.5985C35.605 47.5336 36.483 46.6998 37.5711 46.2782C38.2555 46.0548 36.9462 45.3615 36.9462 45.3615Z" fill="#333333"/>
<path d="M59.4717 35.7702C59.4717 35.7702 63.5342 33.4906 67.0304 34.8962C69.2544 35.7906 72.7459 40.7266 72.3599 42.493C71.9739 44.2594 70.6362 44.4647 70.5408 46.0323C70.4454 47.5999 72.4101 49.3546 70.8787 52.0829C69.3473 54.8111 67.4132 54.7048 66.9121 56.7946C66.411 58.8843 68.2075 60.9192 67.4792 63.1449C66.7509 65.3707 63.4007 65.7705 62.5789 67.104C61.7571 68.4376 61.8598 70.5541 62.3866 71.01C62.3866 71.01 55.9309 68.3346 57.3788 62.5305C57.3788 62.5305 56.0615 64.6705 56.0991 66.2876C56.0991 66.2876 53.9953 62.1821 54.7187 59.3444C55.4422 56.5066 57.3577 55.8053 57.8197 53.994C58.2816 52.1827 57.27 50.349 57.7859 48.3262C58.3018 46.3035 59.4763 45.6072 60.1058 43.5162C60.7353 41.4253 56.6383 38.9381 59.4717 35.7702Z" fill="#333333"/>
<path d="M35.9048 44.3416C35.7975 44.8216 35.7164 45.307 35.662 45.7958C35.3051 48.901 35.9846 52.0371 37.5947 54.7162C39.2049 57.3952 41.6554 59.4669 44.5649 60.609C47.4745 61.7511 50.6799 61.8994 53.6825 61.031C56.6851 60.1626 59.3165 58.326 61.1672 55.8072C61.3371 55.5841 61.4959 55.3508 61.6457 55.1114C61.9707 54.6109 62.2633 54.09 62.5216 53.5521C63.3864 51.7503 63.8606 49.7861 63.9131 47.7883C63.9655 45.7905 63.5951 43.8041 62.8261 41.9594C62.0571 40.1148 60.9069 38.4535 59.4509 37.0845C57.9949 35.7155 56.2659 34.6698 54.3774 34.0158C54.1863 33.9479 53.9933 33.8872 53.8032 33.8309C52.0227 33.2965 50.1543 33.1181 48.3049 33.3059C46.4554 33.4938 44.661 34.0441 43.0242 34.9255V34.9291H43.0206C42.3971 35.2649 41.8002 35.648 41.2353 36.075C38.9701 37.7694 37.2666 40.1056 36.3459 42.7803C36.1686 43.2917 36.0213 43.813 35.9048 44.3416Z" fill="#FFBF93"/>
<path d="M63.1055 42.6739C63.338 42.4027 63.5056 42.082 63.5955 41.7362C63.6855 41.3905 63.6955 41.0288 63.6248 40.6786C63.3434 39.0933 60.93 36.4522 60.1634 35.9914C59.6293 35.671 59.0304 35.6856 58.2455 36.0643L63.1055 42.6739Z" fill="#FFCC29"/>
<path d="M35.0175 45.9599C35.2265 45.8855 35.4421 45.8306 35.6613 45.796C37.0189 45.5712 39.2135 45.6795 39.2135 45.6795C40.2278 42.9119 41.8973 41.5255 42.0148 41.4281C41.0535 42.8228 40.5189 45.7963 40.5189 45.7963C42.2455 45.5921 46.1011 46.7375 46.1011 46.7375C47.5961 42.5696 49.7327 40.0317 49.875 39.8671C48.5738 42.3366 47.8685 47.1148 47.8685 47.1148C49.8167 47.5409 51.7152 48.1685 53.5336 48.9875C54.1014 46.6244 56.3633 44.8206 56.3633 44.8206C54.375 50.742 59.6268 52.0804 59.6268 52.0804L61.1653 55.8062L61.2039 55.8972L61.6438 55.1104L62.5197 53.5511C63.3845 51.7493 63.8587 49.7852 63.9111 47.7873C63.9636 45.7895 63.5932 43.8031 62.8242 41.9584C62.0552 40.1138 60.905 38.4525 59.449 37.0835C57.9929 35.7146 56.264 34.6688 54.3755 34.0149C54.1844 33.9469 53.9914 33.8862 53.8013 33.8299C52.0208 33.2955 50.1524 33.1171 48.3029 33.305C46.4535 33.4928 44.6591 34.0431 43.0223 34.9245V34.9282H43.0187C42.3951 35.2639 41.7983 35.647 41.2333 36.074C35.4054 37.3272 35.0175 45.9599 35.0175 45.9599Z" fill="#333333"/>
<path d="M58.473 50.8508C58.473 50.8508 56.6842 51.1159 55.8112 53.5941C54.9382 56.0723 56.2397 57.6824 56.2397 57.6824C56.2397 57.6824 56.0897 55.4334 56.6549 54.0877C57.1323 53.0232 58.0102 52.19 59.0981 51.7687C59.7825 51.5442 58.473 50.8508 58.473 50.8508Z" fill="#333333"/>
<path d="M57.2193 55.8784C57.2008 56.8402 58.9861 57.4884 60.4129 56.3513C61.9815 55.1013 62.0077 52.4347 61.081 51.4262C60.1177 50.3781 58.6497 51.2575 58.6497 51.2575C58.6497 51.2575 57.2865 52.3713 57.2193 55.8784Z" fill="#FFBE92"/>
<path d="M58.1592 53.2674C58.1867 53.1153 58.2235 52.9651 58.2694 52.8175L58.3109 52.8258C58.3 52.9762 58.2985 53.1272 58.3063 53.2778C58.3163 53.5008 58.3437 53.7228 58.3883 53.9415C58.4042 53.9162 58.4216 53.8919 58.4405 53.8687C58.5373 53.7865 58.6432 53.7156 58.7561 53.6575C59.0381 53.4932 59.345 53.3762 59.6648 53.3111L59.6806 53.3501C59.6806 53.3501 59.5798 53.4125 59.4395 53.5184C59.2713 53.6433 59.1115 53.7792 58.9613 53.9253C58.8819 54.0037 58.8236 54.0979 58.761 54.1707C58.6995 54.2333 58.6334 54.2911 58.5631 54.3436L58.5323 54.3678C58.5808 54.4681 58.6374 54.5621 58.6891 54.6456C58.7671 54.7655 58.8382 54.8748 58.9142 54.9692C58.9557 55.0107 58.9921 55.0554 59.0266 55.0964C59.0659 55.1331 59.0994 55.1651 59.1283 55.1918C59.1873 55.2462 59.223 55.2865 59.223 55.2865L59.2113 55.327C59.1655 55.3317 59.1194 55.3325 59.0734 55.3295C59.0188 55.3301 58.9643 55.3248 58.9108 55.3139C58.8428 55.2924 58.776 55.2672 58.7107 55.2384C58.6348 55.1985 58.5639 55.1496 58.4995 55.0928C58.4286 55.0283 58.3664 54.9548 58.3145 54.8743C58.2245 54.6963 58.1656 54.5042 58.1402 54.3064C58.0857 53.9616 58.0922 53.6099 58.1592 53.2674Z" fill="#F09354"/>
<path d="M58.6654 51.2849C58.8144 51.2083 58.9709 51.1472 59.1325 51.1026C59.5431 50.9651 59.9876 50.9663 60.3975 51.106C60.6535 51.2091 60.8746 51.3836 61.0343 51.6087C61.1239 51.7307 61.1981 51.8633 61.2552 52.0035C61.3165 52.1517 61.3652 52.3048 61.4009 52.4611C61.5409 53.1386 61.5048 53.8408 61.296 54.5004C61.1926 54.8272 61.041 55.1368 60.8464 55.419C60.6633 55.6778 60.4434 55.9084 60.1936 56.1036L59.9846 56.2551C59.9156 56.3037 59.86 56.3279 59.7996 56.3678C59.7393 56.4053 59.6759 56.4378 59.6102 56.4649C59.5481 56.4985 59.4831 56.5265 59.416 56.5484C59.1713 56.6409 58.9111 56.6857 58.6496 56.6804C58.2432 56.6702 57.8529 56.5199 57.5447 56.2549C57.4565 56.175 57.3796 56.0835 57.3163 55.9827L57.2493 55.8703L57.1884 55.8876L57.2141 56.025C57.2457 56.1563 57.2991 56.2815 57.3721 56.3952C57.4844 56.579 57.6345 56.7368 57.8125 56.8581C58.046 57.0206 58.3114 57.1314 58.5911 57.1832C58.926 57.2431 59.2701 57.2259 59.5974 57.1327C59.7773 57.0877 59.9511 57.0206 60.1147 56.9332C60.2009 56.8889 60.2849 56.8402 60.3662 56.7875L60.5772 56.638C60.8871 56.3865 61.1482 56.0802 61.3472 55.7344C61.5434 55.39 61.6905 55.0199 61.7842 54.6349C61.9698 53.889 61.9604 53.108 61.7568 52.3669C61.705 52.1933 61.6387 52.0243 61.5587 51.8617C61.4819 51.704 61.3846 51.557 61.2693 51.4247C61.059 51.1755 60.7814 50.992 60.4696 50.8962C60.0135 50.7792 59.5316 50.8162 59.0987 51.0016C58.9364 51.0615 58.7808 51.1381 58.6343 51.2303L58.6654 51.2849Z" fill="#F09354"/>
<path d="M44.8194 65.401C44.2409 67.5842 42.7862 68.5526 40.1424 67.7573C37.4986 66.962 37.7429 64.2811 38.4573 63.0546C39.1718 61.8281 42.1975 57.0567 42.6483 56.2417C43.0991 55.4267 43.5577 55.4032 43.8017 56.5037C44.0457 57.6042 42.5281 60.9109 42.5281 60.9109C42.5281 60.9109 42.5381 60.9148 42.5577 60.9248C44.1896 61.714 44.8844 62.3833 45.0536 63.2634C45.168 63.8499 45.0498 64.5309 44.8194 65.401Z" fill="#FFBE92"/>
<path d="M45.0537 63.263C44.2506 61.8673 41.8214 62.0819 41.8214 62.0819L42.5281 60.9105C42.5281 60.9105 42.5381 60.9144 42.5577 60.9244C44.1896 61.7136 44.8844 62.3829 45.0537 63.263Z" fill="#F09354"/>
<path d="M43.5795 60.1788C43.3746 60.0802 43.1719 59.978 42.9726 59.8697C43.3999 58.8016 43.959 57.2044 43.8034 56.5037C43.7751 56.3707 43.7377 56.2397 43.6912 56.1119C43.9648 55.984 44.2068 56.2299 44.3625 56.9308C44.5135 57.6059 43.9978 59.1157 43.5795 60.1788Z" fill="#F09354"/>
<path d="M44.8235 66.8223C44.1168 68.1491 43.483 69.527 42.91 70.9205V70.9225C39.0893 80.198 37.857 90.1113 34.424 89.3121C32.2449 88.8061 31.2529 84.3751 32.1878 79.1585C32.7411 76.068 33.6702 72.4126 34.987 70.013C35.6131 68.872 36.1445 67.9993 36.4142 67.5664C36.5225 67.3931 36.5893 67.2887 36.6031 67.269C36.6042 67.268 36.6049 67.2666 36.605 67.2651C37.294 64.8537 37.5853 64.214 37.5853 64.214C42.8471 64.3123 44.8235 66.8223 44.8235 66.8223Z" fill="#1059BC"/>
<path d="M36.6031 67.2689C36.5934 67.3005 36.5383 67.4796 36.4478 67.7848C35.9595 69.4441 34.4634 74.7827 33.9732 79.7155C33.6879 82.5758 33.1859 83.5916 32.1879 82.8533C32.1879 82.8533 32.688 82.8278 32.8336 82.5581C33.5049 81.3161 32.7608 76.5617 34.1558 71.8058C34.8151 70.1064 35.9496 68.3359 36.4162 67.5741C36.489 67.4527 36.5461 67.3614 36.5757 67.3124C36.5893 67.2886 36.5992 67.275 36.6031 67.2689Z" fill="#0C438D"/>
<path d="M44.8236 66.8223C44.1169 68.1491 43.483 69.527 42.9101 70.9205C41.4049 68.2967 36.4478 67.7849 36.4478 67.7849C36.5383 67.4797 36.5934 67.2994 36.6031 67.269C36.6042 67.268 36.6049 67.2666 36.6051 67.2651C37.294 64.8537 37.5854 64.214 37.5854 64.214C42.8472 64.3123 44.8236 66.8223 44.8236 66.8223Z" fill="#438CEF"/>
</svg>
