<svg xmlns="http://www.w3.org/2000/svg" viewBox="0 0 832.66394 599.15985"><defs><style>.cls-1{fill:#c5ffdc;}.cls-2{fill:#8beab1;}.cls-11,.cls-14,.cls-3,.cls-31,.cls-6,.cls-8{fill:none;}.cls-3{stroke:#83dda7;stroke-width:0.75px;}.cls-11,.cls-14,.cls-3,.cls-31,.cls-8{stroke-linecap:round;stroke-linejoin:round;}.cls-4{fill:#b0f7ce;}.cls-5{fill:#9df4c0;}.cls-6{stroke:#8beab1;}.cls-13,.cls-6{stroke-miterlimit:10;}.cls-6,.cls-8{stroke-width:2px;}.cls-7{fill:#b1fccc;}.cls-11,.cls-13,.cls-14,.cls-8{stroke:#9df4c0;}.cls-13,.cls-9{fill:#d2ffe7;}.cls-10{fill:#b1fcd1;}.cls-11{stroke-width:4px;}.cls-12{fill:#bdffd9;}.cls-13,.cls-14{stroke-width:3px;}.cls-15{fill:#85e0aa;}.cls-16{fill:#ffc3c5;}.cls-17{fill:#0c4d6d;}.cls-18{fill:#d2d5d6;}.cls-19{fill:#073849;}.cls-20{fill:#062933;}.cls-21{fill:#0091d3;}.cls-22{fill:#fff;}.cls-23{fill:#f4bac0;}.cls-24{fill:#d5f2f7;}.cls-25{fill:#304372;}.cls-26{fill:#e2f5f7;}.cls-27{fill:#00b0e9;}.cls-28{fill:#ea6abf;}.cls-29{fill:#ff73c9;}.cls-30{fill:#b8d0d8;}.cls-31{stroke:#b8d0d8;}.cls-32{fill:#fec3bb;}.cls-33{fill:#f971b3;}.cls-34{fill:#00a5e1;}.cls-35{fill:#fb6eb0;}</style></defs><title>intro_1</title><g id="Layer_2" data-name="Layer 2"><g id="Layer_1-2" data-name="Layer 1"><path class="cls-1" d="M768.39077,461.65372C683.812,537.42284,199.72286,672.6879,28.54378,398.09856-4.75159,344.68926-9.56893,280.09022,17.52477,223.853c22.25594-46.19575,68.60356-93.22817,163.0537-114.46159a121.61243,121.61243,0,0,0,25.78721-8.90445C224.7221,91.71152,253.9141,72.676,277.1752,50.65131,316.37193,13.538,368.65848,3.068,383.98631,2.37224c53.891-2.44639,59.538-8.12455,153.84719,16.093C611.40855,37.35853,670.15958,65.05373,706.66735,124.4124c9.06935,14.746,15.28834,34.34654,39.61148,55.77318C804.9683,231.88607,895.34042,347.927,768.39077,461.65372Z"/><path class="cls-2" d="M128.80077,488.24831c-5.03538-5.37064-31.71918-11.92355-33.06954-21.76079-1.37672-10.02927,12.427-2.07246,10.25672-8.774s-25.933-14.59516-25.63533-23.306,15.59495.006,14.57992-8.90638S75.85453,403.74722,73.918,393.352c-3.98946-21.41578,16.6896-18.68837,22.33716-9.70764s3.24131,30.31861,9.07734,37.19366,9.9991-10.0655,16.59316-4.267-4.01449,28.217-.59707,34.39154,7.10725-9.17487,13.51284-1.27075c6.1935,7.64242-5.95444,30.16521-5.81934,37.78069.38911,1.14748.43429,1.56235.06419,1.08991-.01944-.02481-.04774-.05006-.06814-.07492A.78574.78574,0,0,1,128.80077,488.24831Z"/><path class="cls-3" d="M83.49428,388.37576s19.66326,37.66344,24.90639,49.5977c4.10662,9.34736,15.783,40.64607,15.783,40.64607"/><rect class="cls-4" x="116.80702" y="371.21937" width="90.53482" height="111.89319" transform="translate(324.14887 854.33193) rotate(180)"/><rect class="cls-5" x="206.46287" y="371.21937" width="43.06996" height="111.89319" transform="translate(455.9957 854.33193) rotate(180)"/><line class="cls-6" x1="206.46287" y1="407.64971" x2="116.80702" y2="407.64971"/><line class="cls-6" x1="206.46287" y1="447.54961" x2="116.80702" y2="447.54961"/><path class="cls-2" d="M143.17639,403.31277H180.0935a0,0,0,0,1,0,0v.65409a3.68285,3.68285,0,0,1-3.68285,3.68285H146.85924a3.68285,3.68285,0,0,1-3.68285-3.68285v-.65409A0,0,0,0,1,143.17639,403.31277Z" transform="translate(323.26989 810.96248) rotate(180)"/><path class="cls-2" d="M143.17639,443.21266H180.0935a0,0,0,0,1,0,0v.65409a3.68285,3.68285,0,0,1-3.68285,3.68285H146.85924a3.68285,3.68285,0,0,1-3.68285-3.68285v-.65409a0,0,0,0,1,0,0Z" transform="translate(323.26989 890.76227) rotate(180)"/><rect class="cls-7" x="274.7791" y="128.6489" width="357.58804" height="6.60458"/><ellipse class="cls-5" cx="269.0424" cy="131.95119" rx="7.64894" ry="7.54809"/><ellipse class="cls-5" cx="635.2355" cy="131.95119" rx="7.64894" ry="7.54809"/><rect class="cls-4" x="291.73869" y="138.29893" width="85.09448" height="280.16267"/><rect class="cls-5" x="284.81834" y="124.87486" width="100.39236" height="15.09617" rx="6.56336"/><rect class="cls-4" x="553.48743" y="138.08401" width="62.14765" height="279.17901"/><rect class="cls-5" x="545.83849" y="124.87486" width="77.44554" height="15.09617" rx="6.56336"/><line class="cls-8" x1="307.7347" y1="156.15141" x2="307.7347" y2="400.94199"/><line class="cls-8" x1="332.59392" y1="156.15141" x2="332.59392" y2="400.94199"/><line class="cls-8" x1="359.36539" y1="156.15141" x2="359.36539" y2="400.94199"/><rect class="cls-9" x="388.0486" y="184.55711" width="153.06021" height="162.84595"/><line class="cls-8" x1="566.84425" y1="156.15141" x2="566.84425" y2="399.99847"/><line class="cls-8" x1="585.0106" y1="156.15141" x2="585.0106" y2="399.99847"/><path class="cls-10" d="M434.5326,254.61877a4.66178,4.66178,0,0,1,1.38666.23066,7.22876,7.22876,0,0,1,7.00719-5.34855,7.30377,7.30377,0,0,1,2.5048.44772,10.55888,10.55888,0,0,1,19.93514.35383,7.28687,7.28687,0,0,1,3.32529-.80155,7.1542,7.1542,0,1,1,0,14.30714c-.15111,0-.29879-.01334-.4476-.02232-.07434.00719-.14643.02232-.22264.02232H434.96817c-.07428,0-.14444-.01488-.217-.02177-.074.00345-.1437.02177-.2186.02177a4.595,4.595,0,1,1,0-9.18925Z"/><rect class="cls-4" x="389.94422" y="293.73368" width="43.52505" height="51.69698"/><line class="cls-8" x1="602.22083" y1="156.15141" x2="602.22083" y2="399.99847"/><rect class="cls-11" x="388.0486" y="184.55711" width="153.06021" height="162.84595"/><line class="cls-11" x1="443.19829" y1="184.45684" x2="444.41886" y2="347.40307"/><line class="cls-11" x1="388.23938" y1="226.91467" x2="540.60024" y2="226.91467"/><polygon class="cls-4" points="504.192 256.69 504.192 270.303 482.122 270.303 482.122 345.413 539.163 345.413 539.163 270.567 539.163 270.303 539.163 256.69 504.192 256.69"/><path class="cls-10" d="M519.02534,210.01806a4.28829,4.28829,0,0,0-1.27553.21217,6.64947,6.64947,0,0,0-6.44565-4.91992,6.71852,6.71852,0,0,0-2.30408.41184,9.71272,9.71272,0,0,0-18.33758.32547,6.70292,6.70292,0,0,0-3.0588-.73731,6.58087,6.58087,0,1,0,0,13.16059c.139,0,.27485-.01227.41173-.02053.06838.00662.1347.02053.2048.02053h30.40445c.06832,0,.13286-.01368.19958-.02.0681.00317.13218.02.20108.02a4.22679,4.22679,0,1,0,0-8.45284Z"/><rect class="cls-9" x="525.52611" y="263.08933" width="9.27638" height="9.63586"/><rect class="cls-9" x="525.52653" y="281.95974" width="9.27638" height="9.63586"/><rect class="cls-9" x="525.52653" y="300.83008" width="9.27638" height="9.63586"/><rect class="cls-9" x="525.52653" y="319.70041" width="9.27638" height="9.63586"/><rect class="cls-9" x="508.3163" y="281.95974" width="9.27638" height="9.63586"/><rect class="cls-9" x="508.3163" y="300.83008" width="9.27638" height="9.63586"/><rect class="cls-9" x="508.3163" y="319.70041" width="9.27638" height="9.63586"/><rect class="cls-9" x="489.19382" y="300.83008" width="9.27638" height="9.63586"/><rect class="cls-9" x="489.19382" y="319.70041" width="9.27638" height="9.63586"/><path class="cls-5" d="M716.34759,494.115S373.54745,652.31074,109.3897,486.1555C82.31928,469.1282,716.34759,494.115,716.34759,494.115Z"/><ellipse class="cls-12" cx="136.56019" cy="185.17351" rx="35.28816" ry="34.82286"/><ellipse class="cls-13" cx="129.94802" cy="185.17351" rx="35.28816" ry="34.82286"/><line class="cls-14" x1="131.93395" y1="166.43603" x2="131.93395" y2="189.49631"/><line class="cls-14" x1="120.68408" y1="180.8696" x2="131.93395" y2="189.49631"/><path class="cls-2" d="M766.711,356.74291l13.95824-58.1911S752.505,335.21116,766.711,356.74291Z"/><path class="cls-15" d="M766.65785,356.83368,780.696,298.86883S789.29745,344.14443,766.65785,356.83368Z"/><path class="cls-2" d="M767.03425,357.57448l40.399-36.27075S767.57466,334.42329,767.03425,357.57448Z"/><path class="cls-15" d="M766.94789,357.61529,807.28962,321.553S790.33265,359.54941,766.94789,357.61529Z"/><path class="cls-2" d="M755.51584,355.96057c.55353-5.283,13.157-20.54857,9.59894-26.84477-3.62751-6.41911-8.13146,4.1317-9.82926-.6944s8.61754-19.61651,4.59963-24.55051-9.05375,6.69975-12.39828,1.085,1.47672-20.833-1.98725-27.7051c-7.13633-14.15763-17.94129-3.69339-17.2568,3.95026S739.7434,300.21082,739.389,306.7118s-10.24973-1.5555-11.51959,4.64536,14.78656,14.673,15.52746,19.72837-8.17723-2.2797-8.40818,5.06383c-.22329,7.10039,16.77308,14.97209,20.05616,19.45541.28054.83388.43743,1.09435.44382.66091.00034-.02277.00562-.0496.0065-.0728A.56015.56015,0,0,0,755.51584,355.96057Z"/><path class="cls-3" d="M737.7419,278.47105s5.206,30.32922,7.42906,39.5155c1.74118,7.195,8.77595,30.39624,8.77595,30.39624"/><polygon class="cls-4" points="731.545 402.354 785.135 402.354 795.232 351.004 723.002 351.004 731.545 402.354"/><polygon class="cls-2" points="727.199 376.296 790.218 376.296 792.335 365.566 725.481 365.566 727.199 376.296"/><path class="cls-2" d="M170.18554,338.16673l-.33008-53.0936S153.35146,322.53181,170.18554,338.16673Z"/><path class="cls-15" d="M170.159,338.25605l-.213-52.915S186.99305,322.62113,170.159,338.25605Z"/><path class="cls-2" d="M167.21021,338.41441l-23.92314-47.55748S145.12857,331.66253,167.21021,338.41441Z"/><path class="cls-15" d="M167.22609,338.50617l-23.73845-47.44772S175.39269,317.1645,167.22609,338.50617Z"/><path class="cls-2" d="M173.76351,339.06667l18.54861-44.21528S165.32347,320.26809,173.76351,339.06667Z"/><path class="cls-15" d="M173.70978,339.13169l18.58253-44.02647S193.23563,331.95649,173.70978,339.13169Z"/><polygon class="cls-4" points="191.068 373.382 150.67 373.382 143.059 334.672 197.508 334.672 191.068 373.382"/><polygon class="cls-2" points="194.344 353.738 146.838 353.738 145.242 345.65 195.64 345.65 194.344 353.738"/><rect class="cls-2" x="676.9761" y="402.89504" width="135.78516" height="5.17491"/><rect class="cls-2" x="688.18717" y="404.31899" width="17.29631" height="90.63568"/><rect class="cls-16" x="567.96211" y="550.01274" width="23.98645" height="32.75798" rx="4.30117" transform="translate(-101.73669 127.7076) rotate(-11.55992)"/><path class="cls-17" d="M570.60121,576.45022s20.90688,3.59159,22.9166-.32643,6.63786,7.509,5.27126,12.34214-15.82466,5.06659-15.82466,5.06659-4.07212-.20741-5.19183-.34833a67.85788,67.85788,0,0,0-7.38332.85109s-29.13131,5.646-30.37034-2.53882c-.77666-5.13048,5.81194-7.9526,10.85264-10.06633C556.7624,578.95991,567.38,576.98974,570.60121,576.45022Z"/><rect class="cls-16" x="635.34179" y="551.45082" width="23.01125" height="35.6827" rx="4.30117" transform="translate(-100.96106 141.17111) rotate(-11.55992)"/><path class="cls-17" d="M636.952,580.37928s21.28734,4.4884,23.28955.65774,5.92639,7.77776,4.49207,12.54942-14.89975,4.40365-14.89975,4.40365-3.67876-.65331-4.71625-.84067-7.00561.82-7.00561.82-27.30505,4.4291-28.18352-3.79929c-.55065-5.15782,5.6768-7.70324,10.43967-9.60531A84.46277,84.46277,0,0,1,636.952,580.37928Z"/><path class="cls-18" d="M562.17461,303.13222,545.27488,469.95693s15.74458-13.42031,34.4692-.78223c16.32283,11.017,30.01839,11.8808,30.01839,11.8808l-6.48566-106.56935Z"/><polygon class="cls-19" points="567.407 319.933 636.034 322.668 639.551 454.176 658.998 570.068 623.241 571.075 596.644 393.185 591.178 468.21 597.263 570.405 560.893 570.779 557.314 461.739 567.407 319.933"/><rect class="cls-20" x="565.95822" y="319.47282" width="70.36491" height="22.71872" rx="4.5084" transform="matrix(0.99972, 0.02367, -0.02367, 0.99972, 7.99882, -14.13562)"/><path class="cls-21" d="M569.87739,177.91915h63.25938a6.10286,6.10286,0,0,1,6.10286,6.10286V330.42448A3.45857,3.45857,0,0,1,635.781,333.883H567.23311a3.45857,3.45857,0,0,1-3.45857-3.45857V184.022a6.10286,6.10286,0,0,1,6.10286-6.10286Z" transform="translate(6.22539 -14.16529) rotate(1.35625)"/><path class="cls-22" d="M587.44981,168.85577,575.807,289.5378a12.06031,12.06031,0,0,1-.22737,1.43969l-15.956,72.34031-13.75933,105.527,8.54186-146.75291,1.73584-135.877a9.73286,9.73286,0,0,1,6.70457-9.30467Z"/><path class="cls-23" d="M594.31617,127.00074H610.871a5.92179,5.92179,0,0,1,5.92179,5.92179v41.62913a13.495,13.495,0,0,1-13.495,13.495H601.8894a13.495,13.495,0,0,1-13.495-13.495V132.92253a5.92179,5.92179,0,0,1,5.92179-5.92179Z" transform="translate(8.06893 -28.14583) rotate(2.6937)"/><rect class="cls-22" x="540.55107" y="175.43642" width="23.53269" height="83.63024" rx="7.2071" transform="translate(155.56394 -224.15467) rotate(26.57757)"/><polygon class="cls-24" points="555.359 236.96 552.571 225.486 556.694 188.157 555.359 236.96"/><rect class="cls-22" x="508.99886" y="177.94666" width="23.53269" height="83.63024" rx="7.2071" transform="translate(1070.37153 87.75981) rotate(143.61512)"/><path class="cls-24" d="M537.28232,221.76872s6.66,10.29082,4.487,16.126C541.76932,237.89473,547.076,223.28644,537.28232,221.76872Z"/><path class="cls-25" d="M633.18064,101.2582c-2.77336-2.199-7.58813-6.31942-11.83974-5.49526-3.50927-6.22974-11.16719-13.07242-21.19313-18.23174-16.25794-8.36645-32.54764-9.13286-36.384-1.71181-1.89361,3.66292-.38811,8.63664,3.566,13.74009-10.49612,2.73291-17.72556,8.29106-18.04306,15.03946-.47966,10.19487,14.948,19.2034,34.45883,20.12135,1.64215.07726,3.2492.07379,4.83712.03487-6.01989,11.90987-6.562,23.29675-.436,28.15394,8.01026,6.35119,27.19061,8.29222,35.97212-9.1194C631.30756,129.53608,641.19092,107.60927,633.18064,101.2582Z"/><rect class="cls-16" x="569.80625" y="103.82831" width="46.59477" height="61.6287" rx="18.0959" transform="translate(6.98311 -27.72511) rotate(2.6937)"/><ellipse class="cls-25" cx="602.11892" cy="107.95793" rx="11.95384" ry="17.79794" transform="translate(109.20778 470.22952) rotate(-46.47946)"/><ellipse class="cls-25" cx="579.01775" cy="105.02416" rx="17.79794" ry="11.95384" transform="translate(20.5172 290.41232) rotate(-28.64375)"/><ellipse class="cls-16" cx="618.27035" cy="131.3977" rx="7.96923" ry="4.78154" transform="translate(320.56092 688.97521) rotate(-73.89899)"/><path class="cls-22" d="M616.62727,167.31958,598.59453,290.01215a28.50706,28.50706,0,0,0-.12671,7.31062L619.03713,481.42s17.16534,4.874,28.05393,11.93529c5.47912,3.55326,26.08551,7.70577,26.08551,7.70577L639.399,325.14172l10.57291-132.357a14.46666,14.46666,0,0,0-7.82211-12.29566Z"/><path class="cls-26" d="M646.16794,252.10856s1.44936-19.50342,1.31766-20.25389-18.51937-36.89293-18.51937-36.89293l16.12587,71.02192Z"/><rect class="cls-22" x="642.59291" y="180.02956" width="23.53269" height="83.63024" rx="7.2071" transform="translate(-26.26162 340.82499) rotate(-28.64375)"/><path class="cls-27" d="M587.44981,170.18225c-.29821-3.37061-15.94241,3.73743-15.94241,3.73743l6.16871,9.31576-9.52459,3.77314L575.73689,291.591S589.70257,195.64469,587.44981,170.18225Z"/><rect class="cls-28" x="560.88486" y="261.79309" width="16.88006" height="5.38052" transform="translate(-31.60384 82.91538) rotate(-8.10555)"/><rect class="cls-29" x="558.64343" y="263.43773" width="26.47988" height="38.02001" rx="3.0202" transform="translate(-34.11121 83.45558) rotate(-8.10555)"/><rect class="cls-22" x="561.91455" y="269.35937" width="19.83407" height="25.4495" transform="translate(-34.06046 83.44464) rotate(-8.10555)"/><path class="cls-25" d="M559.52589,255.94146h18.00634a.67021.67021,0,0,1,.67021.67021v5.23781a0,0,0,0,1,0,0H558.85568a0,0,0,0,1,0,0v-5.23781a.67021.67021,0,0,1,.67021-.67021Z" transform="translate(-30.82392 82.74734) rotate(-8.10555)"/><path class="cls-27" d="M616.62727,167.31958c1.26683-3.13769,14.16312,8.218,14.16312,8.218l-8.61416,7.11566,8.01305,6.38323L598.03185,294.78473S607.05735,191.02249,616.62727,167.31958Z"/><polygon class="cls-24" points="599.084 290.952 642.996 274.463 643.715 267.566 603.973 275.017 599.084 290.952"/><rect class="cls-16" x="598.35967" y="252.48783" width="14.66785" height="38.50919" rx="4.49216" transform="translate(573.06628 934.79909) rotate(-111.34613)"/><path class="cls-22" d="M631.26539,218.01624h18.58992a2.57966,2.57966,0,0,1,2.57966,2.57966v74.80424a6.24633,6.24633,0,0,1-6.24633,6.24633H633.93953a4.96154,4.96154,0,0,1-4.96154-4.96154v-76.3813a2.2874,2.2874,0,0,1,2.2874-2.2874Z" transform="translate(615.11683 950.74546) rotate(-109.95335)"/><path class="cls-24" d="M653.419,242.86255s13.39311-3.13683,18.55862,3.59812C671.97757,246.46067,659.85387,231.88,653.419,242.86255Z"/><path class="cls-16" d="M592.00294,270.21593s-4.0667-5.44733-6.045-5.33441c-1.17116.06685-.66472.04467-3.32362.03053-1.40947-.0075-.04387,3.38937.45072,4.80966.623,1.78917-10.517.74911-12.35307,1.76941-2.62916,1.461-6.03276,20.65532,3.05789,20.40586,0,0,18.86837-2.17623,22.241-8.35354S592.00294,270.21593,592.00294,270.21593Z"/><ellipse class="cls-23" cx="508.13609" cy="174.45246" rx="4.79949" ry="5.18804" transform="translate(176.43969 597.07929) rotate(-70.82188)"/><rect class="cls-17" x="457.82219" y="178.02337" width="68.31348" height="90.15161" rx="2.89325" transform="translate(5.41833 -11.58207) rotate(1.35625)"/><rect class="cls-17" x="477.83406" y="173.31964" width="30.4494" height="8.33964" transform="translate(4.3391 -11.62041) rotate(1.35625)"/><rect class="cls-22" x="463.30063" y="183.50652" width="57.37126" height="78.56596" transform="translate(5.411 -11.58233) rotate(1.35625)"/><rect class="cls-30" x="467.3369" y="196.37174" width="14.56178" height="17.27095" transform="matrix(0.99972, 0.02367, -0.02367, 0.99972, 4.98525, -11.17622)"/><rect class="cls-30" x="488.46544" y="198.7239" width="28.10763" height="2.03188" transform="translate(4.86839 -11.83809) rotate(1.35625)"/><rect class="cls-30" x="488.3065" y="205.43747" width="28.10763" height="2.03188" transform="translate(5.02725 -11.83245) rotate(1.35625)"/><rect class="cls-30" x="488.14755" y="212.15105" width="28.10763" height="2.03188" transform="translate(5.18611 -11.82681) rotate(1.35625)"/><rect class="cls-30" x="467.76477" y="221.98592" width="48.50254" height="2.09731" transform="translate(5.41681 -11.58297) rotate(1.35625)"/><rect class="cls-30" x="467.60665" y="228.66436" width="48.50254" height="2.09731" transform="translate(5.57483 -11.57735) rotate(1.35625)"/><rect class="cls-30" x="467.44854" y="235.3428" width="48.50254" height="2.09731" transform="translate(5.73286 -11.57174) rotate(1.35625)"/><rect class="cls-30" x="467.29379" y="241.84205" width="24.45147" height="1.88643" transform="translate(5.88078 -11.28166) rotate(1.35625)"/><path class="cls-31" d="M497.23687,257.94141s6.74132-6.69743,10.32446-7.43544-3.13223,4.86291-.68455,5.7437,5.80212-1.7826,7.44688-1.74366"/><rect class="cls-16" x="475.7986" y="161.23173" width="32.99592" height="14.23638" rx="6.13129" transform="translate(4.12256 -11.60493) rotate(1.35625)"/><rect class="cls-22" x="268.38314" y="194.48156" width="23.66241" height="84.09123" rx="7.2071" transform="translate(641.15067 301.25856) rotate(150)"/><path class="cls-18" d="M279.64478,331.33527,290.07,405.79s-38.9302,17.56144-50.43222,20.06188-50.50887,10.00176-50.50887,10.00176l41.50729-101.01773Z"/><path class="cls-32" d="M228.11459,561.73247h10.83424s.7387,10.588,3.44726,14.774,13.05033,17.72875,13.05033,17.72875l-13.05033-.49246Z"/><path class="cls-17" d="M228.60705,564.441s-7.63321-.7387-6.402,12.06541a128.763,128.763,0,0,1,.24623,22.65341h4.186V580.69239s6.40205,15.26643,12.8041,18.22123h23.39212s3.44725.24623,1.72362-2.46233-14.03526-6.402-17.23629-6.15582-3.44726-2.21609-6.64828-6.40205-1.4774-2.2161-3.44726-5.17089S235.0091,568.13452,228.60705,564.441Z"/><path class="cls-32" d="M287.407,561.4089h10.83424s.7387,10.588,3.44726,14.774,13.05034,17.72876,13.05034,17.72876l-13.05034-.49247Z"/><path class="cls-17" d="M287.89948,564.11746s-7.63322-.7387-6.402,12.0654a128.76414,128.76414,0,0,1,.24623,22.65341h4.186V580.36882s6.402,15.26643,12.8041,18.22122h23.39211s3.44726.24623,1.72363-2.46233-14.03527-6.40205-17.23629-6.15581-3.44726-2.2161-6.64829-6.40206-1.47739-2.21609-3.44726-5.17088S294.30153,567.811,287.89948,564.11746Z"/><path class="cls-33" d="M219.64007,191.905h30.58165a26.233,26.233,0,0,1,26.233,26.233V334.09586a3.45857,3.45857,0,0,1-3.45857,3.45857H206.85053a3.45857,3.45857,0,0,1-3.45857-3.45857V208.15309A16.24811,16.24811,0,0,1,219.64007,191.905Z" transform="translate(-17.88503 17.38405) rotate(-4.00066)"/><path class="cls-19" d="M279.45541,318.05336s36.2075,102.32554,33.58377,132.76083S303.069,564.15941,303.069,564.15941l-22.03934-1.57424s6.95244-87.91952,2.85255-110.60676c-3.74781-20.739-25.41665-77.77719-25.41665-77.77719L242.19841,561.53567l-19.94036,2.62374L214.9116,322.25133Z"/><path class="cls-22" d="M246.50028,192.02614l18.0248,2.846a10.5546,10.5546,0,0,1,8.82736,9.11951L289.3892,332.6065l18.87326,83.04056L269.01845,284.24Z"/><path class="cls-22" d="M221.16885,188.69323l-15.41021,5.967a18.80759,18.80759,0,0,0-11.84273,20.08858l10.87844,80.733a122.62647,122.62647,0,0,1-.07977,33.3324L189.53565,437.52819s8.8642-16.32236,28.85983-16.32236c10.1719,0,25.31148-6.62356,25.31148-6.62356L239.2124,292.756Z"/><path class="cls-27" d="M246.38866,186.3017c-.00633-3.40242,16.30342,2.30035,16.30342,2.30035l-5.33468,9.88725,9.87963,2.91678L269.01845,284.24S246.43646,212.00447,246.38866,186.3017Z"/><path class="cls-25" d="M277.18672,147.86118c5.45258,36.74037-5.45839,53.43091-16.38778,47.51083-5.07862-2.75092-38.68565-4.90376-45.53228-31.67507s1.46434-52.01871,18.56309-56.39164S273.13018,120.52761,277.18672,147.86118Z"/><ellipse class="cls-25" cx="225.29406" cy="155.2474" rx="25.22391" ry="33.71046" transform="translate(-27.62991 50.89878) rotate(-12.15072)"/><path class="cls-23" d="M232.93914,143.8695h1.349a11.63306,11.63306,0,0,1,11.63306,11.63306v41.1907a5.64024,5.64024,0,0,1-5.64024,5.64024H226.94632a5.64024,5.64024,0,0,1-5.64024-5.64024v-41.1907a11.63306,11.63306,0,0,1,11.63306-11.63306Z" transform="translate(475.10432 335.03267) rotate(177.3063)"/><rect class="cls-16" x="219.1005" y="121.73783" width="44.62404" height="59.0221" rx="21.08926" transform="matrix(-0.9989, 0.047, -0.047, -0.9989, 489.66647, 290.98506)"/><ellipse class="cls-16" cx="217.31023" cy="148.14117" rx="4.5793" ry="7.63217" transform="translate(-32.56007 66.07794) rotate(-16.10101)"/><ellipse class="cls-25" cx="256.74773" cy="129.7162" rx="10.34158" ry="16.2333" transform="translate(-7.73914 242.81962) rotate(-49.95736)"/><ellipse class="cls-25" cx="231.98851" cy="132.62323" rx="16.37754" ry="10.25905" transform="translate(-34.93127 119.91809) rotate(-27.03058)"/><path class="cls-24" d="M223.41442,269.49161s-9.95115-4.85891-10.14851-5.59918,1.003-50.43548,1.003-50.43548l22.44358,72.13231Z"/><rect class="cls-22" x="192.04804" y="203.87679" width="23.66241" height="84.09123" rx="7.2071" transform="translate(391.18567 504.69042) rotate(-176.23844)"/><path class="cls-27" d="M221.97911,187.80763c-1.2738-3.155-14.24119,8.26327-14.24119,8.26327l8.66165,7.15489-8.05722,6.41841,30.87,80.27309S231.60179,211.6412,221.97911,187.80763Z"/><path class="cls-17" d="M371.28323,180.559h-31.3137a10.08289,10.08289,0,0,0-10.05338,10.05331V199.512a10.08387,10.08387,0,0,0,7.56389,9.72659,7.44069,7.44069,0,0,1-2.04815-5.11743V194.02287a7.49833,7.49833,0,0,1,7.47634-7.47634h25.43624a7.49829,7.49829,0,0,1,7.47634,7.47634v10.09828a7.44085,7.44085,0,0,1-2.04822,5.11749,10.084,10.084,0,0,0,7.564-9.72665v-8.89968A10.08287,10.08287,0,0,0,371.28323,180.559Z"/><rect class="cls-34" x="292.26161" y="198.8417" width="126.72948" height="93.67058" rx="12"/><circle class="cls-22" cx="356.88125" cy="245.677" r="32.60608"/><path class="cls-35" d="M372.65368,240.63378H361.92447V229.90457a2.0778,2.0778,0,0,0-2.07779-2.07779h-5.93085a2.07781,2.07781,0,0,0-2.07779,2.07779v10.72921H341.10883a2.07775,2.07775,0,0,0-2.07773,2.07779v5.93086a2.0777,2.0777,0,0,0,2.07773,2.07773H351.838v10.7292a2.0778,2.0778,0,0,0,2.07779,2.07779h5.93085a2.07779,2.07779,0,0,0,2.07779-2.07779v-10.7292h10.72921a2.0777,2.0777,0,0,0,2.07773-2.07773v-5.93086A2.07775,2.07775,0,0,0,372.65368,240.63378Z"/><polygon class="cls-24" points="239.437 303.056 204.651 292.87 203.676 288.094 240.549 288.662 239.437 303.056"/><rect class="cls-16" x="265.0277" y="266.69757" width="13.26405" height="43.39464" rx="4.49216" transform="translate(-67.41417 493.3327) rotate(-77.86052)"/><path class="cls-22" d="M225.7191,240.394h12.37842a6.24633,6.24633,0,0,1,6.24633,6.24633v75.26524a2.57966,2.57966,0,0,1-2.57966,2.57966H223.045a2.2874,2.2874,0,0,1-2.2874-2.2874V245.35552a4.96154,4.96154,0,0,1,4.96154-4.96154Z" transform="translate(-88.29837 458.24582) rotate(-79.2533)"/><path class="cls-24" d="M219.94,268.16355s-13.79809-.95884-17.84166,6.557C202.09829,274.72056,211.78606,258.29791,219.94,268.16355Z"/><path class="cls-16" d="M284.65493,284.54969c-.02144-.5128,14.25057-7.274,15.7181-4.93807s-4.56455,5.49907-4.56455,5.49907,26.87287,3.842,27.99854,6.1922-3.84508,6.32514-10.12673,7.61521-28.9306.18236-29.15157-1.007S284.65493,284.54969,284.65493,284.54969Z"/><polygon class="cls-24" points="272.776 199.982 282.657 247.636 280.633 262.006 272.776 199.982"/></g></g></svg>