<svg xmlns="http://www.w3.org/2000/svg" viewBox="0 0 100 100"><defs><style>.cls-1{fill:#fff;}.cls-2{fill:#00afef;}.cls-3{fill:#fec32b;}.cls-4{fill:#008c50;}.cls-5{fill:#0087cb;}.cls-6{fill:#f4a60b;}.cls-7{fill:#00a859;}</style></defs><title>100px</title><g id="Layer_2" data-name="Layer 2"><g id="Layer_3" data-name="Layer 3"><circle class="cls-1" cx="50" cy="50" r="50"/><path class="cls-2" d="M25.64506,46.46277a5.00237,5.00237,0,0,0,3.53721,8.54032h5.38546V65.43225H29.18227a15.43226,15.43226,0,1,1,0-30.86452h5.38546V44.99689H29.18227A4.97755,4.97755,0,0,0,25.64506,46.46277Z"/><path class="cls-3" d="M86.25,50A15.4509,15.4509,0,0,1,70.81773,65.43225H65.43227V55.00309h5.38546a5.0031,5.0031,0,1,0,0-10.0062H65.43227V34.56773h5.38546A15.45091,15.45091,0,0,1,86.25,50Z"/><path class="cls-3" d="M65.43227,29.18224v5.38549H55.00311V29.18224a5.00311,5.00311,0,1,0-10.00622,0v5.38549H34.56773V29.18224a15.43227,15.43227,0,1,1,30.86454,0Z"/><path class="cls-2" d="M65.43227,65.43225v5.38551a15.43227,15.43227,0,1,1-30.86454,0V65.43225H44.99689v5.38551a5.00311,5.00311,0,0,0,10.00622,0V65.43225Z"/><path class="cls-4" d="M65.43227,55.00309V65.43225H55.00311V58.167a3.16393,3.16393,0,0,1,3.16394-3.16394Z"/><path class="cls-5" d="M44.99689,58.167v7.26522H34.56773V55.00309h7.26522A3.16393,3.16393,0,0,1,44.99689,58.167Z"/><path class="cls-4" d="M44.99689,34.56773v7.26522a3.16393,3.16393,0,0,1-3.16394,3.16394H34.56773V34.56773Z"/><path class="cls-6" d="M65.43227,34.56773V44.99689H58.16705a3.16393,3.16393,0,0,1-3.16394-3.16394V34.56773Z"/><circle class="cls-7" cx="76.8036" cy="50" r="6.52412"/><circle class="cls-5" cx="23.05878" cy="50" r="6.52412"/><circle class="cls-5" cx="49.93119" cy="76.87241" r="6.52412"/><circle class="cls-7" cx="49.93119" cy="23.12759" r="6.52412"/></g></g></svg>