<svg xmlns="http://www.w3.org/2000/svg" viewBox="0 0 200 200"><defs><style>.cls-1{fill:#fff;}.cls-2{fill:#00afef;}.cls-3{fill:#fec32b;}.cls-4{fill:#008c50;}.cls-5{fill:#0087cb;}.cls-6{fill:#f4a60b;}.cls-7{fill:#00a859;}</style></defs><title>logistik_logo_lingkar</title><g id="Layer_2" data-name="Layer 2"><g id="Layer_3" data-name="Layer 3"><circle class="cls-1" cx="100" cy="100" r="100"/><path class="cls-2" d="M51.29,92.926a10,10,0,0,0,7.075,17.08h10.77v20.859H58.365a30.865,30.865,0,0,1,0-61.73h10.77V89.994H58.365A9.955,9.955,0,0,0,51.29,92.926Z"/><path class="cls-3" d="M172.5,100a30.9,30.9,0,0,1-30.865,30.865h-10.77V110.006h10.77a10.006,10.006,0,1,0,0-20.012h-10.77V69.135h10.77A30.9,30.9,0,0,1,172.5,100Z"/><path class="cls-3" d="M130.865,58.364V69.135H110.006V58.364a10.006,10.006,0,0,0-20.012,0V69.135H69.135V58.364a30.865,30.865,0,0,1,61.73,0Z"/><path class="cls-2" d="M130.865,130.865v10.771a30.865,30.865,0,0,1-61.73,0V130.865H89.994v10.771a10.006,10.006,0,1,0,20.012,0V130.865Z"/><path class="cls-4" d="M130.865,110.006v20.859H110.006V116.334a6.328,6.328,0,0,1,6.328-6.328Z"/><path class="cls-5" d="M89.994,116.334v14.531H69.135V110.006H83.666A6.328,6.328,0,0,1,89.994,116.334Z"/><path class="cls-4" d="M89.994,69.135V83.666a6.328,6.328,0,0,1-6.328,6.328H69.135V69.135Z"/><path class="cls-6" d="M130.865,69.135V89.994H116.334a6.328,6.328,0,0,1-6.328-6.328V69.135Z"/><circle class="cls-7" cx="153.607" cy="100" r="13.048"/><circle class="cls-5" cx="46.118" cy="100" r="13.048"/><circle class="cls-5" cx="99.862" cy="153.745" r="13.048"/><circle class="cls-7" cx="99.862" cy="46.255" r="13.048"/></g></g></svg>