<svg xmlns="http://www.w3.org/2000/svg" viewBox="0 0 696.21941 200"><defs><style>.cls-1{fill:#fff;}.cls-2{fill:#00afef;}.cls-3{fill:#fec32b;}.cls-4{fill:#008c50;}.cls-5{fill:#0087cb;}.cls-6{fill:#f4a60b;}.cls-7{fill:#00a859;}.cls-8{fill:#373435;}</style></defs><title>logo_logistik_teks</title><g id="Layer_2" data-name="Layer 2"><g id="Layer_4" data-name="Layer 4"><circle class="cls-1" cx="100" cy="100" r="100"/><path class="cls-2" d="M45.47477,92.8352a11.19919,11.19919,0,0,0,7.919,19.11986H65.45062v23.34855H53.39379a34.54936,34.54936,0,1,1,0-69.09872H65.45062V89.55344H53.39379A11.14367,11.14367,0,0,0,45.47477,92.8352Z"/><path class="cls-3" d="M181.15558,100.75427a34.59108,34.59108,0,0,1-34.54937,34.54934H134.54938V111.95506h12.05683a11.20081,11.20081,0,1,0,0-22.40162H134.54938V66.20489h12.05683A34.59111,34.59111,0,0,1,181.15558,100.75427Z"/><path class="cls-3" d="M134.54938,54.148V66.20489H111.20083V54.148a11.20083,11.20083,0,1,0-22.40166,0V66.20489H65.45062V54.148a34.54938,34.54938,0,0,1,69.09876,0Z"/><path class="cls-2" d="M134.54938,135.30361v12.05694a34.54938,34.54938,0,0,1-69.09876,0V135.30361H88.79917v12.05694a11.20083,11.20083,0,1,0,22.40166,0V135.30361Z"/><path class="cls-4" d="M134.54938,111.95506v23.34855H111.20083V119.0384a7.08334,7.08334,0,0,1,7.08335-7.08334Z"/><path class="cls-5" d="M88.79917,119.0384v16.26521H65.45062V111.95506h16.2652A7.08334,7.08334,0,0,1,88.79917,119.0384Z"/><path class="cls-4" d="M88.79917,66.20489v16.2652a7.08335,7.08335,0,0,1-7.08335,7.08335H65.45062V66.20489Z"/><path class="cls-6" d="M134.54938,66.20489V89.55344h-16.2652a7.08335,7.08335,0,0,1-7.08335-7.08335V66.20489Z"/><circle class="cls-7" cx="160.00721" cy="100.75427" r="14.60602"/><circle class="cls-5" cx="39.68468" cy="100.75427" r="14.60602"/><circle class="cls-5" cx="99.84594" cy="160.91554" r="14.60602"/><circle class="cls-7" cx="99.84594" cy="40.593" r="14.60602"/><path class="cls-8" d="M244.77117,30.63525h8.91016V69.44287h19.998v8.44824h-28.9082Z"/><path class="cls-8" d="M294.27117,44.49512a18.00027,18.00027,0,0,1,6.89746,1.28711,15.99035,15.99035,0,0,1,8.97559,9.00879,19.29928,19.29928,0,0,1,0,13.85986,15.98935,15.98935,0,0,1-8.97559,9.00928,19.12226,19.12226,0,0,1-13.79395,0,15.99489,15.99489,0,0,1-8.97656-9.00928,19.29928,19.29928,0,0,1,0-13.85986,15.99589,15.99589,0,0,1,8.97656-9.00879A17.98825,17.98825,0,0,1,294.27117,44.49512Zm0,26.46582a8.45019,8.45019,0,0,0,3.20117-.627A8.16363,8.16363,0,0,0,300.2116,68.519a8.59539,8.59539,0,0,0,1.88086-2.90381,11.28151,11.28151,0,0,0,0-7.78808,8.605,8.605,0,0,0-1.88086-2.90381,8.18719,8.18719,0,0,0-2.73926-1.81543,8.47851,8.47851,0,0,0-3.20117-.62695,8.39066,8.39066,0,0,0-3.2334.62695,8.26014,8.26014,0,0,0-2.70605,1.81543,8.62167,8.62167,0,0,0-1.88184,2.90381,11.2965,11.2965,0,0,0,0,7.78808,8.612,8.612,0,0,0,1.88184,2.90381,8.23576,8.23576,0,0,0,2.70605,1.81494A8.36348,8.36348,0,0,0,294.27117,70.96094Z"/><path class="cls-8" d="M331.89031,93.20313a19.26817,19.26817,0,0,1-6.10547-.89112,17.35106,17.35106,0,0,1-4.65332-2.31006,15.56281,15.56281,0,0,1-3.2998-3.13476,12.23708,12.23708,0,0,1-1.91407-3.43213l8.25-3.29981a7.853,7.853,0,0,0,3.03614,3.99268,8.88488,8.88488,0,0,0,11.15429-1.23633,10.57228,10.57228,0,0,0,2.376-7.31055V73.33691h-.52832a10.57823,10.57823,0,0,1-3.99316,3.333,13.04741,13.04741,0,0,1-5.84082,1.22119,14.16624,14.16624,0,0,1-5.64258-1.17578,14.78766,14.78766,0,0,1-4.85157-3.36572,17.76575,17.76575,0,0,1,0-24.313,14.79951,14.79951,0,0,1,4.85157-3.36474,14.16719,14.16719,0,0,1,5.64258-1.17676,13.06051,13.06051,0,0,1,5.84082,1.22119,10.596,10.596,0,0,1,3.99316,3.333h.52832v-3.498h8.25V75.58105a20.42992,20.42992,0,0,1-1.25391,7.35889,15.9164,15.9164,0,0,1-3.498,5.54395,15.199,15.199,0,0,1-5.37891,3.498A19.04847,19.04847,0,0,1,331.89031,93.20313Zm.33008-23.1001a8.849,8.849,0,0,0,3.13476-.58252,8.00734,8.00734,0,0,0,2.73926-1.71729,8.57646,8.57646,0,0,0,1.91406-2.78613,9.35561,9.35561,0,0,0,.72559-3.792,9.58719,9.58719,0,0,0-.72559-3.82276,8.49077,8.49077,0,0,0-1.91406-2.81836,8.01488,8.01488,0,0,0-2.73926-1.71728,8.85029,8.85029,0,0,0-3.13476-.5835,8.58493,8.58493,0,0,0-3.10254.5835,7.83871,7.83871,0,0,0-2.70606,1.749,8.95453,8.95453,0,0,0-1.91406,2.81934,10.26645,10.26645,0,0,0,0,7.582,8.56154,8.56154,0,0,0,1.91406,2.78613,8.06716,8.06716,0,0,0,2.70606,1.71729A8.58378,8.58378,0,0,0,332.22039,70.103Z"/><path class="cls-8" d="M361.193,41.19531a5.57945,5.57945,0,0,1-3.92675-1.61718,5.5775,5.5775,0,0,1-1.1875-1.749,5.73463,5.73463,0,0,1,0-4.356,5.58867,5.58867,0,0,1,1.1875-1.749,5.5794,5.5794,0,0,1,3.92675-1.61719,5.45712,5.45712,0,0,1,3.96,1.61719,5.49723,5.49723,0,0,1,0,7.854A5.45324,5.45324,0,0,1,361.193,41.19531Zm-4.29,36.6958V45.55127h8.64648V77.89111Z"/><path class="cls-8" d="M386.27215,78.94727a18.49755,18.49755,0,0,1-5.64258-.792,15.55639,15.55639,0,0,1-4.29-2.0791,13.55629,13.55629,0,0,1-3.06934-2.97021,14.27886,14.27886,0,0,1-1.91406-3.39893l7.72168-3.2998a8.34618,8.34618,0,0,0,3.00293,3.729,7.53109,7.53109,0,0,0,4.19141,1.2207,7.105,7.105,0,0,0,3.76171-.85791,2.43771,2.43771,0,0,0,1.38672-2.04589,2.5288,2.5288,0,0,0-1.15527-2.145,11.97409,11.97409,0,0,0-3.99316-1.48487l-4.55372-.99023a15.89563,15.89563,0,0,1-3.13574-1.05567,12.23743,12.23743,0,0,1-2.93652-1.84814,9.33347,9.33347,0,0,1-2.17774-2.70606,7.63737,7.63737,0,0,1-.85839-3.6958,8.56923,8.56923,0,0,1,1.02343-4.22412,9.52742,9.52742,0,0,1,2.80469-3.13525,13.41356,13.41356,0,0,1,4.19141-1.98,18.66632,18.66632,0,0,1,5.18066-.69287,18.2111,18.2111,0,0,1,8.25,1.81494,11.18556,11.18556,0,0,1,5.3457,5.7749l-7.458,3.03613a5.71865,5.71865,0,0,0-2.70606-2.772,8.16082,8.16082,0,0,0-3.56347-.85791A6.6349,6.6349,0,0,0,382.444,52.25a2.22975,2.22975,0,0,0-1.38574,1.94727,1.99228,1.99228,0,0,0,1.15527,1.78173,13.34,13.34,0,0,0,3.13477,1.188l4.95019,1.188a14.31188,14.31188,0,0,1,7.3584,3.79492,8.79389,8.79389,0,0,1,2.40918,6.17139,8.64215,8.64215,0,0,1-.99023,4.02588,10.77619,10.77619,0,0,1-2.80469,3.39892,13.75732,13.75732,0,0,1-4.35645,2.34327A17.58141,17.58141,0,0,1,386.27215,78.94727Z"/><path class="cls-8" d="M408.57976,52.94287H402.904v-7.3916h5.67578V35.65088h8.64649v9.90039h7.91992v7.3916h-7.91992V65.86572a9.37019,9.37019,0,0,0,.23047,2.14307,3.48246,3.48246,0,0,0,.8916,1.6665,3.26732,3.26732,0,0,0,2.63965,1.08789,5.5354,5.5354,0,0,0,1.78222-.231,5.598,5.598,0,0,0,1.25391-.627l2.44238,7.58985A14.3,14.3,0,0,1,423.1989,78.584a19.091,19.091,0,0,1-3.86132.36329,11.8019,11.8019,0,0,1-4.38868-.77442,9.32637,9.32637,0,0,1-3.2666-2.12256q-3.104-3.03148-3.10254-8.623Z"/><path class="cls-8" d="M436.62859,41.19531a5.5795,5.5795,0,0,1-3.92676-1.61718,5.57767,5.57767,0,0,1-1.1875-1.749,5.73476,5.73476,0,0,1,0-4.356,5.58884,5.58884,0,0,1,1.1875-1.749,5.57945,5.57945,0,0,1,3.92676-1.61719,5.4571,5.4571,0,0,1,3.96,1.61719,5.49723,5.49723,0,0,1,0,7.854A5.45322,5.45322,0,0,1,436.62859,41.19531Zm-4.29,36.6958V45.55127H440.985V77.89111Z"/><path class="cls-8" d="M448.904,30.63525h8.64551V56.375h.39648l10.82325-10.82373H479.4616v.52783L467.44988,57.76123l13.00195,19.60205v.52783H470.22136l-8.84375-14.18994-3.82812,3.76172V77.89111H448.904Z"/><path class="cls-8" d="M259.63543,114.35938h10.16406l17.75391,47.25585h-9.834l-3.89355-11.28613h-18.2168l-3.89355,11.28613h-9.834Zm11.28613,27.78613-4.22363-11.81446-1.7168-5.74218h-.52734l-1.71582,5.74218-4.22461,11.81446Z"/><path class="cls-8" d="M292.0407,161.61523V114.35938h8.64551v47.25585Z"/><path class="cls-8" d="M327.68133,158.18359H327.153a14.59194,14.59194,0,0,1-3.66309,3.168,10.38431,10.38431,0,0,1-5.51074,1.31934,13.40824,13.40824,0,0,1-4.71875-.82422,12.267,12.267,0,0,1-3.86133-2.27734,10.17254,10.17254,0,0,1-2.57324-3.49805,10.755,10.755,0,0,1-.92481-4.48828,10.1057,10.1057,0,0,1,.99024-4.52051,10.27831,10.27831,0,0,1,2.77246-3.46484,12.49353,12.49353,0,0,1,4.19043-2.21094,17.38039,17.38039,0,0,1,5.24707-.75977,22.73423,22.73423,0,0,1,5.21386.49512,25.43688,25.43688,0,0,1,3.36622,1.02344v-.99024a5.28214,5.28214,0,0,0-2.0459-4.25683,7.7366,7.7366,0,0,0-5.082-1.6836,9.49,9.49,0,0,0-7.58985,3.7627l-6.27051-4.29q5.14893-6.46728,14.0586-6.46875,7.52343,0,11.4834,3.53125,3.96093,3.53173,3.96,10.46094v19.40429h-8.51367Zm0-9.70214a18.05839,18.05839,0,0,0-3.13477-1.15528,13.793,13.793,0,0,0-3.53125-.42871,7.46927,7.46927,0,0,0-4.78516,1.35254,4.12668,4.12668,0,0,0-1.68261,3.333,3.73559,3.73559,0,0,0,1.61718,3.168,6.12881,6.12881,0,0,0,3.72852,1.18847,7.95279,7.95279,0,0,0,5.64355-2.27734,7.3607,7.3607,0,0,0,2.14454-5.18066Z"/><path class="cls-8" d="M345.96258,136.667h-5.67579v-7.3916h5.67579V119.375h8.64648v9.90039H362.529v7.3916h-7.91992v12.92285a9.35973,9.35973,0,0,0,.23047,2.14258,3.48187,3.48187,0,0,0,.8916,1.667,3.26885,3.26885,0,0,0,2.63965,1.08789,4.80517,4.80517,0,0,0,3.03613-.85839l2.44238,7.58984a14.32492,14.32492,0,0,1-3.26757,1.08984,19.09489,19.09489,0,0,1-3.86133.36231,11.80181,11.80181,0,0,1-4.38867-.77442,9.3185,9.3185,0,0,1-3.26661-2.12207q-3.104-3.03222-3.10253-8.623Z"/><path class="cls-8" d="M384.43914,114.35938h8.91015v20.26171h.52832l17.292-20.26171h10.75781v.52832l-17.09375,19.53515,18.876,26.66406v.52832H412.819L398.7614,141.48535l-5.41211,6.26953v13.86035h-8.91015Z"/><path class="cls-8" d="M456.84148,153.82715a18.1382,18.1382,0,0,1-6.03906,6.40234,16.79806,16.79806,0,0,1-9.27344,2.44141,17.80392,17.80392,0,0,1-6.83105-1.28711,16.29778,16.29778,0,0,1-9.042-9.042,17.99744,17.99744,0,0,1-1.2871-6.89649,17.69236,17.69236,0,0,1,1.2539-6.63281,16.73279,16.73279,0,0,1,8.81153-9.207,16.245,16.245,0,0,1,6.76464-1.38672,17.63054,17.63054,0,0,1,6.93067,1.28711,14.16068,14.16068,0,0,1,5.082,3.56445,15.34957,15.34957,0,0,1,3.10156,5.37891,20.79111,20.79111,0,0,1,1.05567,6.73242v.792a4.43911,4.43911,0,0,0-.06543.72559,3.64006,3.64006,0,0,0-.06641.72558H432.88347a9.0556,9.0556,0,0,0,1.08887,3.39942,8.22747,8.22747,0,0,0,2.0459,2.376,7.91371,7.91371,0,0,0,2.67285,1.38574,10.383,10.383,0,0,0,2.96973.42969,8.415,8.415,0,0,0,4.917-1.35352,9.876,9.876,0,0,0,3.06934-3.39844Zm-7.85449-12.54a5.59924,5.59924,0,0,0-.56055-1.91406,6.77541,6.77541,0,0,0-1.45215-1.9795,7.62188,7.62188,0,0,0-2.376-1.51855,8.79612,8.79612,0,0,0-3.39942-.59375,7.91985,7.91985,0,0,0-4.88379,1.584,8.35691,8.35691,0,0,0-2.96972,4.42188Z"/><path class="cls-8" d="M476.04656,162.6709a18.48288,18.48288,0,0,1-5.64258-.792,15.51548,15.51548,0,0,1-4.29-2.07911,13.54409,13.54409,0,0,1-3.06933-2.96972,14.27622,14.27622,0,0,1-1.91407-3.39844l7.72168-3.30078a8.34237,8.34237,0,0,0,3.00293,3.72949,7.53111,7.53111,0,0,0,4.19141,1.2207,7.10528,7.10528,0,0,0,3.76172-.85742,2.43906,2.43906,0,0,0,1.38672-2.04687,2.52918,2.52918,0,0,0-1.15528-2.14453,11.97223,11.97223,0,0,0-3.99316-1.48535l-4.55371-.98926a15.83789,15.83789,0,0,1-3.13574-1.05664,12.20573,12.20573,0,0,1-2.93653-1.84766,9.34654,9.34654,0,0,1-2.17773-2.70605,7.63659,7.63659,0,0,1-.8584-3.69629,8.56859,8.56859,0,0,1,1.02344-4.22364,9.521,9.521,0,0,1,2.80469-3.13476,13.40337,13.40337,0,0,1,4.1914-1.98047,18.66655,18.66655,0,0,1,5.18067-.69336,18.20487,18.20487,0,0,1,8.25,1.81543,11.183,11.183,0,0,1,5.3457,5.77539l-7.458,3.03613a5.71771,5.71771,0,0,0-2.706-2.77246,8.16161,8.16161,0,0,0-3.56348-.8584,6.62979,6.62979,0,0,0-3.23438.75977,2.228,2.228,0,0,0-1.38574,1.94629,1.993,1.993,0,0,0,1.15528,1.78223,13.33848,13.33848,0,0,0,3.13476,1.18847l4.9502,1.1875a14.312,14.312,0,0,1,7.3584,3.79492,8.79362,8.79362,0,0,1,2.40918,6.1709,8.64109,8.64109,0,0,1-.99024,4.02637,10.78855,10.78855,0,0,1-2.80469,3.39941,13.76607,13.76607,0,0,1-4.35644,2.34278A17.58145,17.58145,0,0,1,476.04656,162.6709Z"/><path class="cls-8" d="M526.07293,153.82715a18.13823,18.13823,0,0,1-6.03907,6.40234,16.798,16.798,0,0,1-9.27343,2.44141,17.804,17.804,0,0,1-6.83106-1.28711,16.2978,16.2978,0,0,1-9.042-9.042,17.99744,17.99744,0,0,1-1.28711-6.89649,17.69236,17.69236,0,0,1,1.25391-6.63281,16.73273,16.73273,0,0,1,8.81152-9.207,16.24508,16.24508,0,0,1,6.76465-1.38672,17.63049,17.63049,0,0,1,6.93066,1.28711,14.16059,14.16059,0,0,1,5.082,3.56445,15.34944,15.34944,0,0,1,3.10157,5.37891,20.79138,20.79138,0,0,1,1.05566,6.73242v.792a4.44022,4.44022,0,0,0-.06543.72559,3.6408,3.6408,0,0,0-.06641.72558H502.11492a9.05543,9.05543,0,0,0,1.08887,3.39942,8.22728,8.22728,0,0,0,2.04589,2.376,7.91375,7.91375,0,0,0,2.67286,1.38574,10.383,10.383,0,0,0,2.96972.42969,8.41508,8.41508,0,0,0,4.917-1.35352,9.87585,9.87585,0,0,0,3.06933-3.39844Zm-7.8545-12.54a5.599,5.599,0,0,0-.56054-1.91406,6.77541,6.77541,0,0,0-1.45215-1.9795,7.62181,7.62181,0,0,0-2.376-1.51855,8.79606,8.79606,0,0,0-3.39941-.59375,7.91983,7.91983,0,0,0-4.88379,1.584,8.35693,8.35693,0,0,0-2.96973,4.42188Z"/><path class="cls-8" d="M532.14519,114.35938h8.64551V127.625l-.52734,5.874h.52734a10.72058,10.72058,0,0,1,3.99316-3.79492,11.58512,11.58512,0,0,1,5.84082-1.48535q6.26953,0,9.27344,3.69629,3.00147,3.69726,3.00293,10.09863v19.60156h-8.64648V143.06934a7.37735,7.37735,0,0,0-1.584-5.11524,5.66516,5.66516,0,0,0-4.42187-1.749,6.50048,6.50048,0,0,0-3.168.75879,7.07208,7.07208,0,0,0-2.34277,2.0791,9.66421,9.66421,0,0,0-1.45215,3.06933,13.6334,13.6334,0,0,0-.49512,3.72852v15.77441h-8.64551Z"/><path class="cls-8" d="M589.63054,158.18359h-.52832a14.59171,14.59171,0,0,1-3.66308,3.168,10.38431,10.38431,0,0,1-5.51074,1.31934,13.4082,13.4082,0,0,1-4.71875-.82422,12.267,12.267,0,0,1-3.86133-2.27734,10.17254,10.17254,0,0,1-2.57324-3.49805,10.755,10.755,0,0,1-.92481-4.48828,10.1057,10.1057,0,0,1,.99024-4.52051,10.27831,10.27831,0,0,1,2.77246-3.46484,12.49353,12.49353,0,0,1,4.19043-2.21094,17.38034,17.38034,0,0,1,5.24707-.75977,22.73423,22.73423,0,0,1,5.21386.49512,25.43715,25.43715,0,0,1,3.36621,1.02344v-.99024a5.28213,5.28213,0,0,0-2.04589-4.25683,7.73661,7.73661,0,0,0-5.082-1.6836,9.49,9.49,0,0,0-7.58984,3.7627l-6.27051-4.29q5.14893-6.46728,14.0586-6.46875,7.52343,0,11.4834,3.53125,3.96093,3.53173,3.96,10.46094v19.40429h-8.51368Zm0-9.70214a18.058,18.058,0,0,0-3.13476-1.15528,13.793,13.793,0,0,0-3.53125-.42871,7.46927,7.46927,0,0,0-4.78516,1.35254,4.12668,4.12668,0,0,0-1.68261,3.333,3.73559,3.73559,0,0,0,1.61718,3.168,6.12881,6.12881,0,0,0,3.72852,1.18847,7.95279,7.95279,0,0,0,5.64355-2.27734,7.36064,7.36064,0,0,0,2.14453-5.18066Z"/><path class="cls-8" d="M607.91179,136.667H602.236v-7.3916h5.67578V119.375h8.64649v9.90039h7.91992v7.3916h-7.91992v12.92285a9.35973,9.35973,0,0,0,.23047,2.14258,3.48178,3.48178,0,0,0,.8916,1.667A3.26885,3.26885,0,0,0,620.32,154.4873a4.80523,4.80523,0,0,0,3.03613-.85839l2.44238,7.58984a14.325,14.325,0,0,1-3.26758,1.08984,19.09472,19.09472,0,0,1-3.86132.36231,11.8019,11.8019,0,0,1-4.38868-.77442,9.31855,9.31855,0,0,1-3.2666-2.12207q-3.104-3.03222-3.10254-8.623Z"/><path class="cls-8" d="M650.08562,158.18359h-.52832a14.59189,14.59189,0,0,1-3.66308,3.168,10.38435,10.38435,0,0,1-5.51075,1.31934,13.40828,13.40828,0,0,1-4.71875-.82422,12.267,12.267,0,0,1-3.86132-2.27734,10.1727,10.1727,0,0,1-2.57325-3.49805,10.75514,10.75514,0,0,1-.9248-4.48828,10.10583,10.10583,0,0,1,.99023-4.52051,10.27855,10.27855,0,0,1,2.77246-3.46484,12.49363,12.49363,0,0,1,4.19043-2.21094,17.38044,17.38044,0,0,1,5.24707-.75977,22.73433,22.73433,0,0,1,5.21387.49512,25.43715,25.43715,0,0,1,3.36621,1.02344v-.99024a5.28212,5.28212,0,0,0-2.0459-4.25683,7.73656,7.73656,0,0,0-5.082-1.6836,9.49,9.49,0,0,0-7.58984,3.7627l-6.27051-4.29q5.14893-6.46728,14.05859-6.46875,7.52344,0,11.4834,3.53125,3.96095,3.53173,3.96,10.46094v19.40429h-8.51367Zm0-9.70214a18.058,18.058,0,0,0-3.13476-1.15528,13.793,13.793,0,0,0-3.53125-.42871,7.46927,7.46927,0,0,0-4.78516,1.35254,4.12669,4.12669,0,0,0-1.68262,3.333,3.7356,3.7356,0,0,0,1.61719,3.168,6.12879,6.12879,0,0,0,3.72852,1.18847,7.95279,7.95279,0,0,0,5.64355-2.27734,7.36064,7.36064,0,0,0,2.14453-5.18066Z"/><path class="cls-8" d="M673.58172,133.499h.52734a10.96566,10.96566,0,0,1,4.0918-3.86035,11.96319,11.96319,0,0,1,5.874-1.41992,13.48051,13.48051,0,0,1,5.34668.99023,9.8035,9.8035,0,0,1,3.79492,2.80567,12.39937,12.39937,0,0,1,2.24414,4.35547,19.71574,19.71574,0,0,1,.75879,5.64355v19.60156h-8.64648V143.06934q0-3.49806-1.55078-5.18067a5.8436,5.8436,0,0,0-4.52051-1.68359,6.3113,6.3113,0,0,0-3.13574.75879,7.32767,7.32767,0,0,0-2.30957,2.0459,9.2607,9.2607,0,0,0-1.45215,3.03613,13.64048,13.64048,0,0,0-.49512,3.72949v15.83984h-8.64551V129.27539h8.11817Z"/></g></g></svg>