<svg width="350" height="217" viewBox="0 0 350 217" fill="none" xmlns="http://www.w3.org/2000/svg">
<g clip-path="url(#clip0)">
<path d="M322.982 177.943C287.431 207.147 83.9503 259.285 11.9974 153.445C-1.99803 132.859 -4.02125 107.96 7.36579 86.2833C16.7207 68.4772 36.2024 50.3487 75.9029 42.1646C79.6262 41.4024 83.2592 40.2516 86.7423 38.7311C94.4586 35.3485 106.729 28.0097 116.506 19.5219C132.982 5.21817 154.96 1.18245 161.401 0.914413C184.054 -0.0286255 186.427 -2.21714 226.069 7.1172C256.995 14.3988 281.691 25.0756 297.036 47.9542C300.848 53.6379 303.462 61.1929 313.686 69.452C338.358 89.3796 376.345 134.107 322.982 177.943Z" fill="#C5FFDC"/>
<path d="M58.8495 189.264C55.369 185.552 36.9264 181.022 35.9932 174.223C35.0416 167.291 44.5824 172.791 43.0823 168.159C41.5822 163.528 25.1583 158.072 25.3642 152.051C25.5702 146.03 36.1428 152.055 35.441 145.896C34.7392 139.736 22.2555 130.86 20.9171 123.675C18.1594 108.874 32.452 110.759 36.3555 116.966C40.259 123.173 38.5958 137.921 42.6293 142.672C46.6628 147.424 49.5401 135.716 54.0976 139.724C58.6551 143.732 51.323 159.227 53.6849 163.494C56.0467 167.762 58.5988 157.153 63.0246 162.616C67.3051 167.898 58.9089 183.465 59.004 188.728C59.2721 189.521 59.3042 189.808 59.0487 189.482C59.0353 189.464 59.0156 189.447 59.0013 189.43C58.9398 189.386 58.8881 189.329 58.8495 189.264Z" fill="#8BEAB1"/>
<path d="M27.5391 120.234C27.5391 120.234 41.1298 146.266 44.7537 154.514C47.5917 160.974 55.6618 182.607 55.6618 182.607" stroke="#83DDA7" stroke-width="0.75" stroke-linecap="round" stroke-linejoin="round"/>
<path d="M50.5629 185.715H113.137L113.137 108.379L50.5629 108.379L50.5629 185.715Z" fill="#B0F7CE"/>
<path d="M112.529 185.715H142.297V108.379H112.529L112.529 185.715Z" fill="#9DF4C0"/>
<path d="M112.529 133.559H50.5625" stroke="#8BEAB1" stroke-width="2" stroke-miterlimit="10"/>
<path d="M112.529 161.133H50.5625" stroke="#8BEAB1" stroke-width="2" stroke-miterlimit="10"/>
<path d="M94.3008 133.556H68.7847V131.93C68.7847 131.567 68.9289 131.219 69.1856 130.962C69.4423 130.705 69.7904 130.561 70.1535 130.561H92.9316C93.2946 130.561 93.6427 130.705 93.8994 130.962C94.1561 131.219 94.3003 131.567 94.3003 131.93V133.559L94.3008 133.556Z" fill="#8BEAB1"/>
<path d="M94.3008 161.137H68.7847V159.508C68.7847 159.145 68.9289 158.797 69.1856 158.54C69.4423 158.283 69.7904 158.139 70.1535 158.139H92.9316C93.2946 158.139 93.6427 158.283 93.8994 158.54C94.1561 158.797 94.3003 159.145 94.3003 159.508V161.137H94.3008Z" fill="#8BEAB1"/>
<path d="M301.109 190.456C301.109 190.456 157.017 251.434 45.9833 187.388C34.6029 180.824 301.109 190.456 301.109 190.456Z" fill="#9DF4C0"/>
<path d="M87.4536 85.5318L87.2253 48.8359C87.2253 48.8359 75.8186 74.7259 87.4536 85.5318Z" fill="#8BEAB1"/>
<path d="M87.4365 85.596L87.2891 49.0234C87.2891 49.0234 99.0714 74.7897 87.4365 85.596Z" fill="#85E0AA"/>
<path d="M85.398 85.706L68.8633 52.8359C68.8633 52.8359 70.1347 81.0373 85.398 85.706Z" fill="#8BEAB1"/>
<path d="M85.4108 85.7668L69.0039 52.9727C69.0039 52.9727 91.0552 71.0164 85.4108 85.7668Z" fill="#85E0AA"/>
<path d="M89.9269 86.1534L102.745 55.5938C102.745 55.5938 84.0931 73.1604 89.9269 86.1534Z" fill="#8BEAB1"/>
<path d="M89.8906 86.1987L102.734 55.7695C102.734 55.7695 103.386 81.2396 89.8906 86.1987Z" fill="#85E0AA"/>
<path d="M101.889 109.872H73.9677L68.707 83.1172H106.341L101.889 109.872Z" fill="#B0F7CE"/>
<path d="M104.152 96.2935H71.3183L70.2148 90.7031H105.048L104.152 96.2935Z" fill="#8BEAB1"/>
<path d="M308.819 138.828L317.16 104.055C317.16 104.055 300.327 125.962 308.819 138.828Z" fill="#8BEAB1"/>
<path d="M308.785 138.887L317.173 104.246C317.173 104.246 322.314 131.302 308.785 138.887Z" fill="#85E0AA"/>
<path d="M309.012 139.327L333.153 117.652C333.153 117.652 309.335 125.492 309.012 139.327Z" fill="#8BEAB1"/>
<path d="M308.961 139.351L333.068 117.801C333.068 117.801 322.935 140.507 308.961 139.351Z" fill="#85E0AA"/>
<path d="M302.13 138.361C302.46 135.204 309.992 126.082 307.866 122.319C305.698 118.483 303.007 124.788 301.992 121.904C300.978 119.02 307.142 110.182 304.741 107.234C302.34 104.286 299.331 111.237 297.332 107.882C295.333 104.527 298.214 95.4327 296.144 91.326C291.88 82.8659 285.423 89.1192 285.832 93.6869C286.241 98.2547 292.704 105.047 292.493 108.931C292.281 112.816 286.368 108.002 285.609 111.707C284.851 115.413 294.445 120.476 294.888 123.497C295.331 126.517 290.001 122.134 289.863 126.523C289.729 130.767 299.886 135.47 301.848 138.149C302.016 138.647 302.11 138.803 302.114 138.544C302.114 138.53 302.117 138.514 302.117 138.499C302.131 138.454 302.135 138.408 302.13 138.361Z" fill="#8BEAB1"/>
<path d="M291.508 92.0586C291.508 92.0586 294.619 110.182 295.947 115.672C296.988 119.971 301.191 133.836 301.191 133.836" stroke="#83DDA7" stroke-width="0.75" stroke-linecap="round" stroke-linejoin="round"/>
<path d="M287.804 166.084H319.828L325.862 135.398H282.699L287.804 166.084Z" fill="#B0F7CE"/>
<path d="M285.207 150.517H322.865L324.13 144.105H284.18L285.207 150.517Z" fill="#8BEAB1"/>
<path d="M327.682 174.027L256.926 174.17V165.273H335.805L327.682 174.027Z" fill="#8BEAB1"/>
<path d="M275.939 174.027H264.305V189.794H275.939V174.027Z" fill="#8BEAB1"/>
<path fill-rule="evenodd" clip-rule="evenodd" d="M261.505 175.25H110.118C107.113 175.25 102.843 175.409 100.83 177.23L71.4643 200.225C71.4455 204.627 70.9885 209.405 78.4975 209.432H293.126C300.62 209.432 300.178 204.608 300.159 200.225L270.793 177.23C268.769 175.4 264.462 175.25 261.505 175.25Z" fill="#CACACA"/>
<path fill-rule="evenodd" clip-rule="evenodd" d="M266.311 170.879H105.182C101.033 170.879 96.1644 172.005 94.726 173.621C86.0921 183.323 80.3275 189.798 71.712 199.478C70.1292 201.256 73.1862 202.337 78.9489 202.337H292.543C298.306 202.337 301.363 201.255 299.78 199.478L276.767 173.621C275.305 171.978 270.46 170.879 266.311 170.879Z" fill="white"/>
<path d="M105.181 51.3164H266.092C267.12 51.3165 268.138 51.5191 269.088 51.9127C270.038 52.3063 270.901 52.8832 271.628 53.6104C272.355 54.3376 272.931 55.2009 273.325 56.1509C273.718 57.101 273.92 58.1193 273.92 59.1475V163.056C273.92 165.132 273.095 167.124 271.627 168.592C270.159 170.06 268.167 170.885 266.091 170.885H105.18C103.104 170.885 101.113 170.06 99.6446 168.592C98.1764 167.124 97.3516 165.132 97.3516 163.056V59.1475C97.3512 58.1192 97.5535 57.1008 97.9468 56.1507C98.3401 55.2005 98.9168 54.3372 99.6438 53.6099C100.371 52.8827 101.234 52.3058 102.184 51.9123C103.134 51.5188 104.153 51.3163 105.181 51.3164Z" fill="#1A1A1A"/>
<path d="M265.768 60.1406H105.504V162.054H265.768V60.1406Z" fill="#01BEF2"/>
<path fill-rule="evenodd" clip-rule="evenodd" d="M125.168 180.172C126.024 180.172 126.317 180.886 125.867 181.78C125.391 182.688 124.313 183.436 123.432 183.436H99.2347C98.3716 183.436 98.2698 182.688 98.9595 181.778C99.6367 180.885 100.83 180.17 101.669 180.17L125.168 180.172ZM198.7 178.44C198.287 178.427 197.893 178.267 197.589 177.988C197.285 177.71 197.091 177.331 197.043 176.921C197.017 176.735 197.032 176.546 197.086 176.367C197.14 176.188 197.233 176.022 197.357 175.882C197.481 175.741 197.634 175.63 197.805 175.554C197.976 175.478 198.162 175.44 198.349 175.443H210.353C210.771 175.465 211.172 175.621 211.495 175.887C211.819 176.152 212.05 176.515 212.153 176.921C212.214 177.096 212.231 177.284 212.204 177.467C212.176 177.65 212.104 177.824 211.994 177.974C211.884 178.123 211.74 178.244 211.573 178.325C211.406 178.406 211.222 178.446 211.036 178.44H198.7ZM179.572 178.44C179.378 178.441 179.185 178.401 179.007 178.323C178.83 178.245 178.67 178.131 178.539 177.988C178.407 177.846 178.307 177.677 178.245 177.493C178.183 177.309 178.159 177.114 178.177 176.921C178.206 176.524 178.382 176.153 178.671 175.88C178.959 175.607 179.34 175.451 179.737 175.443H191.724C192.122 175.451 192.503 175.606 192.792 175.879C193.081 176.153 193.258 176.524 193.288 176.921C193.305 177.114 193.282 177.309 193.219 177.493C193.157 177.677 193.057 177.846 192.926 177.989C192.794 178.131 192.635 178.245 192.457 178.323C192.279 178.401 192.086 178.441 191.892 178.44H179.572ZM160.393 178.44C160.208 178.446 160.024 178.407 159.857 178.325C159.69 178.244 159.545 178.124 159.435 177.974C159.325 177.825 159.253 177.651 159.225 177.467C159.198 177.284 159.215 177.096 159.276 176.921C159.38 176.516 159.611 176.154 159.934 175.889C160.258 175.624 160.657 175.469 161.075 175.447H173.079C173.266 175.444 173.452 175.482 173.623 175.557C173.795 175.633 173.948 175.745 174.072 175.885C174.196 176.026 174.289 176.191 174.343 176.37C174.397 176.55 174.412 176.739 174.386 176.924C174.338 177.334 174.144 177.712 173.84 177.991C173.536 178.269 173.141 178.429 172.729 178.441L160.393 178.44ZM141.266 178.44C140.44 178.44 140.049 177.754 140.394 176.921C140.573 176.511 140.86 176.157 141.225 175.898C141.589 175.638 142.017 175.482 142.463 175.447H154.45C154.629 175.441 154.807 175.479 154.967 175.559C155.127 175.639 155.264 175.757 155.367 175.904C155.47 176.05 155.535 176.22 155.556 176.397C155.577 176.575 155.553 176.755 155.487 176.921C155.362 177.337 155.113 177.706 154.773 177.977C154.433 178.249 154.019 178.41 153.585 178.44H141.266ZM122.104 178.44C121.278 178.44 121.006 177.754 121.494 176.921C121.74 176.512 122.079 176.166 122.482 175.91C122.885 175.654 123.342 175.495 123.817 175.447H135.821C136.625 175.447 136.987 176.103 136.619 176.921C136.42 177.342 136.114 177.704 135.731 177.97C135.349 178.237 134.903 178.399 134.439 178.44H122.104ZM102.959 178.44C102.134 178.44 102.013 177.754 102.644 176.921C103.266 176.101 104.386 175.447 105.19 175.447H117.178C117.982 175.447 118.214 176.103 117.705 176.921C117.441 177.34 117.086 177.694 116.666 177.957C116.246 178.22 115.772 178.385 115.28 178.44H102.959ZM256.15 178.44C255.658 178.386 255.185 178.221 254.765 177.959C254.345 177.696 253.99 177.342 253.726 176.924C253.217 176.102 253.448 175.444 254.252 175.444H266.271C267.075 175.444 268.213 176.104 268.836 176.924C269.467 177.756 269.327 178.442 268.503 178.442C264.391 178.442 260.273 178.442 256.15 178.442V178.44ZM237.022 178.44C236.558 178.399 236.113 178.238 235.731 177.972C235.348 177.706 235.042 177.344 234.843 176.924C234.475 176.102 234.836 175.444 235.639 175.444H247.612C248.087 175.494 248.545 175.653 248.949 175.91C249.353 176.166 249.691 176.513 249.937 176.924C250.425 177.756 250.152 178.44 249.327 178.44H237.022ZM217.878 178.44C217.438 178.416 217.017 178.257 216.671 177.985C216.325 177.714 216.07 177.342 215.943 176.921C215.876 176.752 215.854 176.569 215.876 176.389C215.899 176.209 215.967 176.037 216.073 175.89C216.179 175.743 216.321 175.625 216.485 175.547C216.649 175.469 216.83 175.433 217.011 175.443H228.998C229.445 175.479 229.873 175.636 230.238 175.896C230.603 176.157 230.89 176.511 231.069 176.922C231.414 177.755 231.025 178.438 230.197 178.438L217.878 178.44ZM131.462 183.436C130.6 183.436 130.256 182.688 130.693 181.78C130.904 181.336 131.227 180.955 131.629 180.673C132.032 180.391 132.501 180.218 132.99 180.172H145.23C146.069 180.172 146.505 180.886 146.197 181.78C146.035 182.231 145.748 182.627 145.368 182.92C144.989 183.214 144.534 183.392 144.056 183.435C139.847 183.435 135.65 183.435 131.464 183.435L131.462 183.436ZM150.87 183.436C150.007 183.436 149.537 182.689 149.823 181.781C149.964 181.343 150.233 180.956 150.594 180.669C150.955 180.383 151.393 180.21 151.852 180.173H164.072C164.268 180.174 164.461 180.22 164.636 180.307C164.811 180.394 164.964 180.519 165.084 180.675C165.203 180.83 165.285 181.01 165.324 181.202C165.363 181.394 165.357 181.592 165.308 181.781C165.23 182.224 165.006 182.628 164.671 182.928C164.336 183.228 163.91 183.407 163.461 183.436H150.87ZM170.257 183.436C170.055 183.434 169.856 183.387 169.674 183.298C169.493 183.209 169.333 183.08 169.208 182.922C169.083 182.763 168.995 182.578 168.95 182.381C168.906 182.183 168.906 181.978 168.951 181.781C169.003 181.353 169.205 180.957 169.521 180.662C169.836 180.368 170.246 180.195 170.677 180.173H182.934C183.139 180.178 183.34 180.224 183.527 180.308C183.714 180.392 183.883 180.512 184.023 180.662C184.163 180.812 184.272 180.988 184.343 181.18C184.414 181.372 184.446 181.576 184.438 181.781C184.441 182.21 184.278 182.622 183.981 182.932C183.685 183.241 183.279 183.422 182.851 183.436H170.257ZM189.665 183.436C189.235 183.421 188.829 183.241 188.53 182.932C188.232 182.623 188.065 182.211 188.064 181.781C188.054 181.577 188.084 181.373 188.154 181.18C188.223 180.988 188.331 180.812 188.47 180.662C188.609 180.512 188.777 180.391 188.963 180.307C189.15 180.223 189.351 180.178 189.556 180.173H201.776C202.212 180.199 202.627 180.372 202.952 180.664C203.277 180.956 203.494 181.35 203.566 181.781C203.612 181.979 203.612 182.184 203.568 182.382C203.523 182.579 203.435 182.764 203.309 182.923C203.183 183.082 203.023 183.211 202.841 183.3C202.659 183.389 202.459 183.435 202.256 183.436H189.665ZM209.072 183.436C208.62 183.407 208.19 183.229 207.851 182.929C207.511 182.63 207.281 182.226 207.195 181.781C207.139 181.594 207.127 181.396 207.161 181.203C207.195 181.01 207.274 180.828 207.391 180.672C207.509 180.515 207.661 180.388 207.837 180.302C208.012 180.215 208.206 180.171 208.402 180.173H220.657C221.117 180.211 221.557 180.384 221.92 180.67C222.283 180.956 222.554 181.342 222.699 181.781C222.992 182.689 222.528 183.436 221.665 183.436H209.072ZM228.479 183.436C228 183.393 227.543 183.214 227.162 182.921C226.78 182.628 226.49 182.233 226.325 181.781C226.008 180.888 226.44 180.173 227.278 180.173H239.482C239.973 180.226 240.443 180.402 240.849 180.682C241.256 180.963 241.586 181.341 241.81 181.781C242.256 182.689 241.916 183.436 241.053 183.436H228.479ZM248.009 183.436C247.146 183.436 246.069 182.689 245.594 181.781C245.11 180.888 245.404 180.173 246.242 180.173H269.794C270.632 180.173 271.842 180.888 272.519 181.781C273.208 182.689 273.087 183.436 272.224 183.436H248.009ZM95.1597 188.901C94.2559 188.901 94.1769 188.085 94.9291 187.092C95.6716 186.113 96.9452 185.331 97.8221 185.331C103.013 185.331 108.21 185.331 113.413 185.331C114.29 185.331 114.519 186.113 113.932 187.092C113.335 188.087 112.126 188.902 111.223 188.902L95.1597 188.901ZM118.265 188.901C117.362 188.901 117.088 188.085 117.654 187.091C118.211 186.111 119.372 185.33 120.249 185.33H134.853C135.73 185.33 136.12 186.111 135.71 187.091C135.295 188.085 134.216 188.901 133.313 188.901H118.265ZM273.637 185.327C274.514 185.327 275.841 186.109 276.585 187.087C277.34 188.083 277.205 188.899 276.302 188.899H260.238C259.334 188.899 258.124 188.083 257.527 187.087C256.94 186.109 257.17 185.327 258.047 185.327H273.637ZM251.211 185.327C252.088 185.327 253.248 186.109 253.802 187.087C254.368 188.083 254.096 188.899 253.193 188.899H238.146C237.243 188.899 236.162 188.083 235.747 187.087C235.338 186.109 235.727 185.327 236.604 185.327H251.211ZM228.48 185.327C229.357 185.327 230.367 186.109 230.734 187.087C231.109 188.083 230.679 188.899 229.776 188.899H141.777C140.873 188.899 140.442 188.084 140.815 187.09C141.182 186.11 142.192 185.328 143.069 185.328H185.756C199.986 185.329 214.227 185.329 228.479 185.328L228.48 185.327Z" fill="#A4A4A4"/>
<path fill-rule="evenodd" clip-rule="evenodd" d="M161.336 198.474C160.944 198.499 160.555 198.402 160.221 198.196C159.887 197.99 159.626 197.685 159.473 197.324C159.332 196.911 159.276 196.473 159.311 196.038C159.345 195.603 159.468 195.179 159.672 194.793C160.082 193.916 160.712 193.158 161.499 192.594C162.165 192.084 162.972 191.791 163.81 191.754H207.772C208.604 191.791 209.405 192.084 210.063 192.594C210.84 193.159 211.457 193.917 211.85 194.793C212.046 195.182 212.161 195.608 212.186 196.043C212.211 196.479 212.147 196.915 211.997 197.324C211.837 197.685 211.571 197.988 211.234 198.194C210.897 198.399 210.505 198.497 210.111 198.474H161.336Z" fill="#CACACA"/>
<path d="M142.051 106.994L225.234 78.5508L208.776 135.795L176.488 119.627L166.559 112.539L142.051 106.994Z" fill="#FFE11F"/>
<path d="M166.559 112.543L170.852 142.954L186.672 124.73L176.488 119.63L166.559 112.543Z" fill="#FFD126"/>
<path d="M166.559 112.539L170.852 142.95L176.488 119.627L225.234 78.5508L166.559 112.539Z" fill="#FEC32B"/>
</g>
<defs>
<clipPath id="clip0">
<rect width="350" height="216.844" fill="white"/>
</clipPath>
</defs>
</svg>
