<svg width="64" height="64" viewBox="0 0 64 64" fill="none" xmlns="http://www.w3.org/2000/svg">
<path d="M31.7266 1C14.6057 1 0.726562 14.8791 0.726562 32C0.726562 49.1209 14.6057 63 31.7266 63C48.8474 63 62.7266 49.1209 62.7266 32C62.7266 14.8791 48.8474 1 31.7266 1ZM31.7266 7C45.5431 7 56.7266 18.1814 56.7266 32C56.7266 45.8165 45.5452 57 31.7266 57C17.9101 57 6.72656 45.8186 6.72656 32C6.72656 18.1835 17.9079 7 31.7266 7ZM49.2521 23.2834L46.4351 20.4436C45.8517 19.8555 44.9019 19.8516 44.3138 20.4351L26.6448 37.9621L19.1708 30.4275C18.5874 29.8394 17.6377 29.8355 17.0496 30.4189L14.2097 33.2359C13.6216 33.8192 13.6177 34.769 14.2012 35.3573L25.5488 46.7967C26.1322 47.3849 27.0819 47.3887 27.6701 46.8052L49.2437 25.4048C49.8317 24.8213 49.8354 23.8715 49.2521 23.2834Z" fill="#219653"/>
</svg>
