<svg width="172" height="121" viewBox="0 0 172 121" fill="none" xmlns="http://www.w3.org/2000/svg">
<g clip-path="url(#clip0)">
<path opacity="0.35" d="M159.346 85.2733C156.6 75.5631 165.332 75.1883 165.524 62.677C165.603 57.5581 162.757 52.3478 155.913 49.9572C152.548 48.7825 149.196 47.9748 146.2 46.1067C139.378 41.8496 139.502 33.7482 137.64 26.8435C133.554 11.6755 101.535 -0.384659 85.6119 0.00913179C74.1336 0.291403 68.8379 5.74231 58.3727 15.3417C51.2104 21.91 38.5965 21.3144 42.2727 38.2847C45.5473 53.4001 37.8224 52.2776 30.7487 57.8575C23.6899 63.4266 18.5208 70.0698 21.3304 77.6078C24.4284 85.9212 5.46493 90.6924 2.08304 101.469C-0.210762 108.779 11.839 109.396 20.0394 109.396C28.2397 109.396 98.4009 108.775 128.077 109.639C136.065 109.872 161.551 112.016 165.154 102.205C167.608 95.528 161.266 92.0544 159.346 85.2733Z" fill="#F2F2F2"/>
<path d="M168.456 82.2493C162.525 95.848 151.1 106.946 137.403 112.963" stroke="#F2F2F2" stroke-width="1.393" stroke-miterlimit="10"/>
<path d="M166.715 85.8668C168.8 84.1431 170.189 81.7394 170.628 79.0926C170.732 78.4498 170.753 77.7178 170.314 77.2311C170.199 77.0905 170.035 76.9971 169.854 76.969C169.707 76.9741 169.564 77.0126 169.435 77.0815C169.307 77.1504 169.196 77.2478 169.112 77.3661C168.082 78.5065 167.724 80.0842 167.547 81.6012C167.371 83.1183 167.033 84.2309 166.714 85.8668" fill="#F2F2F2"/>
<path d="M163.899 90.4994C165.12 88.1023 165.427 85.3532 164.764 82.7519C164.601 82.1212 164.326 81.4411 163.727 81.1658C163.565 81.0815 163.377 81.0597 163.199 81.1047C163.067 81.1669 162.952 81.2583 162.862 81.3718C162.771 81.4852 162.709 81.6177 162.68 81.7589C162.193 83.2086 162.5 84.7966 162.948 86.258C163.396 87.7195 163.535 88.8727 163.9 90.4994" fill="#F2F2F2"/>
<path d="M159.754 96.1982C161.263 93.9658 161.908 91.2741 161.573 88.6127C161.489 87.9673 161.3 87.2598 160.741 86.9136C160.59 86.8108 160.406 86.7667 160.224 86.7896C160.085 86.8351 159.959 86.9115 159.855 87.013C159.752 87.1145 159.673 87.2383 159.626 87.3746C158.963 88.7549 159.069 90.3677 159.334 91.872C159.599 93.3762 159.594 94.5378 159.753 96.1963" fill="#F2F2F2"/>
<path d="M154.993 101.192C156.501 98.9593 157.146 96.2676 156.811 93.6062C156.727 92.9608 156.539 92.2533 155.979 91.9071C155.828 91.8041 155.644 91.7598 155.462 91.7828C155.323 91.8286 155.197 91.9054 155.093 92.0072C154.99 92.109 154.911 92.233 154.864 92.3696C154.201 93.7495 154.307 95.3627 154.572 96.8669C154.837 98.3712 154.832 99.5328 154.991 101.191" fill="#F2F2F2"/>
<path d="M147.859 106.954C149.595 104.888 150.52 102.277 150.467 99.5956C150.451 98.9452 150.338 98.2212 149.818 97.8205C149.678 97.7028 149.5 97.64 149.317 97.6442C149.174 97.6755 149.04 97.739 148.926 97.8296C148.812 97.9203 148.721 98.0357 148.66 98.1667C147.856 99.4717 147.794 101.087 147.897 102.61C148.001 104.134 147.874 105.288 147.86 106.954" fill="#F2F2F2"/>
<path d="M142.27 110.635C144.024 108.692 145.086 106.239 145.297 103.647C145.353 102.999 145.334 102.267 144.932 101.807C144.883 101.743 144.821 101.689 144.751 101.648C144.681 101.608 144.603 101.582 144.522 101.571C144.27 101.559 144.06 101.784 143.904 102.01C143.074 103.208 142.846 104.804 142.771 106.328C142.696 107.853 142.463 108.983 142.27 110.635" fill="#F2F2F2"/>
<path d="M162.488 92.5396C165.3 92.9687 168.176 92.425 170.627 91.001C171.23 90.6518 171.852 90.1798 171.981 89.5217C172.026 89.3436 171.999 89.1555 171.907 88.9962C171.807 88.8874 171.682 88.8035 171.543 88.7514C171.403 88.6994 171.253 88.6806 171.105 88.6968C169.499 88.6734 167.955 89.4529 166.577 90.3297C165.2 91.2065 164.056 91.6921 162.488 92.5396Z" fill="#F2F2F2"/>
<path d="M159.14 96.8515C161.766 97.9294 164.69 98.078 167.415 97.272C168.083 97.0742 168.806 96.763 169.089 96.1538C169.175 95.9915 169.195 95.8027 169.145 95.6262C169.074 95.4971 168.973 95.3863 168.851 95.3029C168.728 95.2196 168.587 95.166 168.44 95.1465C166.885 94.7443 165.197 95.1403 163.647 95.6675C162.096 96.1948 160.869 96.3988 159.14 96.8515" fill="#F2F2F2"/>
<path d="M154.138 101.88C156.492 103.454 159.328 104.176 162.162 103.924C162.857 103.862 163.627 103.699 164.028 103.158C164.146 103.016 164.204 102.835 164.19 102.652C164.149 102.367 163.867 102.177 163.596 102.043C162.155 101.344 160.421 101.397 158.795 101.608C157.169 101.819 155.925 101.776 154.139 101.88" fill="#F2F2F2"/>
<path d="M147.14 107.688C149.791 108.708 152.718 108.792 155.424 107.927C156.089 107.715 156.802 107.387 157.072 106.772C157.155 106.608 157.17 106.419 157.116 106.244C157.042 106.116 156.939 106.007 156.814 105.927C156.689 105.846 156.547 105.795 156.399 105.78C154.836 105.414 153.157 105.844 151.619 106.405C150.081 106.966 148.858 107.196 147.14 107.688Z" fill="#F2F2F2"/>
<path d="M141.483 111.016C143.383 113.103 145.958 114.476 148.77 114.904C149.46 115.009 150.247 115.034 150.768 114.604C150.917 114.494 151.018 114.332 151.049 114.151C151.042 114.005 150.999 113.862 150.924 113.735C150.85 113.608 150.746 113.5 150.621 113.42C149.393 112.4 147.697 112.04 146.067 111.858C144.437 111.677 143.24 111.34 141.482 111.017" fill="#F2F2F2"/>
<path d="M134.922 53.6413C134.886 53.6394 134.853 53.6248 134.827 53.6002C134.802 53.5755 134.787 53.5426 134.784 53.5075L134.732 52.7803C134.729 52.7421 134.742 52.7044 134.768 52.6756C134.793 52.6467 134.829 52.629 134.868 52.6263C134.907 52.6237 134.945 52.6363 134.974 52.6614C135.003 52.6865 135.021 52.722 135.024 52.7601L135.076 53.4874C135.078 53.5078 135.075 53.5283 135.068 53.5476C135.06 53.5668 135.049 53.5843 135.035 53.5989C135.02 53.6135 135.002 53.6248 134.983 53.6321C134.964 53.6395 134.943 53.6426 134.922 53.6413Z" fill="#4F4F4F"/>
<path d="M138.238 86.6925L136.287 86.8274L134.116 55.8368L135.092 55.7695L136.067 55.7019L138.238 86.6925Z" fill="#F2C94C"/>
<path d="M135.107 53.196L134.712 53.2235L134.116 55.837L136.067 55.7021L135.107 53.196Z" fill="#F2994A"/>
<path d="M39.6519 60.9082C43.121 79.5871 56.3383 96.2411 73.9005 104.062" stroke="#F2F2F2" stroke-width="1.393" stroke-miterlimit="10"/>
<path d="M40.5303 64.8177C38.8875 62.6793 38.078 60.031 38.2491 57.3543C38.2933 56.705 38.4384 55.9869 38.9757 55.6088C39.1198 55.4968 39.3011 55.4416 39.4841 55.4541C39.6251 55.4915 39.7554 55.5604 39.8648 55.6556C39.9742 55.7507 40.0599 55.8695 40.115 56.0026C40.8613 57.3408 40.8528 58.9573 40.6821 60.4747C40.5114 61.9921 40.5874 63.1511 40.5288 64.8163" fill="#F2F2F2"/>
<path d="M42.2274 69.9524C41.5798 67.3474 41.9027 64.5999 43.1373 62.2097C43.4391 61.6309 43.8614 61.0283 44.5067 60.8912C44.6841 60.845 44.8724 60.8652 45.0356 60.9479C45.1503 61.0374 45.2425 61.1519 45.3049 61.2823C45.3673 61.4128 45.3982 61.5558 45.3952 61.7C45.5414 63.2199 44.883 64.7004 44.1152 66.0265C43.3474 67.3527 42.9514 68.4467 42.2274 69.9524Z" fill="#F2F2F2"/>
<path d="M44.9773 76.4179C44.0113 73.9104 43.9909 71.1447 44.9197 68.6236C45.1472 68.013 45.4916 67.364 46.1154 67.1501C46.2857 67.0829 46.4751 67.0802 46.6472 67.1424C46.7722 67.2175 46.8779 67.32 46.956 67.442C47.0341 67.564 47.0825 67.7021 47.0974 67.8456C47.4314 69.3366 46.9612 70.8855 46.3641 72.2943C45.767 73.703 45.5105 74.8365 44.9773 76.4179Z" fill="#F2F2F2"/>
<path d="M48.4898 82.3318C47.524 79.8243 47.5035 77.0586 48.4322 74.5375C48.6597 73.9269 49.0041 73.2779 49.6279 73.064C49.7981 72.9966 49.9877 72.994 50.1597 73.0567C50.2848 73.1316 50.3905 73.2341 50.4686 73.3561C50.5467 73.4781 50.5951 73.6163 50.6099 73.7598C50.9439 75.2509 50.4737 76.7993 49.8766 78.2085C49.2795 79.6176 49.023 80.7504 48.4898 82.3318Z" fill="#F2F2F2"/>
<path d="M54.1376 89.5164C52.9134 87.121 52.6023 84.3722 53.2611 81.77C53.4232 81.1393 53.6975 80.4588 54.2953 80.1824C54.4577 80.0982 54.646 80.0761 54.8238 80.1206C54.9557 80.1827 55.0712 80.2739 55.1613 80.3873C55.2515 80.5006 55.3138 80.633 55.3433 80.774C55.8321 82.223 55.5289 83.8113 55.0836 85.2735C54.6382 86.7357 54.5006 87.8893 54.1376 89.5149" fill="#F2F2F2"/>
<path d="M58.7546 94.3326C57.485 92.0531 57.0046 89.4279 57.3863 86.855C57.4772 86.2111 57.6613 85.5022 58.1578 85.1413C58.2202 85.0896 58.2924 85.0506 58.3702 85.0267C58.448 85.0028 58.5298 84.9944 58.611 85.002C58.8596 85.0458 59.0129 85.3113 59.1142 85.5661C59.6515 86.9164 59.5128 88.5219 59.2411 90.0247C58.9695 91.5275 58.9413 92.6803 58.7546 94.3326Z" fill="#F2F2F2"/>
<path d="M43.141 72.2507C40.3028 72.0514 37.6221 70.8898 35.5549 68.9633C35.0469 68.4905 34.5451 67.8931 34.5696 67.2236C34.5664 67.0403 34.6347 66.8627 34.7604 66.7274C34.8827 66.6434 35.0235 66.5891 35.1712 66.569C35.3189 66.5489 35.4694 66.5636 35.6102 66.6119C37.1815 66.941 38.5096 68.0408 39.6552 69.1984C40.8008 70.356 41.8043 71.08 43.1414 72.2507" fill="#F2F2F2"/>
<path d="M45.4293 77.1902C42.6244 77.6644 39.7394 77.1667 37.2649 75.7818C36.6571 75.4421 36.0251 74.9803 35.8866 74.324C35.8392 74.1468 35.8624 73.9584 35.9516 73.7975C36.0501 73.6871 36.1737 73.6013 36.3123 73.547C36.4509 73.4927 36.6006 73.4716 36.7491 73.4853C38.3545 73.4363 39.9109 74.1913 41.3033 75.0458C42.6957 75.9003 43.8461 76.3675 45.4281 77.1902" fill="#F2F2F2"/>
<path d="M49.1674 83.1913C46.5158 84.2082 43.5885 84.2891 40.8832 83.4202C40.2186 83.2074 39.5057 82.8794 39.237 82.2637C39.1544 82.0994 39.1388 81.9102 39.1936 81.7349C39.2675 81.6074 39.3711 81.4989 39.4959 81.4184C39.6207 81.3379 39.763 81.2878 39.9113 81.2721C41.4744 80.9064 43.1525 81.3404 44.6904 81.9031C46.2283 82.4659 47.4503 82.6973 49.1674 83.1913Z" fill="#F2F2F2"/>
<path d="M54.6743 90.3896C51.8597 90.8018 48.9871 90.2409 46.5448 88.8023C45.9447 88.4495 45.3235 87.9742 45.1999 87.3153C45.1564 87.137 45.1839 86.9491 45.2767 86.7902C45.3776 86.6819 45.503 86.5988 45.6428 86.5475C45.7826 86.4963 45.9328 86.4785 46.0809 86.4955C47.6874 86.4817 49.226 87.2703 50.5988 88.1552C51.9715 89.04 53.1112 89.5325 54.6743 90.3896Z" fill="#F2F2F2"/>
<path d="M59.4366 94.877C57.1117 96.4933 54.2905 97.2667 51.4523 97.0657C50.7554 97.0167 49.9831 96.8675 49.5719 96.3344C49.4515 96.1947 49.3901 96.0147 49.4005 95.8316C49.4358 95.5454 49.7145 95.3486 49.9839 95.2101C51.4119 94.485 53.1464 94.5069 54.7767 94.6879C56.407 94.8689 57.6494 94.8035 59.4366 94.8755" fill="#F2F2F2"/>
<path d="M5.46567 86.9904C24.7186 86.1253 44.159 95.0739 55.8392 110.178" stroke="#F2F2F2" stroke-width="1.393" stroke-miterlimit="10"/>
<path d="M9.53074 86.9558C7.04662 85.8592 4.24553 85.6775 1.63696 86.4439C1.00608 86.6322 0.326955 86.9327 0.0738615 87.5335C-0.00386402 87.6972 -0.0170897 87.8835 0.0367508 88.0563C0.105442 88.1837 0.203143 88.2936 0.322192 88.3776C0.441242 88.4615 0.578404 88.5171 0.722925 88.5401C2.21403 88.9558 3.81089 88.5847 5.27305 88.0797C6.73521 87.5748 7.89899 87.388 9.5326 86.9576" fill="#F2F2F2"/>
<path d="M14.989 87.4315C12.2671 87.3947 9.62225 88.3219 7.53568 90.0443C7.03097 90.4641 6.52961 91.0048 6.53926 91.6553C6.53315 91.836 6.59545 92.0124 6.71405 92.1504C6.82833 92.2405 6.96227 92.3034 7.10534 92.3339C7.24841 92.3645 7.39672 92.362 7.53865 92.3266C9.07465 92.1255 10.391 91.161 11.5303 90.1258C12.6695 89.0907 13.6623 88.4648 14.989 87.4315Z" fill="#F2F2F2"/>
<path d="M21.9999 88.6194C19.3039 88.2556 16.5648 88.8573 14.2809 90.3149C13.728 90.6706 13.1635 91.1471 13.0934 91.7939C13.0647 91.9722 13.1044 92.1547 13.2047 92.3058C13.307 92.4089 13.4321 92.4874 13.5702 92.535C13.7084 92.5825 13.8559 92.5979 14.0011 92.58C15.5508 92.5654 16.977 91.7665 18.2361 90.8765C19.4953 89.9865 20.5563 89.4852 21.9999 88.6194Z" fill="#F2F2F2"/>
<path d="M28.6389 90.6628C25.9421 90.2986 23.2022 90.9004 20.9177 92.3586C20.3644 92.7144 19.8 93.1904 19.7302 93.8376C19.7016 94.0159 19.7413 94.1983 19.8415 94.3495C19.9438 94.4526 20.0689 94.5311 20.2071 94.5787C20.3452 94.6262 20.4927 94.6416 20.6379 94.6237C22.1876 94.6091 23.6138 93.8102 24.873 92.9202C26.1321 92.0303 27.1953 91.529 28.6389 90.6628Z" fill="#F2F2F2"/>
<path d="M37.0141 94.4735C34.37 93.836 31.5816 94.1548 29.1559 95.3718C28.5685 95.6691 27.9569 96.0856 27.8199 96.7214C27.7731 96.8961 27.7936 97.0817 27.8775 97.2424C27.9683 97.3555 28.0845 97.4463 28.217 97.5077C28.3494 97.5691 28.4945 97.5995 28.6408 97.5964C30.1835 97.74 31.6861 97.0911 33.0321 96.3346C34.3781 95.5781 35.4881 95.1872 37.0159 94.4735" fill="#F2F2F2"/>
<path d="M42.8141 97.8226C40.2744 97.1156 37.57 97.2439 35.111 98.1882C34.4946 98.42 33.8348 98.7564 33.5895 99.314C33.5522 99.3854 33.5297 99.4633 33.5233 99.5434C33.517 99.6234 33.5269 99.7039 33.5524 99.7802C33.6515 100.009 33.9487 100.096 34.2234 100.137C35.6796 100.349 37.2364 99.8551 38.6614 99.2569C40.0865 98.6588 41.222 98.3725 42.813 97.8222" fill="#F2F2F2"/>
<path d="M17.4672 87.7923C16.6326 85.1121 14.8816 82.7994 12.5118 81.2475C11.9299 80.8657 11.2267 80.5162 10.5698 80.6921C10.3879 80.7302 10.2277 80.8357 10.1223 80.9868C10.0667 81.1229 10.0446 81.2701 10.0579 81.4163C10.0712 81.5625 10.1195 81.7035 10.1987 81.8277C10.8779 83.2621 12.2636 84.2907 13.6652 85.1298C15.0669 85.9689 16.0091 86.7704 17.4672 87.7912" fill="#F2F2F2"/>
<path d="M22.8664 88.8797C22.705 86.0807 21.5648 83.4232 19.6396 81.3589C19.1672 80.8514 18.5683 80.3483 17.8884 80.3629C17.7024 80.3571 17.5213 80.4217 17.3822 80.5435C17.295 80.6627 17.2378 80.8006 17.2153 80.9459C17.1928 81.0911 17.2056 81.2396 17.2527 81.379C17.5648 82.9319 18.661 84.2562 19.8189 85.401C20.9767 86.5458 21.6974 87.5455 22.8664 88.8797Z" fill="#F2F2F2"/>
<path d="M29.6413 91.1203C30.0521 88.3463 29.4751 85.5177 28.0085 83.1155C27.6485 82.5253 27.1638 81.9143 26.4947 81.7948C26.3137 81.7524 26.1231 81.78 25.9622 81.8719C25.8525 81.9716 25.7685 82.0954 25.7169 82.2333C25.6652 82.3711 25.6476 82.5191 25.6653 82.665C25.6556 84.2478 26.4609 85.7616 27.3631 87.1115C28.2653 88.4614 28.7681 89.5828 29.6424 91.1203" fill="#F2F2F2"/>
<path d="M37.9975 94.7907C37.7731 91.9959 36.5733 89.3639 34.6019 87.3422C34.1195 86.8453 33.5083 86.355 32.8288 86.3854C32.6427 86.3835 32.4629 86.4521 32.3267 86.577C32.2422 86.698 32.1881 86.8371 32.1687 86.9828C32.1494 87.1285 32.1653 87.2766 32.2153 87.415C32.5623 88.9606 33.6882 90.2608 34.8717 91.38C36.0552 92.4992 36.7981 93.4828 37.9968 94.7907" fill="#F2F2F2"/>
<path d="M43.5054 98.3547C44.5821 95.7597 44.7132 92.8773 43.8765 90.1978C43.6717 89.5396 43.3507 88.8317 42.7306 88.5564C42.5654 88.4723 42.3737 88.4538 42.1951 88.5049C42.0642 88.5755 41.9522 88.6757 41.8684 88.7974C41.7845 88.919 41.7311 89.0584 41.7126 89.2043C41.3163 90.74 41.7275 92.3985 42.273 93.921C42.8185 95.4435 43.0327 96.6531 43.5051 98.3529" fill="#F2F2F2"/>
<path d="M66.3099 95.0169C64.9035 93.7372 63.2391 92.7639 61.4253 92.1605C59.6115 91.5571 57.689 91.3371 55.7831 91.5148C53.2102 91.7708 50.4047 93.1236 49.8384 95.6099C49.5689 96.7939 49.6632 98.3646 48.5258 98.8297C47.4124 99.2849 46.3362 98.1551 45.1947 97.7774C43.2921 97.1489 41.1215 99.2915 41.7631 101.165C42.0548 102.017 42.7862 102.758 42.7258 103.655C42.643 104.877 41.1103 105.514 39.8831 105.324C38.6558 105.134 37.5718 104.428 36.3676 104.126C35.1634 103.825 33.6044 104.126 33.1813 105.278C32.8024 106.31 33.4563 107.696 32.6339 108.436C32.2464 108.715 31.7781 108.865 31.2979 108.863C20.8699 109.838 9.38972 111.681 10.5565 113.506C10.8753 114.005 11.6906 113.846 12.2888 113.835C34.4809 113.493 54.6375 113.167 76.8211 113.838" fill="#F2C94C"/>
<path d="M128.709 60.6729L135.288 86.0882L134.036 86.4027L125.897 61.3789" fill="#F2F2F2"/>
<path d="M122.621 61.2527C119.262 62.0966 115.687 59.5299 114.652 55.5305C113.616 51.5312 115.508 47.5911 118.867 46.7472C122.226 45.9033 125.801 48.4701 126.836 52.4691C127.871 56.468 125.981 60.4088 122.621 61.2527ZM119.443 48.971C117.327 49.5023 116.191 52.1908 116.909 54.9634C117.626 57.736 119.931 59.5602 122.046 59.0289C124.16 58.4977 125.297 55.8091 124.579 53.0362C123.862 50.2632 121.557 48.4398 119.443 48.971Z" fill="#4F4F4F"/>
<path d="M126.08 54.1894L128.08 61.9175C128.104 62.0099 128.11 62.1061 128.096 62.2005C128.082 62.295 128.05 62.3858 128 62.4678C127.951 62.5498 127.885 62.6215 127.808 62.6786C127.73 62.7358 127.642 62.7773 127.548 62.8009C127.359 62.8484 127.158 62.8199 126.99 62.7216C126.822 62.6233 126.7 62.4632 126.652 62.2765L126.426 61.4038C126.426 61.4038 125.375 59.1964 122.472 60.1065C122.472 60.1065 125.935 59.6802 126.053 59.6886C126.171 59.697 125.971 53.7682 126.08 54.1894Z" fill="#C0EDFF"/>
<path d="M127.836 63.9129C127.347 64.0351 126.829 63.9613 126.396 63.7077C125.962 63.454 125.649 63.0413 125.524 62.56C125.458 62.2276 125.336 61.9085 125.164 61.6159C124.787 61.0898 124.02 60.892 122.616 61.2444L122.261 59.2908C122.999 59.0583 123.53 58.7077 124.123 58.7486C124.441 58.7102 124.705 58.6791 124.926 58.6535C124.924 58.055 124.912 57.266 124.903 56.6608C124.894 56.018 125.74 55.2952 125.738 54.8326C125.735 54.0045 124.873 53.1675 125.916 53.0297L126.943 52.8955L129.209 61.6342C129.333 62.1157 129.258 62.6261 129.001 63.0532C128.743 63.4804 128.324 63.7896 127.836 63.9129Z" fill="#4F4F4F"/>
<path d="M129.678 60.4426L129.697 86.6734H130.988L132.58 60.4426" fill="#F2F2F2"/>
<path d="M129.428 52.0378C129.425 47.9105 132.243 44.5507 135.71 44.5481C139.177 44.5455 142 47.9013 142.003 52.0287C142.006 56.156 139.188 59.5158 135.721 59.518C132.255 59.5202 129.431 56.1647 129.428 52.0378ZM131.758 52.0378C131.76 54.8996 133.539 57.2265 135.72 57.2251C137.9 57.2236 139.676 54.8938 139.674 52.033C139.672 49.1723 137.894 46.8443 135.712 46.8458C133.529 46.8472 131.755 49.1741 131.758 52.036V52.0378Z" fill="#4F4F4F"/>
<path d="M130.594 53.5197C130.594 53.9548 130.6 61.4949 130.6 61.4949C130.6 61.6876 130.678 61.8722 130.816 62.0083C130.955 62.1444 131.142 62.2208 131.338 62.2207C131.434 62.2207 131.53 62.2019 131.62 62.1654C131.709 62.1289 131.79 62.0754 131.859 62.0079C131.927 61.9404 131.981 61.8603 132.018 61.7722C132.055 61.684 132.074 61.5896 132.074 61.4942V60.5933C132.074 60.5933 132.537 58.1984 135.579 58.3709C135.579 58.3709 132.116 58.8035 132.004 58.8404C131.892 58.8774 130.594 53.0846 130.594 53.5197Z" fill="#C0EDFF"/>
<path d="M131.338 63.3685C131.843 63.3676 132.326 63.1696 132.682 62.8181C133.038 62.4667 133.238 61.9903 133.239 61.4936C133.219 61.1556 133.256 60.8167 133.35 60.491C133.582 59.8892 134.276 59.5104 135.725 59.5093L135.577 57.5297C134.803 57.4844 134.201 57.2738 133.636 57.4588C133.319 57.4994 133.055 57.5337 132.834 57.563C132.685 56.9827 132.5 56.2152 132.356 55.6269C132.203 55.0017 131.201 54.5081 131.087 54.0606C130.881 53.2562 131.506 52.2357 130.461 52.3571L129.432 52.4774L129.435 61.4961C129.435 61.993 129.636 62.4693 129.993 62.8203C130.35 63.1714 130.834 63.3685 131.338 63.3685Z" fill="#4F4F4F"/>
<path d="M143.241 52.7195L145.736 53.1634C145.849 53.1836 145.949 53.2473 146.015 53.3404C146.081 53.4335 146.106 53.5484 146.085 53.6599L140.885 82.0317L137.537 81.436L142.737 53.0642C142.758 52.9526 142.822 52.8536 142.917 52.789C143.011 52.7244 143.128 52.6994 143.241 52.7195Z" fill="#F2C94C"/>
<path d="M143.242 52.7196L145.736 53.1642C145.849 53.1845 145.95 53.2482 146.015 53.3413C146.081 53.4344 146.106 53.5493 146.085 53.6608L145.585 56.3873L142.237 55.7906L142.738 53.0641C142.758 52.9526 142.823 52.8536 142.917 52.789C143.012 52.7244 143.128 52.6995 143.242 52.7196Z" fill="#EB5757"/>
<g opacity="0.5">
<g opacity="0.5">
<path opacity="0.5" d="M142.239 55.7936L142.058 56.7812L145.406 57.378L145.587 56.3904L142.239 55.7936Z" fill="#599FD2"/>
</g>
</g>
<path d="M155.159 59.4119L149.695 57.29L138.044 86.4159L143.508 88.5378L155.159 59.4119Z" fill="#00B8F1"/>
<path d="M152.979 59.6597L154.78 60.3591" stroke="#F2F2F2" stroke-width="1.393" stroke-miterlimit="10"/>
<path d="M152.374 61.1726L154.175 61.8721" stroke="#F2F2F2" stroke-width="1.393" stroke-miterlimit="10"/>
<path d="M151.769 62.6853L153.569 63.3848" stroke="#F2F2F2" stroke-width="1.393" stroke-miterlimit="10"/>
<path d="M150.283 63.856L152.964 64.8973" stroke="#F2F2F2" stroke-width="1.393" stroke-miterlimit="10"/>
<path d="M150.558 65.7109L152.359 66.4104" stroke="#F2F2F2" stroke-width="1.393" stroke-miterlimit="10"/>
<path d="M149.953 67.2239L151.754 67.9233" stroke="#F2F2F2" stroke-width="1.393" stroke-miterlimit="10"/>
<path d="M149.348 68.7371L151.149 69.4365" stroke="#F2F2F2" stroke-width="1.393" stroke-miterlimit="10"/>
<path d="M147.862 69.9077L150.544 70.949" stroke="#F2F2F2" stroke-width="1.393" stroke-miterlimit="10"/>
<path d="M148.138 71.7625L149.939 72.4619" stroke="#F2F2F2" stroke-width="1.393" stroke-miterlimit="10"/>
<path d="M147.532 73.2756L149.333 73.9751" stroke="#F2F2F2" stroke-width="1.393" stroke-miterlimit="10"/>
<path d="M146.927 74.7883L148.728 75.4878" stroke="#F2F2F2" stroke-width="1.393" stroke-miterlimit="10"/>
<path d="M145.441 75.959L148.123 77.0003" stroke="#F2F2F2" stroke-width="1.393" stroke-miterlimit="10"/>
<path d="M145.717 77.814L147.518 78.5135" stroke="#F2F2F2" stroke-width="1.393" stroke-miterlimit="10"/>
<path d="M145.112 79.3267L146.912 80.0261" stroke="#F2F2F2" stroke-width="1.393" stroke-miterlimit="10"/>
<path d="M144.506 80.8398L146.307 81.5393" stroke="#F2F2F2" stroke-width="1.393" stroke-miterlimit="10"/>
<path d="M143.02 82.0107L145.702 83.0521" stroke="#F2F2F2" stroke-width="1.393" stroke-miterlimit="10"/>
<path d="M143.296 83.8655L145.097 84.5649" stroke="#F2F2F2" stroke-width="1.393" stroke-miterlimit="10"/>
<path d="M142.69 85.3782L144.491 86.0776" stroke="#F2F2F2" stroke-width="1.393" stroke-miterlimit="10"/>
<path d="M142.085 86.8911L143.886 87.5906" stroke="#F2F2F2" stroke-width="1.393" stroke-miterlimit="10"/>
<path d="M147.501 115.128H120.255L115.679 74.5189C115.665 74.397 115.678 74.2737 115.715 74.1569C115.753 74.0402 115.816 73.9326 115.899 73.8413C115.982 73.7499 116.084 73.6769 116.197 73.6268C116.311 73.5768 116.434 73.551 116.558 73.551H151.198C151.322 73.551 151.445 73.5768 151.559 73.6268C151.672 73.6769 151.774 73.7499 151.857 73.8413C151.94 73.9326 152.003 74.0402 152.04 74.1569C152.078 74.2737 152.091 74.397 152.077 74.5189L147.501 115.128Z" fill="#B2E4C7"/>
<path d="M113.335 116.898L162.568 117.558C163.118 117.566 164.854 117.036 161.863 115.136C159.329 113.527 151.323 114.975 151.323 114.975C151.323 114.975 153.187 114.238 153.179 113.288C153.17 112.338 152.439 111.503 151.561 111.108C150.659 110.762 149.684 110.635 148.721 110.74C146.758 110.852 144.826 111.278 143.001 112.001C143.195 111.884 143.362 111.728 143.492 111.545C143.622 111.361 143.712 111.153 143.757 110.933C143.802 110.714 143.801 110.487 143.753 110.268C143.706 110.049 143.613 109.842 143.481 109.66C143.349 109.477 143.18 109.324 142.985 109.209C142.79 109.093 142.573 109.019 142.348 108.989C142.123 108.96 141.893 108.977 141.675 109.038C141.456 109.1 141.253 109.205 141.077 109.348C142.307 107.707 144.209 100.434 138.365 97.2285C131.04 93.2109 125.477 96.517 124.29 98.9349C123.688 96.5616 120.924 94.7645 119.104 94.3191C114.952 93.3034 112.248 93.6047 108.372 95.3879C106.999 96.019 105.165 98.1737 104.253 99.3638C102.825 101.229 102.603 103.706 102.524 106.04C102.465 107.792 102.457 109.545 102.5 111.298" fill="#F2C94C"/>
<path opacity="0.4" d="M122.925 119.482C122.925 120.321 106.396 121 86.0071 121C65.6178 121 49.0906 120.321 49.0906 119.482C49.0906 118.644 65.6193 117.965 86.0086 117.965C106.398 117.965 122.925 118.644 122.925 119.482Z" fill="#A1D7E5"/>
<path d="M86.7099 13.6105C85.7274 13.6105 84.7851 13.995 84.0903 14.6796C83.3955 15.3641 83.0052 16.2925 83.0052 17.2606V21.9408H90.4151V17.2606C90.4151 16.7812 90.3192 16.3066 90.133 15.8637C89.9468 15.4208 89.6739 15.0184 89.3298 14.6794C88.9858 14.3405 88.5773 14.0716 88.1278 13.8882C87.6783 13.7048 87.1965 13.6104 86.7099 13.6105ZM86.7099 19.3553C86.2989 19.3553 85.8971 19.2353 85.5554 19.0103C85.2136 18.7853 84.9472 18.4655 84.7899 18.0914C84.6326 17.7172 84.5915 17.3055 84.6717 16.9083C84.7519 16.5111 84.9498 16.1463 85.2404 15.8599C85.5311 15.5736 85.9014 15.3786 86.3045 15.2996C86.7076 15.2206 87.1255 15.2611 87.5052 15.4161C87.885 15.5711 88.2095 15.8335 88.4379 16.1702C88.6663 16.5069 88.7881 16.9028 88.7881 17.3078C88.7881 17.8508 88.5692 18.3716 88.1794 18.7556C87.7897 19.1396 87.2611 19.3553 86.7099 19.3553Z" fill="#00B8F1"/>
<path opacity="0.45" d="M88.7889 17.3074C88.7959 17.0106 88.7358 16.7161 88.6131 16.445C88.4903 16.1739 88.3079 15.9331 88.079 15.7401C87.8501 15.547 87.5806 15.4066 87.2898 15.3288C86.999 15.2511 86.6944 15.238 86.3978 15.2906C86.6534 15.1449 86.9465 15.0757 87.2414 15.0913C87.7925 15.0913 88.3211 15.307 88.7109 15.691C89.1006 16.075 89.3196 16.5958 89.3196 17.1388C89.3196 18.1644 88.7885 18.7202 87.9862 18.9228C88.226 18.7228 88.4212 18.476 88.5594 18.198C88.6975 17.9199 88.7757 17.6167 88.7889 17.3074ZM84.1371 21.4716V16.7915C84.1184 16.1967 84.2512 15.6068 84.5235 15.0757C84.7958 14.5445 85.1988 14.089 85.6957 13.7509C84.9214 13.9681 84.24 14.428 83.7547 15.061C83.2694 15.694 83.0067 16.4655 83.0063 17.2588V21.9389H90.4162V21.4716H84.1371Z" fill="#B03D44"/>
<path d="M117.308 22.1847H54.7062C52.7095 22.1847 51.0909 23.7795 51.0909 25.7467V115.903C51.0909 117.871 52.7095 119.466 54.7062 119.466H117.308C119.305 119.466 120.924 117.871 120.924 115.903V25.7467C120.924 23.7795 119.305 22.1847 117.308 22.1847Z" fill="#27AE60"/>
<path d="M116.876 26H55.1381V115.65H116.876V26Z" fill="#6FCF97"/>
<path d="M114.502 28.7386H57.5121V112.911H114.502V28.7386Z" fill="white"/>
<path d="M108.468 23.7949V27.4513H63.5452V23.7949C63.5445 23.5357 63.5846 23.2779 63.6639 23.0307C63.8294 22.5085 64.1599 22.052 64.6071 21.7277C65.0544 21.4035 65.5951 21.2285 66.1504 21.2281H105.862C106.205 21.228 106.543 21.2942 106.86 21.4231C107.176 21.5521 107.463 21.7411 107.705 21.9795C107.947 22.2179 108.139 22.5009 108.27 22.8124C108.4 23.1239 108.468 23.4578 108.468 23.7949Z" fill="#00B8F1"/>
<path opacity="0.45" d="M108.468 26.5372V27.4513H63.5452V24.8041C63.5378 24.2108 63.5775 23.6179 63.6639 23.0307C63.8294 22.5085 64.1599 22.052 64.6071 21.7277C65.0544 21.4035 65.5951 21.2285 66.1503 21.2281H66.4695C65.733 21.9265 65.3062 22.8832 65.282 23.89V26.5372H108.468Z" fill="#B03D44"/>
<path opacity="0.15" d="M73.3167 37.6873H82.574" stroke="#0964AF" stroke-linecap="round" stroke-linejoin="round"/>
<path opacity="0.15" d="M103.348 40.595H110.387" stroke="#0964AF" stroke-linecap="round" stroke-linejoin="round"/>
<path opacity="0.15" d="M73.3167 40.595H100.298" stroke="#0964AF" stroke-linecap="round" stroke-linejoin="round"/>
<path opacity="0.15" d="M73.3167 43.5027H110.387" stroke="#0964AF" stroke-linecap="round" stroke-linejoin="round"/>
<path opacity="0.15" d="M98.6039 46.4106H110.387" stroke="#0964AF" stroke-linecap="round" stroke-linejoin="round"/>
<path opacity="0.15" d="M73.3167 46.4106H95.6711" stroke="#0964AF" stroke-linecap="round" stroke-linejoin="round"/>
<path opacity="0.15" d="M85.6119 37.6873H110.387" stroke="#0964AF" stroke-linecap="round" stroke-linejoin="round"/>
<path opacity="0.15" d="M73.3167 58.5903H82.574" stroke="#0964AF" stroke-linecap="round" stroke-linejoin="round"/>
<path opacity="0.15" d="M103.348 61.498H110.387" stroke="#0964AF" stroke-linecap="round" stroke-linejoin="round"/>
<path opacity="0.15" d="M73.3167 61.498H100.298" stroke="#0964AF" stroke-linecap="round" stroke-linejoin="round"/>
<path opacity="0.15" d="M73.3167 64.4062H110.387" stroke="#0964AF" stroke-linecap="round" stroke-linejoin="round"/>
<path opacity="0.15" d="M98.6039 67.3142H110.387" stroke="#0964AF" stroke-linecap="round" stroke-linejoin="round"/>
<path opacity="0.15" d="M73.3167 67.3142H95.6711" stroke="#0964AF" stroke-linecap="round" stroke-linejoin="round"/>
<path opacity="0.15" d="M85.6119 58.5903H110.387" stroke="#0964AF" stroke-linecap="round" stroke-linejoin="round"/>
<path opacity="0.15" d="M73.3167 78.7625H82.574" stroke="#0964AF" stroke-linecap="round" stroke-linejoin="round"/>
<path opacity="0.15" d="M103.348 81.6704H110.387" stroke="#0964AF" stroke-linecap="round" stroke-linejoin="round"/>
<path opacity="0.15" d="M73.3167 81.6704H100.298" stroke="#0964AF" stroke-linecap="round" stroke-linejoin="round"/>
<path opacity="0.15" d="M73.3167 84.5784H110.387" stroke="#0964AF" stroke-linecap="round" stroke-linejoin="round"/>
<path opacity="0.15" d="M98.6039 87.4858H110.387" stroke="#0964AF" stroke-linecap="round" stroke-linejoin="round"/>
<path opacity="0.15" d="M73.3167 87.4858H95.6711" stroke="#0964AF" stroke-linecap="round" stroke-linejoin="round"/>
<path opacity="0.15" d="M85.6119 78.7625H110.387" stroke="#0964AF" stroke-linecap="round" stroke-linejoin="round"/>
<path opacity="0.15" d="M73.3167 99.3003H82.574" stroke="#0964AF" stroke-linecap="round" stroke-linejoin="round"/>
<path opacity="0.15" d="M103.348 102.208H110.387" stroke="#0964AF" stroke-linecap="round" stroke-linejoin="round"/>
<path opacity="0.15" d="M73.3167 102.208H100.298" stroke="#0964AF" stroke-linecap="round" stroke-linejoin="round"/>
<path opacity="0.15" d="M73.3167 105.116H110.387" stroke="#0964AF" stroke-linecap="round" stroke-linejoin="round"/>
<path opacity="0.15" d="M98.6039 108.024H110.387" stroke="#0964AF" stroke-linecap="round" stroke-linejoin="round"/>
<path opacity="0.15" d="M73.3167 108.024H95.6711" stroke="#0964AF" stroke-linecap="round" stroke-linejoin="round"/>
<path opacity="0.15" d="M85.6119 99.3003H110.387" stroke="#0964AF" stroke-linecap="round" stroke-linejoin="round"/>
<path d="M69.4109 36.8098H62.4846C62.0537 36.8098 61.7045 37.1539 61.7045 37.5784V44.4026C61.7045 44.8271 62.0537 45.1712 62.4846 45.1712H69.4109C69.8417 45.1712 70.1909 44.8271 70.1909 44.4026V37.5784C70.1909 37.1539 69.8417 36.8098 69.4109 36.8098Z" stroke="#2396B5" stroke-width="1.157" stroke-miterlimit="10"/>
<path d="M69.4109 57.6453H62.4846C62.0537 57.6453 61.7045 57.9894 61.7045 58.4138V65.2384C61.7045 65.6629 62.0537 66.007 62.4846 66.007H69.4109C69.8417 66.007 70.1909 65.6629 70.1909 65.2384V58.4138C70.1909 57.9894 69.8417 57.6453 69.4109 57.6453Z" stroke="#2396B5" stroke-width="1.157" stroke-miterlimit="10"/>
<path d="M69.4109 78.4805H62.4846C62.0537 78.4805 61.7045 78.8246 61.7045 79.249V86.0733C61.7045 86.4977 62.0537 86.8418 62.4846 86.8418H69.4109C69.8417 86.8418 70.1909 86.4977 70.1909 86.0733V79.249C70.1909 78.8246 69.8417 78.4805 69.4109 78.4805Z" stroke="#2396B5" stroke-width="1.157" stroke-miterlimit="10"/>
<path d="M69.4109 99.3159H62.4846C62.0537 99.3159 61.7045 99.66 61.7045 100.084V106.909C61.7045 107.333 62.0537 107.677 62.4846 107.677H69.4109C69.8417 107.677 70.1909 107.333 70.1909 106.909V100.084C70.1909 99.66 69.8417 99.3159 69.4109 99.3159Z" stroke="#2396B5" stroke-width="1.157" stroke-miterlimit="10"/>
<path d="M62.7473 39.5184L65.9462 43.3247L72.101 33.7563" stroke="#FFA829" stroke-width="3.47" stroke-linecap="round" stroke-linejoin="round"/>
<path d="M62.7473 60.1805L65.9462 63.9868L72.101 54.4185" stroke="#FFA829" stroke-width="3.47" stroke-linecap="round" stroke-linejoin="round"/>
</g>
<defs>
<clipPath id="clip0">
<rect width="172" height="121" fill="white"/>
</clipPath>
</defs>
</svg>
