<svg width="201" height="156" viewBox="0 0 201 156" fill="none" xmlns="http://www.w3.org/2000/svg">
<g clip-path="url(#clip0)">
<path d="M135.436 17.8331C140.372 17.8331 144.374 13.8411 144.374 8.91657C144.374 3.99208 140.372 0 135.436 0C130.5 0 126.498 3.99208 126.498 8.91657C126.498 13.8411 130.5 17.8331 135.436 17.8331Z" fill="#F2F2F2"/>
<path d="M191.379 76.1044C196.493 94.206 186.414 121.696 163.321 114.508C156.748 112.461 151.128 108.202 145.766 103.893C138.975 98.4354 131.557 91.9397 122.688 90.372C111.004 88.3062 98.764 91.6393 88.4123 97.0068C67.4329 107.887 41.9654 142.889 14.8845 127.772C-4.08695 117.182 -4.89228 85.9328 12.2926 73.6298C17.0631 70.2144 22.4447 67.6842 27.0406 64.0387C35.8461 57.0537 40.4126 46.8361 41.4522 35.8394C41.9422 30.632 41.8438 25.2463 43.7791 20.385C45.1048 17.17 47.2512 14.3573 50.0048 12.2269C52.7585 10.0965 56.0233 8.72258 59.4745 8.24189C74.6733 6.31158 85.8881 17.4975 96.6723 26.3216C108.937 36.358 122.685 41.8868 138.301 44.5023C157.001 47.6337 176.553 49.6889 187.504 67.2385C189.207 69.9972 190.512 72.982 191.379 76.1044Z" fill="#F2F2F2"/>
<path d="M7.44037 54.409C7.62255 63.6446 18.6624 64.4231 24.2676 59.2827C27.5441 56.2775 29.2563 51.8739 29.8278 47.4702C30.4416 42.7485 31.0919 34.7806 27.725 30.8218C19.2267 20.8307 7.31922 48.255 7.44037 54.409Z" fill="#F2F2F2"/>
<path d="M166.674 135.439C181.195 128.992 169.638 111.35 156.741 115.808C141.273 121.154 151.206 142.308 166.674 135.439Z" fill="#F2F2F2"/>
<path d="M141.774 26.2971V152.742C141.774 153.148 141.694 153.55 141.538 153.925C141.383 154.301 141.154 154.642 140.866 154.929C140.578 155.216 140.237 155.444 139.861 155.599C139.484 155.755 139.081 155.835 138.674 155.834H45.9458C45.5387 155.835 45.1356 155.755 44.7594 155.599C44.3833 155.444 44.0415 155.216 43.7536 154.929C43.4657 154.642 43.2373 154.301 43.0816 153.925C42.9258 153.55 42.8456 153.148 42.8457 152.742V26.2971C42.8456 25.8909 42.9258 25.4887 43.0816 25.1135C43.2373 24.7382 43.4657 24.3973 43.7536 24.1101C44.0415 23.8229 44.3833 23.5951 44.7594 23.4397C45.1356 23.2842 45.5387 23.2043 45.9458 23.2043H138.674C139.081 23.2043 139.484 23.2842 139.861 23.4397C140.237 23.5951 140.578 23.8229 140.866 24.1101C141.154 24.3973 141.383 24.7382 141.538 25.1135C141.694 25.4887 141.774 25.8909 141.774 26.2971Z" fill="#27AE60"/>
<path d="M141.774 58.1536V152.742C141.774 153.148 141.694 153.55 141.538 153.925C141.383 154.301 141.154 154.642 140.866 154.929C140.578 155.216 140.237 155.444 139.861 155.599C139.484 155.755 139.081 155.835 138.674 155.835H45.9458C45.5387 155.835 45.1356 155.755 44.7594 155.599C44.3833 155.444 44.0415 155.216 43.7536 154.929C43.4657 154.642 43.2373 154.301 43.0816 153.925C42.9258 153.55 42.8456 153.148 42.8457 152.742V110.056L141.774 58.1536Z" fill="#219653"/>
<path d="M119.021 145.773H50.9277V32.4365H133.695V130.561L119.021 145.773Z" fill="#F5F5FD"/>
<path d="M119.02 145.773V130.561H133.694L119.02 145.773Z" fill="#AAAFD7"/>
<path d="M75.6699 59.8457H101.011" stroke="#92CDF5" stroke-width="1.971" stroke-linecap="round" stroke-linejoin="round"/>
<path d="M75.6699 67.5063H84.7098" stroke="#92CDF5" stroke-width="1.971" stroke-linecap="round" stroke-linejoin="round"/>
<path d="M89.4766 67.5063H111.031" stroke="#92CDF5" stroke-width="1.971" stroke-linecap="round" stroke-linejoin="round"/>
<path d="M79.3887 63.676H120.211" stroke="#92CDF5" stroke-width="1.971" stroke-linecap="round" stroke-linejoin="round"/>
<path d="M126.846 59.8457H108.727" stroke="#92CDF5" stroke-width="1.971" stroke-linecap="round" stroke-linejoin="round"/>
<path d="M70.15 59.8457H60.4785V69.4941H70.15V59.8457Z" stroke="#009D57" stroke-width="1.971" stroke-linecap="round" stroke-linejoin="round"/>
<path d="M63.7305 63.6814L65.913 65.9521L74.2509 59.8457" stroke="#FFCC29" stroke-width="4" stroke-linecap="round" stroke-linejoin="round"/>
<path d="M75.6699 75.6284H83.9071" stroke="#92CDF5" stroke-width="1.971" stroke-linecap="round" stroke-linejoin="round"/>
<path d="M75.6699 83.2891H81.5027" stroke="#92CDF5" stroke-width="1.971" stroke-linecap="round" stroke-linejoin="round"/>
<path d="M89.4766 83.2891H115.678" stroke="#92CDF5" stroke-width="1.971" stroke-linecap="round" stroke-linejoin="round"/>
<path d="M79.3887 79.4587H94.6858" stroke="#92CDF5" stroke-width="1.971" stroke-linecap="round" stroke-linejoin="round"/>
<path d="M98.7363 79.4587H125.527" stroke="#92CDF5" stroke-width="1.971" stroke-linecap="round" stroke-linejoin="round"/>
<path d="M105.161 75.6284H89.4766" stroke="#92CDF5" stroke-width="1.971" stroke-linecap="round" stroke-linejoin="round"/>
<path d="M70.15 74.7444H60.4785V84.3928H70.15V74.7444Z" stroke="#009D57" stroke-width="1.971" stroke-linecap="round" stroke-linejoin="round"/>
<path d="M63.7305 78.8443L65.913 81.115L74.2509 75.0085" stroke="#FFCC29" stroke-width="4" stroke-linecap="round" stroke-linejoin="round"/>
<path d="M75.6699 91.4109H89.4772" stroke="#92CDF5" stroke-width="1.971" stroke-linecap="round" stroke-linejoin="round"/>
<path d="M75.6699 99.0715H101.669" stroke="#92CDF5" stroke-width="1.971" stroke-linecap="round" stroke-linejoin="round"/>
<path d="M108.539 99.0715H122.429" stroke="#92CDF5" stroke-width="1.971" stroke-linecap="round" stroke-linejoin="round"/>
<path d="M79.3887 95.2412H96.8283" stroke="#92CDF5" stroke-width="1.971" stroke-linecap="round" stroke-linejoin="round"/>
<path d="M119.854 95.2412H105.16" stroke="#92CDF5" stroke-width="1.971" stroke-linecap="round" stroke-linejoin="round"/>
<path d="M126.846 91.4109H94.6855" stroke="#92CDF5" stroke-width="1.971" stroke-linecap="round" stroke-linejoin="round"/>
<path d="M70.15 89.6433H60.4785V99.2918H70.15V89.6433Z" stroke="#009D57" stroke-width="1.971" stroke-linecap="round" stroke-linejoin="round"/>
<path d="M63.7305 93.4789L65.913 95.7496L74.2492 89.6423" stroke="#FFCC29" stroke-width="4" stroke-linecap="round" stroke-linejoin="round"/>
<path d="M75.6699 107.194H101.011" stroke="#92CDF5" stroke-width="1.971" stroke-linecap="round" stroke-linejoin="round"/>
<path d="M75.6699 114.854H84.7098" stroke="#92CDF5" stroke-width="1.971" stroke-linecap="round" stroke-linejoin="round"/>
<path d="M89.4766 114.854H111.031" stroke="#92CDF5" stroke-width="1.971" stroke-linecap="round" stroke-linejoin="round"/>
<path d="M79.3887 111.024H120.211" stroke="#92CDF5" stroke-width="1.971" stroke-linecap="round" stroke-linejoin="round"/>
<path d="M126.846 107.194H108.727" stroke="#92CDF5" stroke-width="1.971" stroke-linecap="round" stroke-linejoin="round"/>
<path d="M70.15 104.542H60.4785V114.19H70.15V104.542Z" stroke="#009D57" stroke-width="1.971" stroke-linecap="round" stroke-linejoin="round"/>
<path d="M63.7305 108.115L65.913 110.386L74.2509 104.28" stroke="#FFCC29" stroke-width="4" stroke-linecap="round" stroke-linejoin="round"/>
<path d="M119.098 18.9697V18.9653H107.21C106.734 18.9691 106.263 18.8697 105.829 18.6738C105.396 18.478 105.01 18.1905 104.699 17.8312C104.388 17.4719 104.159 17.0494 104.028 16.593C103.897 16.1366 103.867 15.6573 103.94 15.1882C104.23 13.5089 104.152 11.7868 103.711 10.1405C103.269 8.4943 102.476 6.96301 101.384 5.65211C100.293 4.34122 98.9298 3.28185 97.3887 2.54697C95.8476 1.81209 94.1651 1.41914 92.4571 1.3952C90.8947 1.37579 89.344 1.66604 87.8949 2.24912C86.4458 2.83221 85.1271 3.69651 84.0154 4.79192C82.9038 5.88732 82.0211 7.19202 81.4188 8.63034C80.8164 10.0687 80.5063 11.612 80.5064 13.1708C80.5072 13.7403 80.5489 14.3091 80.6311 14.8727C80.7013 15.3838 80.6606 15.904 80.5119 16.398C80.3632 16.8921 80.1099 17.3485 79.7691 17.7365C79.4283 18.1245 79.008 18.435 78.5366 18.647C78.0652 18.859 77.5536 18.9675 77.0366 18.9653H65.5224V18.9697C64.6687 18.9844 63.8551 19.3332 63.2568 19.9408C62.6586 20.5484 62.3236 21.3663 62.3242 22.218V32.0975C62.3239 32.6964 62.4898 33.2836 62.8035 33.7942C63.1172 34.3048 63.5664 34.7188 64.1015 34.9903C64.5409 35.2175 65.0275 35.3392 65.5224 35.3458V35.3502H119.098V35.3458C119.951 35.3304 120.765 34.9815 121.363 34.374C121.961 33.7665 122.296 32.949 122.296 32.0975V22.2193C122.297 21.3674 121.962 20.5492 121.364 19.9413C120.766 19.3334 119.952 18.9844 119.098 18.9697ZM92.3101 6.74976C93.5831 6.74976 94.8275 7.12635 95.886 7.8319C96.9444 8.53746 97.7694 9.54028 98.2566 10.7136C98.7437 11.8869 98.8712 13.1779 98.6228 14.4235C98.3745 15.669 97.7615 16.8132 96.8613 17.7112C95.9612 18.6092 94.8143 19.2207 93.5658 19.4685C92.3173 19.7162 91.0231 19.5891 89.847 19.1031C88.6709 18.6171 87.6657 17.7941 86.9585 16.7381C86.2512 15.6822 85.8738 14.4408 85.8738 13.1708C85.8738 12.3275 86.0404 11.4925 86.3639 10.7134C86.6874 9.93437 87.1616 9.22651 87.7594 8.63026C88.3571 8.03401 89.0667 7.56105 89.8477 7.2384C90.6287 6.91574 91.4657 6.74971 92.311 6.74976H92.3101Z" fill="#828282"/>
<path d="M122.296 22.2179V32.0975C122.296 32.949 121.961 33.7664 121.363 34.3739C120.765 34.9814 119.951 35.3304 119.098 35.3457V35.3502H65.5225V35.3457C65.0276 35.3392 64.541 35.2175 64.1016 34.9903L110.181 18.9666H119.098V18.971C119.951 18.9857 120.765 19.3343 121.363 19.9416C121.961 20.549 122.296 21.3665 122.296 22.2179Z" fill="#4F4F4F"/>
<path d="M66.2012 22.1252H118.419" stroke="white" stroke-width="2" stroke-linecap="round" stroke-linejoin="round"/>
<path d="M66.2012 25.241H118.419" stroke="white" stroke-width="2" stroke-linecap="round" stroke-linejoin="round"/>
<path d="M66.2012 28.3569H118.419" stroke="white" stroke-width="2" stroke-linecap="round" stroke-linejoin="round"/>
<path d="M151.246 100.555L154.004 127.435L151.591 148.525L154.17 148.756L159.162 124.945L162.157 103.035L160.16 95.6784L158.271 95.283L141.025 97.7238L161.526 143.648L164.354 142.334L151.246 100.555Z" fill="#27AE60"/>
<path d="M142.844 97.4661L144.021 92.0791L158.272 95.2825L142.844 97.4661Z" fill="#FFC6C2"/>
<path d="M151.246 100.555L153.852 125.952L149.521 116.422L151.246 100.555Z" fill="#219653"/>
<path d="M159.162 124.945L157.25 134.066L159.388 138.858L159.162 124.945Z" fill="#219653"/>
<path d="M151.606 63.4827L148.111 67.2597C148.111 67.2597 151.615 74.0531 157.941 69.8499L156.902 63.6857L151.606 63.4827Z" fill="#FFC6C2"/>
<path d="M151.212 57.9723L150.949 63.9552L152.088 64.7062C152.668 65.0891 153.341 65.3115 154.036 65.3505C154.731 65.3895 155.424 65.2439 156.044 64.9284L157.434 64.2218L158.466 56.3602L151.514 55.4172L151.212 57.9723Z" fill="#FFC6C2"/>
<path d="M152.664 61.8416L155.857 62.4203L155.851 62.4496C155.833 62.5517 155.794 62.6492 155.738 62.7365C155.682 62.8238 155.609 62.8991 155.523 62.9582C155.438 63.0173 155.341 63.059 155.24 63.081C155.138 63.1029 155.033 63.1047 154.93 63.0861L153.296 62.7899C153.09 62.7524 152.906 62.6346 152.787 62.4623C152.667 62.2901 152.621 62.0774 152.659 61.8713L152.664 61.8416Z" fill="white"/>
<path d="M155.078 57.8044L153.283 60.7021L155.162 61.1656L155.078 57.8044Z" fill="#FFA69B"/>
<path d="M149.221 64.6219C149.221 64.6219 147.338 69.5743 152.987 69.5743C152.987 69.5743 157.477 70.1729 158.636 67.2579L161.531 66.1536L169.932 64.6219L172.446 71.2069L163.124 75.0449L159.793 86.4512L161.966 96.0561L137.488 90.9313L143.717 82.2435L141.11 66.1545L139.951 56.5412L147.773 55.4907L149.221 64.6219Z" fill="#00B8F1"/>
<path d="M157.029 64.4294L156.044 64.9302C155.424 65.2457 154.731 65.3914 154.036 65.3524C153.341 65.3133 152.668 65.091 152.088 64.7081L152.049 64.6823C152.406 65.2327 152.895 65.685 153.473 65.9978C154.05 66.3106 154.697 66.4738 155.354 66.4726L156.913 66.4668L157.28 65.9287L157.029 64.4294Z" fill="#FFA69B"/>
<path d="M141.326 56.3555L148.639 32.9043L150.725 34.2547L146.048 55.7214L141.326 56.3555Z" fill="#FFC6C2"/>
<path d="M170.518 66.1535L175.534 63.8575L179.365 44.0771L181.242 45.2591L179.274 65.6109L172.138 70.3963L170.518 66.1535Z" fill="#FFC6C2"/>
<path d="M145.868 22.9815L137.41 22.1252L142.017 28.6165L145.868 22.9815Z" fill="#FFA69B"/>
<path d="M145.869 22.9817L187.938 49.4755L183.951 55.7703L142.018 28.6166L145.869 22.9817Z" fill="#FFCC29"/>
<path d="M187.936 49.4753L189.217 50.2859C190.052 50.8142 190.642 51.6514 190.859 52.6136C191.075 53.5759 190.9 54.5846 190.372 55.4182C190.11 55.8321 189.769 56.1904 189.368 56.4725C188.967 56.7547 188.514 56.9551 188.035 57.0624C187.556 57.1698 187.061 57.1818 186.578 57.0979C186.094 57.0141 185.632 56.8359 185.218 56.5736L183.949 55.7706L187.936 49.4753Z" fill="#FFA69B"/>
<path d="M183.951 55.77L142.018 28.6164L143.064 27.0842L184.769 54.4774L183.951 55.77Z" fill="#F2994A"/>
<path d="M166.505 145.802L168.28 148.068L163.745 155.834L162.956 153.376L164.356 148.888L162.17 143.349L164.356 142.334L166.505 145.802Z" fill="#FFC6C2"/>
<path d="M154.171 148.756V151.348L156.283 154.586L155.226 155.764H152.961L151.687 154.18L152.296 151.348L151.592 148.524L154.171 148.756Z" fill="#FFC6C2"/>
<path d="M151.686 154.18C151.686 154.18 152.919 155.305 156.281 154.586L155.225 155.763H152.959L151.686 154.18Z" fill="#F2516C"/>
<path d="M167.053 146.502L165.912 151.017L162.955 153.374L163.744 155.833L168.279 148.067L167.053 146.502Z" fill="#F2516C"/>
<path d="M150.001 68.7882C148.168 67.3915 149.221 64.6218 149.221 64.6218L147.772 55.4897L145.867 74.28L150.001 68.7882Z" fill="#29A0C1"/>
<path d="M163.127 75.0449L156.283 84.9769L150.559 84.3325L157.342 86.9361L158.273 95.2816L161.97 96.0557L159.797 86.4508L163.127 75.0449Z" fill="#29A0C1"/>
<path d="M153.303 57.5933C152.823 57.8712 152.418 58.2605 152.121 58.7282C150.915 60.5119 150.869 62.8244 151.091 64.9644C151.313 67.1045 151.759 69.2672 151.389 71.3868C151.177 72.5576 150.724 73.6717 150.057 74.6584C149.391 75.6452 148.527 76.4831 147.519 77.1191C146.328 77.8603 144.821 78.298 143.517 77.7816C141.813 77.108 141.054 74.9795 141.414 73.1869C141.774 71.3943 142.988 69.8986 144.278 68.5989C145.568 67.2991 146.992 66.0967 147.96 64.5441C148.757 63.2615 149.209 61.7954 149.273 60.2875C149.314 59.2681 149.177 58.2363 149.357 57.2321C149.859 54.4273 153.184 52.5067 155.872 53.4692C157.116 53.9136 158.381 55.0871 157.268 56.2936C156.318 57.3214 154.47 56.9663 153.303 57.5933Z" fill="#333333"/>
<path d="M155.626 67.9578C154.685 69.9614 153.527 71.8837 152.926 74.0131C152.325 76.1425 152.36 78.5949 153.671 80.3786C154.972 82.1463 157.279 82.9195 159.474 82.9968C160.559 83.0788 161.647 82.8816 162.634 82.424C164.048 81.693 164.94 80.2315 165.479 78.7358C166.174 76.7537 166.377 74.6336 166.073 72.5561C165.769 70.4786 164.966 68.5053 163.732 66.8042C163.304 66.2266 162.826 65.6809 162.447 65.0677C161.378 63.3346 161.2 61.2017 161.213 59.1643C161.224 57.4891 161.279 55.1451 159.551 54.1901C158.007 53.3361 156.912 54.6234 156.468 56.0502C155.855 58.0223 156.791 59.7709 157.013 61.7083C157.263 63.8861 156.541 66.0119 155.626 67.9578Z" fill="#333333"/>
<path d="M179.876 44.3989L178.656 45.8369L181.054 47.2175L182.604 46.1168L179.876 44.3989Z" fill="#FFC6C2"/>
<path d="M145.574 30.9204L145.867 32.6716L148.337 33.867L148.771 32.9902L145.574 30.9204Z" fill="#FFC6C2"/>
<path d="M179.925 138.306C180.027 140.354 181.234 142.169 182.492 143.792C182.955 144.389 183.514 145.024 184.268 145.1C184.398 145.119 184.531 145.111 184.659 145.076C184.786 145.042 184.905 144.982 185.008 144.9C185.149 144.758 185.256 144.585 185.32 144.396C186.038 142.642 186.131 140.695 185.582 138.881C185.15 137.471 184.028 135.238 182.488 134.743C180.445 134.09 179.845 136.745 179.925 138.306Z" fill="#F2C94C"/>
<path d="M189.68 131.573C189.001 134.368 188.878 137.264 188.757 140.137C188.687 141.803 188.642 143.573 189.485 145.013C189.608 145.28 189.799 145.511 190.038 145.683C190.277 145.855 190.557 145.963 190.85 145.996C191.34 145.933 191.787 145.685 192.097 145.301C194.057 143.332 195.204 140.672 195.776 137.956C196.348 135.24 196.387 132.443 196.4 129.668C196.409 127.942 196.171 124.415 193.521 124.985C191.234 125.477 190.142 129.675 189.68 131.573Z" fill="#27AE60"/>
<path d="M183.869 141.757L187.862 155.833L192.779 130.257" stroke="#219653" stroke-width="0.75" stroke-linecap="round" stroke-linejoin="round"/>
<path d="M14.3945 91.1902C15.8199 89.4536 17.5441 87.9241 18.5699 85.9285C20.7796 81.6293 19.2175 76.4636 17.8412 71.8302C16.4648 67.1969 15.4551 61.7223 18.4416 57.9217C20.193 55.691 23.0295 54.4974 24.7261 52.2236C26.4227 49.9498 27.3612 46.3985 30.1883 46.1545C30.7628 46.1383 31.3345 46.2389 31.8688 46.4501C32.4031 46.6613 32.8887 46.9788 33.296 47.3832C36.2701 50.0747 36.2274 54.752 35.2782 58.6447C34.329 62.5373 32.6947 66.4401 33.2805 70.4029C33.9704 75.0723 37.5467 78.6867 40.4451 82.4171C43.3435 86.1476 45.7701 91.1431 43.8152 95.4409C42.4673 98.404 39.3315 100.247 37.9396 103.19C35.7125 107.894 37.157 113.659 31.0734 115.747C27.7955 116.871 23.0054 116.627 19.9654 114.896C11.2592 109.938 7.80446 99.2327 14.3945 91.1902Z" fill="#F2C94C"/>
<path d="M11.3848 121.951C9.43692 117.182 11.6997 111.212 8.9082 106.881C12.2489 107.571 15.5949 108.368 18.695 109.787C21.7952 111.206 24.6637 113.295 26.5345 116.141C27.9098 118.147 28.5973 120.544 28.4944 122.972C27.7184 134.426 14.3531 129.216 11.3848 121.951Z" fill="#27AE60"/>
<path d="M32.5391 117.642C35.3279 116.7 38.6583 118.192 41.2248 116.755C40.7675 118.645 40.0975 120.477 39.2275 122.216C38.3495 123.962 36.9994 125.429 35.3296 126.45C34.137 127.162 32.7453 127.469 31.3627 127.327C24.8524 126.491 28.2888 119.077 32.5391 117.642Z" fill="#00B8F1"/>
<path d="M27.7402 58.05V128.022" stroke="#219653" stroke-width="0.75" stroke-linecap="round" stroke-linejoin="round"/>
<path d="M21.6094 64.6453L27.742 72.0674" stroke="#219653" stroke-width="0.75" stroke-linecap="round" stroke-linejoin="round"/>
<path d="M27.7402 90.9009L33.7535 84.9753" stroke="#219653" stroke-width="0.75" stroke-linecap="round" stroke-linejoin="round"/>
<path d="M20.3438 99.4309L27.7413 104.518" stroke="#219653" stroke-width="0.75" stroke-linecap="round" stroke-linejoin="round"/>
<path d="M36.1695 155.833H16.0479L12.6992 125.448H39.5182L36.1695 155.833Z" fill="#70BCE5"/>
<path d="M5.3457 155.833H200.832" stroke="#27AE60" stroke-width="0.75" stroke-linecap="round" stroke-linejoin="round"/>
</g>
<defs>
<clipPath id="clip0">
<rect width="201" height="156" fill="white"/>
</clipPath>
</defs>
</svg>
