<svg width="117" height="117" viewBox="0 0 117 117" fill="none" xmlns="http://www.w3.org/2000/svg">
<mask id="path-1-inside-1" fill="white">
<path d="M0 8C0 3.58172 3.58172 0 8 0H109C113.418 0 117 3.58172 117 8V109C117 113.418 113.418 117 109 117H8C3.58172 117 0 113.418 0 109V8Z"/>
</mask>
<path d="M0 8C0 3.58172 3.58172 0 8 0H109C113.418 0 117 3.58172 117 8V109C117 113.418 113.418 117 109 117H8C3.58172 117 0 113.418 0 109V8Z" fill="#F8F8F8" stroke="#27AE60" stroke-width="3.2" stroke-dasharray="4 2" mask="url(#path-1-inside-1)"/>
<g clip-path="url(#clip0)">
<path d="M75.544 46.3232C75.4983 46.3232 75.4983 46.2775 75.4526 46.2318C75.4069 46.1861 75.4069 46.1404 75.3612 46.0947L67.5005 37.2742C67.4548 37.2285 67.3634 37.1828 67.3177 37.1371C67.272 37.1371 67.272 37.0914 67.2263 37.0914C67.1349 37.0457 66.9977 37 66.8606 37H47.5745C44.741 37 42.4102 39.3308 42.4102 42.1643V73.8357C42.4102 76.6692 44.741 79 47.5745 79H70.4254C73.2589 79 75.5897 76.6692 75.5897 73.8357V46.6431C75.5897 46.5517 75.544 46.4146 75.544 46.3232ZM67.729 40.1077L72.8019 45.8205H67.729V40.1077ZM73.853 73.79C73.853 75.7095 72.3449 77.2633 70.4254 77.2633H47.5745C45.655 77.2633 44.1468 75.7095 44.1468 73.8357V42.1186C44.1468 40.1991 45.7007 38.691 47.5745 38.691H65.9923V46.6431C65.9923 47.1001 66.3579 47.5114 66.8606 47.5114H73.853V73.79Z" fill="#059657"/>
<path d="M48.5832 47.5101H56.2154C56.6724 47.5101 57.0837 47.1445 57.0837 46.6418C57.0837 46.1391 56.7181 45.7734 56.2154 45.7734H48.5832C48.1262 45.7734 47.7148 46.1391 47.7148 46.6418C47.7148 47.1445 48.1262 47.5101 48.5832 47.5101Z" fill="#059657"/>
<path d="M56.2154 68.4883H48.5832C48.1262 68.4883 47.7148 68.8539 47.7148 69.3566C47.7148 69.8136 48.0805 70.225 48.5832 70.225H56.2154C56.6724 70.225 57.0837 69.8593 57.0837 69.3566C57.0837 68.8996 56.6724 68.4883 56.2154 68.4883Z" fill="#059657"/>
<path d="M47.7148 52.4035C47.7148 52.8605 48.0805 53.2718 48.5832 53.2718H68.9662C69.4232 53.2718 69.8345 52.9062 69.8345 52.4035C69.8345 51.9465 69.4689 51.5352 68.9662 51.5352H48.5832C48.1262 51.5352 47.7148 51.9008 47.7148 52.4035Z" fill="#059657"/>
<path d="M68.9662 55.8281H48.5832C48.1262 55.8281 47.7148 56.1937 47.7148 56.6965C47.7148 57.1535 48.0805 57.5648 48.5832 57.5648H68.9662C69.4232 57.5648 69.8345 57.1992 69.8345 56.6965C69.8345 56.1937 69.4689 55.8281 68.9662 55.8281Z" fill="#059657"/>
<path d="M68.9662 60.0781H48.5832C48.1262 60.0781 47.7148 60.4437 47.7148 60.9465C47.7148 61.4035 48.0805 61.8148 48.5832 61.8148H68.9662C69.4232 61.8148 69.8345 61.4492 69.8345 60.9465C69.8345 60.4437 69.4689 60.0781 68.9662 60.0781Z" fill="#059657"/>
<path d="M68.9662 64.332H48.5832C48.1262 64.332 47.7148 64.6976 47.7148 65.2004C47.7148 65.6574 48.0805 66.0687 48.5832 66.0687H68.9662C69.4232 66.0687 69.8345 65.7031 69.8345 65.2004C69.8345 64.7433 69.4689 64.332 68.9662 64.332Z" fill="#059657"/>
</g>
<defs>
<clipPath id="clip0">
<rect x="38" y="37" width="42" height="42" fill="white"/>
</clipPath>
</defs>
</svg>
