<svg width="117" height="117" viewBox="0 0 117 117" fill="none" xmlns="http://www.w3.org/2000/svg">
<rect width="117" height="117" rx="8" fill="#27AE60"/>
<g clip-path="url(#clip0)">
<path d="M74.544 46.3232C74.4983 46.3232 74.4983 46.2775 74.4526 46.2318C74.4069 46.1861 74.4069 46.1404 74.3612 46.0947L66.5005 37.2742C66.4548 37.2285 66.3634 37.1828 66.3177 37.1371C66.272 37.1371 66.272 37.0914 66.2263 37.0914C66.1349 37.0457 65.9977 37 65.8606 37H46.5745C43.741 37 41.4102 39.3308 41.4102 42.1643V73.8357C41.4102 76.6692 43.741 79 46.5745 79H69.4254C72.2589 79 74.5897 76.6692 74.5897 73.8357V46.6431C74.5897 46.5517 74.544 46.4146 74.544 46.3232ZM66.729 40.1077L71.8019 45.8205H66.729V40.1077ZM72.853 73.79C72.853 75.7095 71.3449 77.2633 69.4254 77.2633H46.5745C44.655 77.2633 43.1468 75.7095 43.1468 73.8357V42.1186C43.1468 40.1991 44.7007 38.691 46.5745 38.691H64.9923V46.6431C64.9923 47.1001 65.3579 47.5114 65.8606 47.5114H72.853V73.79Z" fill="white"/>
<path d="M47.5832 47.5101H55.2154C55.6724 47.5101 56.0837 47.1445 56.0837 46.6418C56.0837 46.1391 55.7181 45.7734 55.2154 45.7734H47.5832C47.1262 45.7734 46.7148 46.1391 46.7148 46.6418C46.7148 47.1445 47.1262 47.5101 47.5832 47.5101Z" fill="white"/>
<path d="M55.2154 68.4883H47.5832C47.1262 68.4883 46.7148 68.8539 46.7148 69.3566C46.7148 69.8136 47.0805 70.225 47.5832 70.225H55.2154C55.6724 70.225 56.0837 69.8593 56.0837 69.3566C56.0837 68.8996 55.6724 68.4883 55.2154 68.4883Z" fill="white"/>
<path d="M46.7148 52.4035C46.7148 52.8605 47.0805 53.2718 47.5832 53.2718H67.9662C68.4232 53.2718 68.8345 52.9062 68.8345 52.4035C68.8345 51.9465 68.4689 51.5352 67.9662 51.5352H47.5832C47.1262 51.5352 46.7148 51.9008 46.7148 52.4035Z" fill="white"/>
<path d="M67.9662 55.8281H47.5832C47.1262 55.8281 46.7148 56.1937 46.7148 56.6965C46.7148 57.1535 47.0805 57.5648 47.5832 57.5648H67.9662C68.4232 57.5648 68.8345 57.1992 68.8345 56.6965C68.8345 56.1937 68.4689 55.8281 67.9662 55.8281Z" fill="white"/>
<path d="M67.9662 60.0781H47.5832C47.1262 60.0781 46.7148 60.4437 46.7148 60.9465C46.7148 61.4035 47.0805 61.8148 47.5832 61.8148H67.9662C68.4232 61.8148 68.8345 61.4492 68.8345 60.9465C68.8345 60.4437 68.4689 60.0781 67.9662 60.0781Z" fill="white"/>
<path d="M67.9662 64.332H47.5832C47.1262 64.332 46.7148 64.6976 46.7148 65.2004C46.7148 65.6574 47.0805 66.0687 47.5832 66.0687H67.9662C68.4232 66.0687 68.8345 65.7031 68.8345 65.2004C68.8345 64.7433 68.4689 64.332 67.9662 64.332Z" fill="white"/>
</g>
<path d="M97 12C92.0372 12 88 16.0372 88 21C88 25.9628 92.0372 30 97 30C101.963 30 106 25.9628 106 21C106 16.0372 101.963 12 97 12ZM101.562 19.0928L96.6865 23.9677C96.5402 24.1139 96.3482 24.1875 96.1562 24.1875C95.9643 24.1875 95.7723 24.1139 95.626 23.9677L93.1886 21.5302C92.8952 21.237 92.8952 20.763 93.1886 20.4698C93.4818 20.1764 93.9557 20.1764 94.249 20.4698L96.1562 22.377L100.501 18.0323C100.794 17.739 101.268 17.739 101.562 18.0323C101.855 18.3255 101.855 18.7994 101.562 19.0928Z" fill="white"/>
<defs>
<clipPath id="clip0">
<rect x="37" y="37" width="42" height="42" fill="white"/>
</clipPath>
</defs>
</svg>
